NotoSerifBengali-SemiBold.ufo
<glyph name="exclam" format="2">
  <advance width="364.58620689655174"/>
  <unicode hex="0021"/>
  <outline>
    <contour>
      <point x="167.17241379310346" y="209.17241379310346" type="line"/>
      <point x="215.13793103448276" y="209.17241379310346" type="line"/>
      <point x="257.0689655172414" y="714.0" type="line"/>
      <point x="125.24137931034483" y="714.0" type="line"/>
    </contour>
    <contour>
      <point x="191.27586206896552" y="-7.620689655172414" type="curve" smooth="yes"/>
      <point x="227.6206896551724" y="-7.620689655172414"/>
      <point x="259.3448275862069" y="10.241379310344827"/>
      <point x="259.3448275862069" y="63.96551724137931" type="curve" smooth="yes"/>
      <point x="259.3448275862069" y="117.3103448275862"/>
      <point x="227.6206896551724" y="134.55172413793105"/>
      <point x="191.27586206896552" y="134.55172413793105" type="curve" smooth="yes"/>
      <point x="153.31034482758622" y="134.55172413793105"/>
      <point x="122.58620689655173" y="117.3103448275862"/>
      <point x="122.58620689655173" y="63.96551724137931" type="curve" smooth="yes"/>
      <point x="122.58620689655173" y="10.241379310344827"/>
      <point x="153.31034482758622" y="-7.620689655172414"/>
    </contour>
  </outline>
</glyph>
<glyph name="quotedbl" format="2">
  <advance width="437.2068965517241"/>
  <unicode hex="0022"/>
  <outline>
    <contour>
      <point x="294.6896551724138" y="467.2413793103448" type="line"/>
      <point x="346.37931034482756" y="467.2413793103448" type="line"/>
      <point x="376.86206896551727" y="714.0" type="line"/>
      <point x="256.37931034482756" y="714.0" type="line"/>
    </contour>
    <contour>
      <point x="93.55172413793103" y="467.2413793103448" type="line"/>
      <point x="146.24137931034483" y="467.2413793103448" type="line"/>
      <point x="180.44827586206895" y="714.0" type="line"/>
      <point x="59.724137931034484" y="714.0" type="line"/>
    </contour>
  </outline>
</glyph>
<glyph name="numbersign" format="2">
  <advance width="559.0"/>
  <unicode hex="0023"/>
  <outline>
    <contour>
      <point x="81.24137931034483" y="0.0" type="line"/>
      <point x="143.82758620689654" y="0.0" type="line"/>
      <point x="181.82758620689654" y="203.13793103448276" type="line"/>
      <point x="312.41379310344826" y="203.13793103448276" type="line"/>
      <point x="274.0344827586207" y="0.0" type="line"/>
      <point x="336.62068965517244" y="0.0" type="line"/>
      <point x="374.37931034482756" y="203.13793103448276" type="line"/>
      <point x="500.37931034482756" y="203.13793103448276" type="line"/>
      <point x="500.37931034482756" y="263.1034482758621" type="line"/>
      <point x="386.62068965517244" y="263.1034482758621" type="line"/>
      <point x="422.37931034482756" y="456.2758620689655" type="line"/>
      <point x="532.7586206896551" y="456.2758620689655" type="line"/>
      <point x="532.7586206896551" y="517.2413793103449" type="line"/>
      <point x="434.62068965517244" y="517.2413793103449" type="line"/>
      <point x="472.0" y="714.0" type="line"/>
      <point x="409.41379310344826" y="714.0" type="line"/>
      <point x="372.0344827586207" y="517.2413793103449" type="line"/>
      <point x="241.44827586206895" y="517.2413793103449" type="line"/>
      <point x="278.44827586206895" y="714.0" type="line"/>
      <point x="215.24137931034483" y="714.0" type="line"/>
      <point x="179.48275862068965" y="517.2413793103449" type="line"/>
      <point x="58.241379310344826" y="517.2413793103449" type="line"/>
      <point x="58.241379310344826" y="456.2758620689655" type="line"/>
      <point x="168.24137931034483" y="456.2758620689655" type="line"/>
      <point x="130.48275862068965" y="263.1034482758621" type="line"/>
      <point x="25.24137931034483" y="263.1034482758621" type="line"/>
      <point x="25.24137931034483" y="203.13793103448276" type="line"/>
      <point x="119.86206896551724" y="203.13793103448276" type="line"/>
    </contour>
    <contour>
      <point x="194.44827586206895" y="263.1034482758621" type="line"/>
      <point x="230.20689655172413" y="456.2758620689655" type="line"/>
      <point x="361.41379310344826" y="456.2758620689655" type="line"/>
      <point x="325.0344827586207" y="263.1034482758621" type="line"/>
    </contour>
  </outline>
</glyph>
<glyph name="percent" format="2">
  <advance width="898.7241379310345"/>
  <unicode hex="0025"/>
  <outline>
    <contour>
      <point x="235.86206896551724" y="0.0" type="line"/>
      <point x="304.0689655172414" y="0.0" type="line"/>
      <point x="658.4827586206897" y="714.0" type="line"/>
      <point x="590.8965517241379" y="714.0" type="line"/>
    </contour>
    <contour>
      <point x="209.86206896551724" y="280.0" type="curve" smooth="yes"/>
      <point x="323.82758620689657" y="280.0"/>
      <point x="379.3103448275862" y="369.0"/>
      <point x="379.3103448275862" y="503.0" type="curve"/>
      <point x="379.3103448275862" y="637.0"/>
      <point x="323.44827586206895" y="724.0"/>
      <point x="210.86206896551724" y="724.0" type="curve" smooth="yes"/>
      <point x="91.89655172413794" y="724.0"/>
      <point x="41.6551724137931" y="637.0"/>
      <point x="41.6551724137931" y="503.0" type="curve" smooth="yes"/>
      <point x="41.6551724137931" y="369.0"/>
      <point x="91.51724137931035" y="280.0"/>
    </contour>
    <contour>
      <point x="209.86206896551724" y="323.3448275862069" type="curve" smooth="yes"/>
      <point x="156.58620689655172" y="323.3448275862069"/>
      <point x="135.20689655172413" y="389.48275862068965"/>
      <point x="135.20689655172413" y="503.0" type="curve"/>
      <point x="135.20689655172413" y="614.1379310344828"/>
      <point x="155.58620689655172" y="679.6551724137931"/>
      <point x="210.48275862068965" y="679.6551724137931" type="curve" smooth="yes"/>
      <point x="265.37931034482756" y="679.6551724137931"/>
      <point x="284.13793103448273" y="614.8965517241379"/>
      <point x="284.13793103448273" y="503.0" type="curve" smooth="yes"/>
      <point x="284.13793103448273" y="389.86206896551727"/>
      <point x="265.37931034482756" y="323.3448275862069"/>
    </contour>
    <contour>
      <point x="687.8620689655172" y="-10.0" type="curve" smooth="yes"/>
      <point x="801.8275862068965" y="-10.0"/>
      <point x="857.3103448275862" y="79.0"/>
      <point x="857.3103448275862" y="213.0" type="curve" smooth="yes"/>
      <point x="857.3103448275862" y="347.0"/>
      <point x="801.448275862069" y="434.0"/>
      <point x="688.8620689655172" y="434.0" type="curve" smooth="yes"/>
      <point x="569.5172413793103" y="434.0"/>
      <point x="519.6551724137931" y="347.0"/>
      <point x="519.6551724137931" y="213.0" type="curve" smooth="yes"/>
      <point x="519.6551724137931" y="79.0"/>
      <point x="569.5172413793103" y="-10.0"/>
    </contour>
    <contour>
      <point x="687.8620689655172" y="33.3448275862069" type="curve" smooth="yes"/>
      <point x="634.5862068965517" y="33.3448275862069"/>
      <point x="613.2068965517242" y="99.48275862068965"/>
      <point x="613.2068965517242" y="213.0" type="curve" smooth="yes"/>
      <point x="613.2068965517242" y="324.13793103448273"/>
      <point x="633.5862068965517" y="389.6551724137931"/>
      <point x="688.8620689655172" y="389.6551724137931" type="curve" smooth="yes"/>
      <point x="743.3793103448276" y="389.6551724137931"/>
      <point x="761.1379310344828" y="324.8965517241379"/>
      <point x="761.1379310344828" y="213.0" type="curve" smooth="yes"/>
      <point x="761.1379310344828" y="99.86206896551724"/>
      <point x="743.3793103448276" y="33.3448275862069"/>
    </contour>
  </outline>
</glyph>
<glyph name="parenleft" format="2">
  <advance width="401.7931034482759"/>
  <unicode hex="0028"/>
  <outline>
    <contour>
      <point x="310.0689655172414" y="-130.9655172413793" type="curve"/>
      <point x="310.0689655172414" y="-79.89655172413794" type="line"/>
      <point x="177.0344827586207" y="2.103448275862069"/>
      <point x="157.93103448275863" y="158.6206896551724"/>
      <point x="157.93103448275863" y="317.62068965517244" type="curve" smooth="yes"/>
      <point x="157.93103448275863" y="476.0"/>
      <point x="177.0344827586207" y="631.8965517241379"/>
      <point x="310.0689655172414" y="713.1379310344828" type="curve"/>
      <point x="310.0689655172414" y="762.9655172413793" type="line"/>
      <point x="114.93103448275862" y="686.1379310344828"/>
      <point x="37.724137931034484" y="550.0689655172414"/>
      <point x="37.724137931034484" y="317.62068965517244" type="curve" smooth="yes"/>
      <point x="37.724137931034484" y="83.55172413793103"/>
      <point x="114.93103448275862" y="-54.13793103448276"/>
    </contour>
  </outline>
</glyph>
<glyph name="parenright" format="2">
  <advance width="430.7931034482759"/>
  <unicode hex="0029"/>
  <outline>
    <contour>
      <point x="120.72413793103448" y="-130.9655172413793" type="line"/>
      <point x="315.86206896551727" y="-54.13793103448276"/>
      <point x="393.0689655172414" y="83.55172413793103"/>
      <point x="393.0689655172414" y="317.62068965517244" type="curve" smooth="yes"/>
      <point x="393.0689655172414" y="550.0689655172414"/>
      <point x="315.86206896551727" y="686.1379310344828"/>
      <point x="120.72413793103448" y="762.9655172413793" type="curve"/>
      <point x="120.72413793103448" y="713.1379310344828" type="line"/>
      <point x="253.13793103448276" y="631.8965517241379"/>
      <point x="272.86206896551727" y="476.0"/>
      <point x="272.86206896551727" y="317.62068965517244" type="curve" smooth="yes"/>
      <point x="272.86206896551727" y="158.6206896551724"/>
      <point x="253.13793103448276" y="2.103448275862069"/>
      <point x="120.72413793103448" y="-79.89655172413794" type="curve"/>
    </contour>
  </outline>
</glyph>
<glyph name="asterisk" format="2">
  <advance width="495.7241379310345"/>
  <unicode hex="002A"/>
  <outline>
    <contour>
      <point x="200.13793103448276" y="374.2758620689655" type="line"/>
      <point x="293.0689655172414" y="374.2758620689655" type="line"/>
      <point x="262.9655172413793" y="534.8965517241379" type="line"/>
      <point x="414.7241379310345" y="437.55172413793105" type="line"/>
      <point x="452.6896551724138" y="520.8620689655172" type="line"/>
      <point x="290.0344827586207" y="567.1379310344828" type="line"/>
      <point x="452.6896551724138" y="613.7931034482758" type="line"/>
      <point x="414.7241379310345" y="696.7241379310345" type="line"/>
      <point x="262.9655172413793" y="599.3793103448276" type="line"/>
      <point x="293.3103448275862" y="760.0" type="line"/>
      <point x="200.13793103448276" y="760.0" type="line"/>
      <point x="227.6206896551724" y="598.7586206896551" type="line"/>
      <point x="76.86206896551724" y="699.1034482758621" type="line"/>
      <point x="39.13793103448276" y="614.7931034482758" type="line"/>
      <point x="201.79310344827587" y="567.1379310344828" type="line"/>
      <point x="39.13793103448276" y="519.8620689655172" type="line"/>
      <point x="76.86206896551724" y="435.55172413793105" type="line"/>
      <point x="227.24137931034483" y="534.8965517241379" type="line"/>
    </contour>
  </outline>
</glyph>
<glyph name="plus" format="2">
  <advance width="559.0"/>
  <unicode hex="002B"/>
  <outline>
    <contour>
      <point x="247.51724137931035" y="143.0" type="line"/>
      <point x="310.1034482758621" y="143.0" type="line"/>
      <point x="310.1034482758621" y="326.8965517241379" type="line"/>
      <point x="494.0" y="326.8965517241379" type="line"/>
      <point x="494.0" y="388.48275862068965" type="line"/>
      <point x="310.1034482758621" y="388.48275862068965" type="line"/>
      <point x="310.1034482758621" y="572.0" type="line"/>
      <point x="247.51724137931035" y="572.0" type="line"/>
      <point x="247.51724137931035" y="388.48275862068965" type="line"/>
      <point x="64.62068965517241" y="388.48275862068965" type="line"/>
      <point x="64.62068965517241" y="326.8965517241379" type="line"/>
      <point x="247.51724137931035" y="326.8965517241379" type="line"/>
    </contour>
  </outline>
</glyph>
<glyph name="comma" format="2">
  <advance width="329.2758620689655"/>
  <unicode hex="002C"/>
  <outline>
    <contour>
      <point x="94.82758620689656" y="-154.0" type="line"/>
      <point x="215.41379310344828" y="-119.37931034482759"/>
      <point x="261.2758620689655" y="-44.37931034482759"/>
      <point x="261.2758620689655" y="39.241379310344826" type="curve" smooth="yes"/>
      <point x="261.2758620689655" y="100.20689655172414"/>
      <point x="227.51724137931035" y="134.55172413793105"/>
      <point x="182.31034482758622" y="134.55172413793105" type="curve" smooth="yes"/>
      <point x="144.44827586206895" y="134.55172413793105"/>
      <point x="114.72413793103448" y="112.3103448275862"/>
      <point x="114.72413793103448" y="72.58620689655173" type="curve" smooth="yes"/>
      <point x="114.72413793103448" y="7.517241379310345"/>
      <point x="186.9655172413793" y="15.758620689655173"/>
      <point x="186.9655172413793" y="-23.620689655172413" type="curve" smooth="yes"/>
      <point x="186.9655172413793" y="-61.0"/>
      <point x="157.9655172413793" y="-88.65517241379311"/>
      <point x="94.82758620689656" y="-109.65517241379311" type="curve"/>
    </contour>
  </outline>
</glyph>
<glyph name="period" format="2">
  <advance width="319.48275862068965"/>
  <unicode hex="002E"/>
  <outline>
    <contour>
      <point x="188.79310344827587" y="-7.620689655172414" type="curve" smooth="yes"/>
      <point x="225.13793103448276" y="-7.620689655172414"/>
      <point x="255.86206896551724" y="10.241379310344827"/>
      <point x="255.86206896551724" y="63.96551724137931" type="curve" smooth="yes"/>
      <point x="255.86206896551724" y="117.3103448275862"/>
      <point x="225.13793103448276" y="134.55172413793105"/>
      <point x="188.79310344827587" y="134.55172413793105" type="curve" smooth="yes"/>
      <point x="150.82758620689654" y="134.55172413793105"/>
      <point x="120.72413793103448" y="117.3103448275862"/>
      <point x="120.72413793103448" y="63.96551724137931" type="curve" smooth="yes"/>
      <point x="120.72413793103448" y="10.241379310344827"/>
      <point x="150.82758620689654" y="-7.620689655172414"/>
    </contour>
  </outline>
</glyph>
<glyph name="zero" format="2">
  <advance width="559.0"/>
  <unicode hex="0030"/>
  <outline>
    <contour>
      <point x="280.0" y="-10.0" type="curve" smooth="yes"/>
      <point x="443.2068965517241" y="-10.0"/>
      <point x="517.7241379310345" y="137.0"/>
      <point x="517.7241379310345" y="358.0" type="curve" smooth="yes"/>
      <point x="517.7241379310345" y="580.0"/>
      <point x="443.2068965517241" y="724.0"/>
      <point x="281.0" y="724.0" type="curve" smooth="yes"/>
      <point x="108.79310344827586" y="724.0"/>
      <point x="41.275862068965516" y="580.0"/>
      <point x="41.275862068965516" y="359.0" type="curve" smooth="yes"/>
      <point x="41.275862068965516" y="137.0"/>
      <point x="108.79310344827586" y="-10.0"/>
    </contour>
    <contour>
      <point x="280.0" y="47.724137931034484" type="curve" smooth="yes"/>
      <point x="191.06896551724137" y="47.724137931034484"/>
      <point x="163.27586206896552" y="162.48275862068965"/>
      <point x="163.27586206896552" y="358.0" type="curve" smooth="yes"/>
      <point x="163.27586206896552" y="553.5172413793103"/>
      <point x="191.06896551724137" y="666.2758620689655"/>
      <point x="281.0" y="666.2758620689655" type="curve" smooth="yes"/>
      <point x="368.9310344827586" y="666.2758620689655"/>
      <point x="395.7241379310345" y="553.5172413793103"/>
      <point x="395.7241379310345" y="358.0" type="curve" smooth="yes"/>
      <point x="395.7241379310345" y="162.48275862068965"/>
      <point x="368.9310344827586" y="47.724137931034484"/>
    </contour>
  </outline>
</glyph>
<glyph name="one" format="2">
  <advance width="559.0"/>
  <unicode hex="0031"/>
  <outline>
    <contour>
      <point x="96.62068965517241" y="0.0" type="line"/>
      <point x="488.7931034482759" y="0.0" type="line"/>
      <point x="488.7931034482759" y="45.724137931034484" type="line"/>
      <point x="428.62068965517244" y="45.724137931034484" type="line" smooth="yes"/>
      <point x="384.2413793103448" y="45.724137931034484"/>
      <point x="357.7931034482759" y="60.310344827586206"/>
      <point x="357.7931034482759" y="115.24137931034483" type="curve" smooth="yes"/>
      <point x="357.7931034482759" y="718.0" type="line"/>
      <point x="276.41379310344826" y="718.0" type="line"/>
      <point x="206.41379310344828" y="666.0" type="line" smooth="yes"/>
      <point x="140.41379310344828" y="617.0"/>
      <point x="97.3103448275862" y="599.0"/>
      <point x="57.310344827586206" y="589.0" type="curve"/>
      <point x="57.310344827586206" y="552.0344827586207"/>
      <point x="80.17241379310344" y="527.551724137931"/>
      <point x="110.41379310344827" y="527.551724137931" type="curve" smooth="yes"/>
      <point x="150.41379310344828" y="527.551724137931"/>
      <point x="188.41379310344828" y="569.551724137931"/>
      <point x="239.41379310344828" y="631.551724137931" type="curve"/>
      <point x="239.41379310344828" y="115.24137931034483" type="line" smooth="yes"/>
      <point x="239.41379310344828" y="57.206896551724135"/>
      <point x="209.86206896551724" y="45.724137931034484"/>
      <point x="168.58620689655172" y="45.724137931034484" type="curve" smooth="yes"/>
      <point x="96.62068965517241" y="45.724137931034484" type="line"/>
    </contour>
  </outline>
</glyph>
<glyph name="two" format="2">
  <advance width="559.0"/>
  <unicode hex="0032"/>
  <outline>
    <contour>
      <point x="51.689655172413794" y="0.0" type="line"/>
      <point x="497.2068965517241" y="0.0" type="line"/>
      <point x="502.2068965517241" y="186.0344827586207" type="line"/>
      <point x="454.0" y="186.0344827586207" type="line"/>
      <point x="448.7586206896552" y="163.68965517241378" type="line" smooth="yes"/>
      <point x="438.51724137931035" y="122.82758620689656"/>
      <point x="417.9310344827586" y="90.55172413793103"/>
      <point x="364.7586206896552" y="90.55172413793103" type="curve" smooth="yes"/>
      <point x="133.13793103448276" y="90.55172413793103" type="line"/>
      <point x="277.3103448275862" y="244.6551724137931" type="line" smooth="yes"/>
      <point x="416.44827586206895" y="387.3448275862069"/>
      <point x="477.2068965517241" y="464.62068965517244"/>
      <point x="477.2068965517241" y="557.6206896551724" type="curve" smooth="yes"/>
      <point x="477.2068965517241" y="659.2413793103449"/>
      <point x="398.9655172413793" y="724.0"/>
      <point x="264.8965517241379" y="724.0" type="curve" smooth="yes"/>
      <point x="129.68965517241378" y="724.0"/>
      <point x="60.206896551724135" y="665.1379310344828"/>
      <point x="60.206896551724135" y="589.3793103448276" type="curve" smooth="yes"/>
      <point x="60.206896551724135" y="530.9310344827586"/>
      <point x="103.17241379310344" y="512.5862068965517"/>
      <point x="161.10344827586206" y="512.5862068965517" type="curve"/>
      <point x="161.10344827586206" y="604.0"/>
      <point x="181.9655172413793" y="670.2758620689655"/>
      <point x="264.8965517241379" y="670.2758620689655" type="curve" smooth="yes"/>
      <point x="326.82758620689657" y="670.2758620689655"/>
      <point x="358.2068965517241" y="624.8620689655172"/>
      <point x="358.2068965517241" y="548.8620689655172" type="curve" smooth="yes"/>
      <point x="358.2068965517241" y="453.13793103448273"/>
      <point x="324.0689655172414" y="385.8965517241379"/>
      <point x="211.86206896551724" y="261.6551724137931" type="curve" smooth="yes"/>
      <point x="51.689655172413794" y="83.55172413793103" type="line"/>
    </contour>
  </outline>
</glyph>
<glyph name="three" format="2">
  <advance width="559.0"/>
  <unicode hex="0033"/>
  <outline>
    <contour>
      <point x="245.75862068965517" y="-10.0" type="curve" smooth="yes"/>
      <point x="368.82758620689657" y="-10.0"/>
      <point x="505.3448275862069" y="43.0"/>
      <point x="505.3448275862069" y="204.6206896551724" type="curve" smooth="yes"/>
      <point x="505.3448275862069" y="330.41379310344826"/>
      <point x="399.3103448275862" y="370.51724137931035"/>
      <point x="322.82758620689657" y="381.0" type="curve"/>
      <point x="412.9655172413793" y="405.48275862068965"/>
      <point x="480.3448275862069" y="473.7586206896552"/>
      <point x="480.3448275862069" y="563.7586206896551" type="curve" smooth="yes"/>
      <point x="480.3448275862069" y="665.3793103448276"/>
      <point x="394.48275862068965" y="724.0"/>
      <point x="262.8965517241379" y="724.0" type="curve" smooth="yes"/>
      <point x="127.6896551724138" y="724.0"/>
      <point x="57.58620689655172" y="667.6206896551724"/>
      <point x="57.58620689655172" y="592.4827586206897" type="curve" smooth="yes"/>
      <point x="57.58620689655172" y="537.7586206896551"/>
      <point x="99.3103448275862" y="518.7931034482758"/>
      <point x="159.72413793103448" y="518.7931034482758" type="curve"/>
      <point x="159.72413793103448" y="597.7931034482758"/>
      <point x="176.86206896551724" y="670.2758620689655"/>
      <point x="261.0344827586207" y="670.2758620689655" type="curve" smooth="yes"/>
      <point x="329.9655172413793" y="670.2758620689655"/>
      <point x="359.3448275862069" y="624.8965517241379"/>
      <point x="359.3448275862069" y="548.7586206896551" type="curve" smooth="yes"/>
      <point x="359.3448275862069" y="456.2413793103448"/>
      <point x="300.2758620689655" y="396.86206896551727"/>
      <point x="212.89655172413794" y="396.86206896551727" type="curve"/>
      <point x="169.10344827586206" y="396.86206896551727" type="line"/>
      <point x="169.10344827586206" y="342.13793103448273" type="line"/>
      <point x="211.6551724137931" y="342.13793103448273" type="line" smooth="yes"/>
      <point x="319.3103448275862" y="342.13793103448273"/>
      <point x="383.3448275862069" y="287.13793103448273"/>
      <point x="383.3448275862069" y="205.6206896551724" type="curve" smooth="yes"/>
      <point x="383.3448275862069" y="87.48275862068965"/>
      <point x="317.6896551724138" y="49.58620689655172"/>
      <point x="243.6551724137931" y="49.58620689655172" type="curve" smooth="yes"/>
      <point x="165.75862068965517" y="49.58620689655172"/>
      <point x="117.89655172413794" y="98.10344827586206"/>
      <point x="117.89655172413794" y="173.06896551724137" type="curve"/>
      <point x="77.41379310344827" y="173.06896551724137"/>
      <point x="47.44827586206897" y="148.44827586206895"/>
      <point x="47.44827586206897" y="104.10344827586206" type="curve" smooth="yes"/>
      <point x="47.44827586206897" y="43.86206896551724"/>
      <point x="106.93103448275862" y="-10.0"/>
    </contour>
  </outline>
</glyph>
<glyph name="four" format="2">
  <advance width="559.0"/>
  <unicode hex="0034"/>
  <outline>
    <contour>
      <point x="202.58620689655172" y="0.0" type="line"/>
      <point x="521.5862068965517" y="0.0" type="line"/>
      <point x="521.5862068965517" y="45.724137931034484" type="line"/>
      <point x="508.58620689655174" y="45.724137931034484" type="line" smooth="yes"/>
      <point x="463.58620689655174" y="45.724137931034484"/>
      <point x="426.58620689655174" y="54.724137931034484"/>
      <point x="426.58620689655174" y="117.72413793103448" type="curve" smooth="yes"/>
      <point x="426.58620689655174" y="192.27586206896552" type="line"/>
      <point x="543.1379310344828" y="192.27586206896552" type="line"/>
      <point x="543.1379310344828" y="252.0" type="line"/>
      <point x="426.58620689655174" y="252.0" type="line"/>
      <point x="426.58620689655174" y="714.0" type="line"/>
      <point x="315.44827586206895" y="714.0" type="line"/>
      <point x="15.758620689655173" y="240.72413793103448" type="line"/>
      <point x="15.758620689655173" y="192.27586206896552" type="line"/>
      <point x="312.58620689655174" y="192.27586206896552" type="line"/>
      <point x="312.58620689655174" y="117.72413793103448" type="line" smooth="yes"/>
      <point x="312.58620689655174" y="54.724137931034484"/>
      <point x="275.58620689655174" y="45.724137931034484"/>
      <point x="230.58620689655172" y="45.724137931034484" type="curve" smooth="yes"/>
      <point x="202.58620689655172" y="45.724137931034484" type="line"/>
    </contour>
    <contour>
      <point x="87.13793103448276" y="252.0" type="line"/>
      <point x="233.31034482758622" y="484.41379310344826" type="line" smooth="yes"/>
      <point x="253.20689655172413" y="516.6896551724138"/>
      <point x="306.58620689655174" y="606.448275862069"/>
      <point x="319.58620689655174" y="635.3103448275862" type="curve"/>
      <point x="314.58620689655174" y="573.3103448275862"/>
      <point x="312.58620689655174" y="491.2758620689655"/>
      <point x="312.58620689655174" y="433.2758620689655" type="curve" smooth="yes"/>
      <point x="312.58620689655174" y="252.0" type="line"/>
    </contour>
  </outline>
</glyph>
<glyph name="five" format="2">
  <advance width="559.0"/>
  <unicode hex="0035"/>
  <outline>
    <contour>
      <point x="244.6206896551724" y="-10.0" type="curve" smooth="yes"/>
      <point x="385.82758620689657" y="-10.0"/>
      <point x="493.44827586206895" y="69.58620689655173"/>
      <point x="493.44827586206895" y="218.6206896551724" type="curve" smooth="yes"/>
      <point x="493.44827586206895" y="360.2413793103448"/>
      <point x="393.2068965517241" y="430.86206896551727"/>
      <point x="254.89655172413794" y="430.86206896551727" type="curve" smooth="yes"/>
      <point x="202.72413793103448" y="430.86206896551727"/>
      <point x="161.0" y="422.48275862068965"/>
      <point x="140.3793103448276" y="414.86206896551727" type="curve"/>
      <point x="158.75862068965517" y="623.448275862069" type="line"/>
      <point x="357.7241379310345" y="623.448275862069" type="line" smooth="yes"/>
      <point x="396.0" y="623.448275862069"/>
      <point x="404.0" y="609.8275862068965"/>
      <point x="408.62068965517244" y="583.0689655172414" type="curve" smooth="yes"/>
      <point x="413.86206896551727" y="551.8275862068965" type="line"/>
      <point x="461.44827586206895" y="551.8275862068965" type="line"/>
      <point x="456.44827586206895" y="714.0" type="line"/>
      <point x="106.93103448275862" y="714.0" type="line"/>
      <point x="74.93103448275862" y="362.1034482758621" type="line"/>
      <point x="106.37931034482759" y="351.37931034482756" type="line"/>
      <point x="133.24137931034483" y="361.7586206896552"/>
      <point x="162.86206896551724" y="372.13793103448273"/>
      <point x="225.0344827586207" y="372.13793103448273" type="curve" smooth="yes"/>
      <point x="315.17241379310343" y="372.13793103448273"/>
      <point x="371.44827586206895" y="321.7586206896552"/>
      <point x="371.44827586206895" y="218.6206896551724" type="curve" smooth="yes"/>
      <point x="371.44827586206895" y="92.86206896551724"/>
      <point x="312.3103448275862" y="52.724137931034484"/>
      <point x="235.89655172413794" y="52.724137931034484" type="curve" smooth="yes"/>
      <point x="154.27586206896552" y="52.724137931034484"/>
      <point x="118.62068965517241" y="103.55172413793103"/>
      <point x="118.62068965517241" y="160.55172413793105" type="curve"/>
      <point x="73.75862068965517" y="160.55172413793105"/>
      <point x="49.41379310344828" y="138.55172413793105"/>
      <point x="49.41379310344828" y="98.44827586206897" type="curve" smooth="yes"/>
      <point x="49.41379310344828" y="47.241379310344826"/>
      <point x="95.37931034482759" y="-10.0"/>
    </contour>
  </outline>
</glyph>
<glyph name="six" format="2">
  <advance width="559.0"/>
  <unicode hex="0036"/>
  <outline>
    <contour>
      <point x="293.0" y="-10.0" type="curve" smooth="yes"/>
      <point x="434.58620689655174" y="-10.0"/>
      <point x="513.5862068965517" y="88.0"/>
      <point x="513.5862068965517" y="229.6206896551724" type="curve" smooth="yes"/>
      <point x="513.5862068965517" y="358.2413793103448"/>
      <point x="434.58620689655174" y="435.2413793103448"/>
      <point x="313.2068965517241" y="435.2413793103448" type="curve" smooth="yes"/>
      <point x="246.9655172413793" y="435.2413793103448"/>
      <point x="202.58620689655172" y="412.7241379310345"/>
      <point x="172.06896551724137" y="388.82758620689657" type="curve"/>
      <point x="179.06896551724137" y="573.1379310344828"/>
      <point x="229.44827586206895" y="672.2758620689655"/>
      <point x="321.37931034482756" y="672.2758620689655" type="curve" smooth="yes"/>
      <point x="381.6551724137931" y="672.2758620689655"/>
      <point x="401.9310344827586" y="614.0689655172414"/>
      <point x="401.9310344827586" y="550.9310344827586" type="curve"/>
      <point x="465.58620689655174" y="550.9310344827586"/>
      <point x="494.44827586206895" y="577.8965517241379"/>
      <point x="494.44827586206895" y="617.1379310344828" type="curve" smooth="yes"/>
      <point x="494.44827586206895" y="672.3793103448276"/>
      <point x="442.3103448275862" y="724.0"/>
      <point x="325.1034482758621" y="724.0" type="curve" smooth="yes"/>
      <point x="141.89655172413794" y="724.0"/>
      <point x="55.41379310344828" y="550.0"/>
      <point x="55.41379310344828" y="349.44827586206895" type="curve" smooth="yes"/>
      <point x="55.41379310344828" y="97.0"/>
      <point x="154.41379310344828" y="-10.0"/>
    </contour>
    <contour>
      <point x="296.0" y="48.724137931034484" type="curve" smooth="yes"/>
      <point x="222.82758620689654" y="48.724137931034484"/>
      <point x="173.06896551724137" y="129.3448275862069"/>
      <point x="171.06896551724137" y="326.2413793103448" type="curve"/>
      <point x="194.9655172413793" y="352.37931034482756"/>
      <point x="240.58620689655172" y="381.13793103448273"/>
      <point x="287.0" y="381.13793103448273" type="curve" smooth="yes"/>
      <point x="356.55172413793105" y="381.13793103448273"/>
      <point x="396.0689655172414" y="331.7586206896552"/>
      <point x="396.0689655172414" y="219.6206896551724" type="curve" smooth="yes"/>
      <point x="396.0689655172414" y="101.10344827586206"/>
      <point x="359.55172413793105" y="48.724137931034484"/>
    </contour>
  </outline>
</glyph>
<glyph name="seven" format="2">
  <advance width="559.0"/>
  <unicode hex="0037"/>
  <outline>
    <contour>
      <point x="181.31034482758622" y="0.0" type="line"/>
      <point x="259.41379310344826" y="0.0" type="line"/>
      <point x="516.5862068965517" y="677.551724137931" type="line"/>
      <point x="516.5862068965517" y="714.0" type="line"/>
      <point x="58.41379310344828" y="714.0" type="line"/>
      <point x="53.41379310344828" y="522.448275862069" type="line"/>
      <point x="102.24137931034483" y="522.448275862069" type="line"/>
      <point x="106.86206896551724" y="572.448275862069" type="line" smooth="yes"/>
      <point x="109.86206896551724" y="605.448275862069"/>
      <point x="128.86206896551724" y="623.448275862069"/>
      <point x="164.86206896551724" y="623.448275862069" type="curve" smooth="yes"/>
      <point x="427.86206896551727" y="623.448275862069" type="line"/>
    </contour>
  </outline>
</glyph>
<glyph name="eight" format="2">
  <advance width="559.0"/>
  <unicode hex="0038"/>
  <outline>
    <contour>
      <point x="273.0" y="-10.0" type="curve" smooth="yes"/>
      <point x="424.58620689655174" y="-10.0"/>
      <point x="518.5862068965517" y="63.37931034482759"/>
      <point x="518.5862068965517" y="190.3793103448276" type="curve" smooth="yes"/>
      <point x="518.5862068965517" y="274.8965517241379"/>
      <point x="459.0344827586207" y="333.51724137931035"/>
      <point x="352.58620689655174" y="384.2413793103448" type="curve"/>
      <point x="434.2068965517241" y="425.48275862068965"/>
      <point x="487.58620689655174" y="465.86206896551727"/>
      <point x="487.58620689655174" y="550.7586206896551" type="curve" smooth="yes"/>
      <point x="487.58620689655174" y="651.3793103448276"/>
      <point x="415.58620689655174" y="724.0"/>
      <point x="285.0" y="724.0" type="curve" smooth="yes"/>
      <point x="124.79310344827586" y="724.0"/>
      <point x="63.41379310344828" y="636.3793103448276"/>
      <point x="63.41379310344828" y="543.7586206896551" type="curve" smooth="yes"/>
      <point x="63.41379310344828" y="462.2413793103448"/>
      <point x="113.3103448275862" y="405.62068965517244"/>
      <point x="190.55172413793105" y="361.37931034482756" type="curve"/>
      <point x="102.93103448275862" y="318.7586206896552"/>
      <point x="40.41379310344828" y="272.51724137931035"/>
      <point x="40.41379310344828" y="180.24137931034483" type="curve" smooth="yes"/>
      <point x="40.41379310344828" y="74.62068965517241"/>
      <point x="116.79310344827586" y="-10.0"/>
    </contour>
    <contour>
      <point x="278.0" y="39.724137931034484" type="curve" smooth="yes"/>
      <point x="196.44827586206895" y="39.724137931034484"/>
      <point x="151.06896551724137" y="95.10344827586206"/>
      <point x="151.06896551724137" y="176.24137931034483" type="curve" smooth="yes"/>
      <point x="151.06896551724137" y="249.3793103448276"/>
      <point x="188.58620689655172" y="299.6551724137931"/>
      <point x="245.3793103448276" y="331.7931034482759" type="curve"/>
      <point x="365.0689655172414" y="278.8965517241379"/>
      <point x="410.2068965517241" y="237.0"/>
      <point x="410.2068965517241" y="170.24137931034483" type="curve" smooth="yes"/>
      <point x="410.2068965517241" y="94.48275862068965"/>
      <point x="358.17241379310343" y="39.724137931034484"/>
    </contour>
    <contour>
      <point x="299.2413793103448" y="411.58620689655174" type="curve"/>
      <point x="217.06896551724137" y="448.86206896551727"/>
      <point x="174.17241379310346" y="485.0"/>
      <point x="174.17241379310346" y="555.7586206896551" type="curve" smooth="yes"/>
      <point x="174.17241379310346" y="622.8965517241379"/>
      <point x="211.44827586206895" y="673.2758620689655"/>
      <point x="279.0" y="673.2758620689655" type="curve" smooth="yes"/>
      <point x="354.9310344827586" y="673.2758620689655"/>
      <point x="385.55172413793105" y="612.5172413793103"/>
      <point x="385.55172413793105" y="552.7586206896551" type="curve" smooth="yes"/>
      <point x="385.55172413793105" y="484.62068965517244"/>
      <point x="364.9310344827586" y="444.86206896551727"/>
    </contour>
  </outline>
</glyph>
<glyph name="nine" format="2">
  <advance width="559.0"/>
  <unicode hex="0039"/>
  <outline>
    <contour>
      <point x="227.0" y="-10.379310344827585" type="curve"/>
      <point x="424.7241379310345" y="-10.379310344827585"/>
      <point x="503.58620689655174" y="174.27586206896552"/>
      <point x="503.58620689655174" y="388.0" type="curve" smooth="yes"/>
      <point x="503.58620689655174" y="623.0"/>
      <point x="403.1034482758621" y="724.0"/>
      <point x="264.37931034482756" y="724.0" type="curve" smooth="yes"/>
      <point x="127.27586206896552" y="724.0"/>
      <point x="45.41379310344828" y="623.2413793103449"/>
      <point x="45.41379310344828" y="479.2413793103448" type="curve" smooth="yes"/>
      <point x="45.41379310344828" y="344.2413793103448"/>
      <point x="126.41379310344827" y="275.0"/>
      <point x="241.79310344827587" y="275.0" type="curve" smooth="yes"/>
      <point x="310.55172413793105" y="275.0"/>
      <point x="357.9310344827586" y="306.7586206896552"/>
      <point x="386.9310344827586" y="343.0" type="curve"/>
      <point x="379.9310344827586" y="145.10344827586206"/>
      <point x="332.17241379310343" y="47.10344827586207"/>
      <point x="229.24137931034483" y="47.10344827586207" type="curve" smooth="yes"/>
      <point x="165.0" y="47.10344827586207"/>
      <point x="130.6206896551724" y="87.82758620689656"/>
      <point x="112.0" y="136.0344827586207" type="curve"/>
      <point x="90.17241379310344" y="130.41379310344828"/>
      <point x="75.17241379310344" y="111.79310344827586"/>
      <point x="75.17241379310344" y="84.93103448275862" type="curve" smooth="yes"/>
      <point x="75.17241379310344" y="37.96551724137931"/>
      <point x="110.89655172413794" y="-10.379310344827585"/>
    </contour>
    <contour>
      <point x="271.2413793103448" y="338.9655172413793" type="curve" smooth="yes"/>
      <point x="199.82758620689654" y="338.9655172413793"/>
      <point x="163.31034482758622" y="384.2068965517241"/>
      <point x="163.31034482758622" y="488.0" type="curve" smooth="yes"/>
      <point x="163.31034482758622" y="603.1379310344828"/>
      <point x="201.20689655172413" y="664.6551724137931"/>
      <point x="266.86206896551727" y="664.6551724137931" type="curve" smooth="yes"/>
      <point x="338.2758620689655" y="664.6551724137931"/>
      <point x="384.9310344827586" y="589.8965517241379"/>
      <point x="387.9310344827586" y="414.37931034482756" type="curve"/>
      <point x="369.3103448275862" y="372.62068965517244"/>
      <point x="329.41379310344826" y="338.9655172413793"/>
    </contour>
  </outline>
</glyph>
<glyph name="colon" format="2">
  <advance width="319.48275862068965"/>
  <unicode hex="003A"/>
  <outline>
    <contour>
      <point x="188.79310344827587" y="399.3103448275862" type="curve" smooth="yes"/>
      <point x="225.13793103448276" y="399.3103448275862"/>
      <point x="255.86206896551724" y="416.55172413793105"/>
      <point x="255.86206896551724" y="469.8965517241379" type="curve" smooth="yes"/>
      <point x="255.86206896551724" y="524.2413793103449"/>
      <point x="225.13793103448276" y="540.4827586206897"/>
      <point x="188.79310344827587" y="540.4827586206897" type="curve" smooth="yes"/>
      <point x="150.82758620689654" y="540.4827586206897"/>
      <point x="120.72413793103448" y="524.2413793103449"/>
      <point x="120.72413793103448" y="469.8965517241379" type="curve" smooth="yes"/>
      <point x="120.72413793103448" y="416.55172413793105"/>
      <point x="150.82758620689654" y="399.3103448275862"/>
    </contour>
    <contour>
      <point x="188.79310344827587" y="-7.620689655172414" type="curve" smooth="yes"/>
      <point x="225.13793103448276" y="-7.620689655172414"/>
      <point x="255.86206896551724" y="10.241379310344827"/>
      <point x="255.86206896551724" y="63.96551724137931" type="curve" smooth="yes"/>
      <point x="255.86206896551724" y="117.3103448275862"/>
      <point x="225.13793103448276" y="134.55172413793105"/>
      <point x="188.79310344827587" y="134.55172413793105" type="curve" smooth="yes"/>
      <point x="150.82758620689654" y="134.55172413793105"/>
      <point x="120.72413793103448" y="117.3103448275862"/>
      <point x="120.72413793103448" y="63.96551724137931" type="curve" smooth="yes"/>
      <point x="120.72413793103448" y="10.241379310344827"/>
      <point x="150.82758620689654" y="-7.620689655172414"/>
    </contour>
  </outline>
</glyph>
<glyph name="semicolon" format="2">
  <advance width="337.7931034482759"/>
  <unicode hex="003B"/>
  <outline>
    <contour>
      <point x="94.82758620689656" y="-154.0" type="line"/>
      <point x="215.41379310344828" y="-119.37931034482759"/>
      <point x="261.2758620689655" y="-44.37931034482759"/>
      <point x="261.2758620689655" y="39.241379310344826" type="curve" smooth="yes"/>
      <point x="261.2758620689655" y="100.20689655172414"/>
      <point x="226.89655172413794" y="134.55172413793105"/>
      <point x="181.31034482758622" y="134.55172413793105" type="curve" smooth="yes"/>
      <point x="144.44827586206895" y="134.55172413793105"/>
      <point x="114.72413793103448" y="112.3103448275862"/>
      <point x="114.72413793103448" y="72.58620689655173" type="curve" smooth="yes"/>
      <point x="114.72413793103448" y="7.517241379310345"/>
      <point x="186.9655172413793" y="15.758620689655173"/>
      <point x="186.9655172413793" y="-23.620689655172413" type="curve"/>
      <point x="186.9655172413793" y="-61.62068965517241"/>
      <point x="156.9655172413793" y="-88.65517241379311"/>
      <point x="94.82758620689656" y="-109.65517241379311" type="curve"/>
    </contour>
    <contour>
      <point x="190.31034482758622" y="399.3103448275862" type="curve" smooth="yes"/>
      <point x="226.0344827586207" y="399.3103448275862"/>
      <point x="258.37931034482756" y="416.55172413793105"/>
      <point x="258.37931034482756" y="469.8965517241379" type="curve" smooth="yes"/>
      <point x="258.37931034482756" y="524.2413793103449"/>
      <point x="226.0344827586207" y="540.4827586206897"/>
      <point x="190.31034482758622" y="540.4827586206897" type="curve" smooth="yes"/>
      <point x="151.72413793103448" y="540.4827586206897"/>
      <point x="122.62068965517241" y="524.2413793103449"/>
      <point x="122.62068965517241" y="469.8965517241379" type="curve" smooth="yes"/>
      <point x="122.62068965517241" y="416.55172413793105"/>
      <point x="151.72413793103448" y="399.3103448275862"/>
    </contour>
  </outline>
</glyph>
<glyph name="equal" format="2">
  <advance width="559.0"/>
  <unicode hex="003D"/>
  <outline>
    <contour>
      <point x="64.37931034482759" y="424.8965517241379" type="line"/>
      <point x="495.2413793103448" y="424.8965517241379" type="line"/>
      <point x="495.2413793103448" y="485.86206896551727" type="line"/>
      <point x="64.37931034482759" y="485.86206896551727" type="line"/>
    </contour>
    <contour>
      <point x="64.37931034482759" y="227.75862068965517" type="line"/>
      <point x="495.2413793103448" y="227.75862068965517" type="line"/>
      <point x="495.2413793103448" y="289.1034482758621" type="line"/>
      <point x="64.37931034482759" y="289.1034482758621" type="line"/>
    </contour>
  </outline>
</glyph>
<glyph name="greater" format="2">
  <advance width="559.0"/>
  <unicode hex="003E"/>
  <outline>
    <contour>
      <point x="65.0" y="108.51724137931035" type="line"/>
      <point x="494.0" y="338.7586206896552" type="line"/>
      <point x="494.0" y="376.2413793103448" type="line"/>
      <point x="65.0" y="607.4827586206897" type="line"/>
      <point x="65.0" y="538.8965517241379" type="line"/>
      <point x="399.55172413793105" y="357.0" type="line"/>
      <point x="65.0" y="177.10344827586206" type="line"/>
    </contour>
  </outline>
</glyph>
<glyph name="question" format="2">
  <advance width="505.55172413793105"/>
  <unicode hex="003F"/>
  <outline>
    <contour>
      <point x="195.17241379310346" y="214.0344827586207" type="line"/>
      <point x="264.86206896551727" y="214.0344827586207" type="line"/>
      <point x="272.9310344827586" y="317.1034482758621" type="line"/>
      <point x="402.51724137931035" y="370.58620689655174"/>
      <point x="468.7931034482759" y="433.0"/>
      <point x="468.7931034482759" y="541.1379310344828" type="curve" smooth="yes"/>
      <point x="468.7931034482759" y="656.3793103448276"/>
      <point x="373.3103448275862" y="724.0"/>
      <point x="234.89655172413794" y="724.0" type="curve" smooth="yes"/>
      <point x="94.72413793103448" y="724.0"/>
      <point x="31.75862068965517" y="669.1724137931035"/>
      <point x="31.75862068965517" y="603.9310344827586" type="curve" smooth="yes"/>
      <point x="31.75862068965517" y="552.8620689655172"/>
      <point x="74.82758620689656" y="532.1034482758621"/>
      <point x="143.93103448275863" y="532.1034482758621" type="curve"/>
      <point x="143.93103448275863" y="614.7586206896551"/>
      <point x="171.0689655172414" y="668.1724137931035"/>
      <point x="240.41379310344828" y="668.1724137931035" type="curve" smooth="yes"/>
      <point x="303.7586206896552" y="668.1724137931035"/>
      <point x="333.2758620689655" y="625.2758620689655"/>
      <point x="333.2758620689655" y="557.5172413793103" type="curve" smooth="yes"/>
      <point x="333.2758620689655" y="475.6551724137931"/>
      <point x="301.2413793103448" y="401.2413793103448"/>
      <point x="187.10344827586206" y="351.7586206896552" type="curve"/>
    </contour>
    <contour>
      <point x="227.89655172413794" y="-7.620689655172414" type="curve" smooth="yes"/>
      <point x="268.1034482758621" y="-7.620689655172414"/>
      <point x="302.0689655172414" y="11.241379310344827"/>
      <point x="302.0689655172414" y="69.06896551724138" type="curve" smooth="yes"/>
      <point x="302.0689655172414" y="127.27586206896552"/>
      <point x="268.1034482758621" y="145.75862068965517"/>
      <point x="227.89655172413794" y="145.75862068965517" type="curve" smooth="yes"/>
      <point x="187.31034482758622" y="145.75862068965517"/>
      <point x="154.3448275862069" y="127.27586206896552"/>
      <point x="154.3448275862069" y="69.06896551724138" type="curve" smooth="yes"/>
      <point x="154.3448275862069" y="11.241379310344827"/>
      <point x="187.31034482758622" y="-7.620689655172414"/>
    </contour>
  </outline>
</glyph>
<glyph name="bracketleft" format="2">
  <advance width="384.0689655172414"/>
  <unicode hex="005B"/>
  <outline>
    <contour>
      <point x="66.72413793103448" y="-128.0" type="line"/>
      <point x="306.0689655172414" y="-128.0" type="line"/>
      <point x="306.0689655172414" y="-83.03448275862068" type="line"/>
      <point x="260.9310344827586" y="-83.03448275862068" type="line" smooth="yes"/>
      <point x="215.93103448275863" y="-83.03448275862068"/>
      <point x="181.0689655172414" y="-74.03448275862068"/>
      <point x="181.0689655172414" y="-10.655172413793103" type="curve" smooth="yes"/>
      <point x="181.0689655172414" y="642.2758620689655" type="line" smooth="yes"/>
      <point x="181.0689655172414" y="706.0344827586207"/>
      <point x="215.93103448275863" y="715.0344827586207"/>
      <point x="260.9310344827586" y="715.0344827586207" type="curve" smooth="yes"/>
      <point x="306.0689655172414" y="715.0344827586207" type="line"/>
      <point x="306.0689655172414" y="760.0" type="line"/>
      <point x="66.72413793103448" y="760.0" type="line"/>
    </contour>
  </outline>
</glyph>
<glyph name="bracketright" format="2">
  <advance width="423.0344827586207"/>
  <unicode hex="005D"/>
  <outline>
    <contour>
      <point x="117.58620689655173" y="-128.0" type="line"/>
      <point x="355.9310344827586" y="-128.0" type="line"/>
      <point x="355.9310344827586" y="760.0" type="line"/>
      <point x="117.58620689655173" y="760.0" type="line"/>
      <point x="117.58620689655173" y="715.0344827586207" type="line"/>
      <point x="162.3448275862069" y="715.0344827586207" type="line" smooth="yes"/>
      <point x="207.72413793103448" y="715.0344827586207"/>
      <point x="242.58620689655172" y="706.0344827586207"/>
      <point x="242.58620689655172" y="642.2758620689655" type="curve" smooth="yes"/>
      <point x="242.58620689655172" y="-10.655172413793103" type="line" smooth="yes"/>
      <point x="242.58620689655172" y="-74.03448275862068"/>
      <point x="207.72413793103448" y="-83.03448275862068"/>
      <point x="162.3448275862069" y="-83.03448275862068" type="curve" smooth="yes"/>
      <point x="117.58620689655173" y="-83.03448275862068" type="line"/>
    </contour>
  </outline>
</glyph>
<glyph name="asciicircum" format="2">
  <advance width="559.0"/>
  <unicode hex="005E"/>
  <outline>
    <contour>
      <point x="49.13793103448276" y="265.13793103448273" type="line"/>
      <point x="118.10344827586206" y="265.13793103448273" type="line"/>
      <point x="278.0" y="619.3103448275862" type="line"/>
      <point x="439.8965517241379" y="265.13793103448273" type="line"/>
      <point x="507.86206896551727" y="265.13793103448273" type="line"/>
      <point x="296.86206896551727" y="714.0" type="line"/>
      <point x="260.13793103448273" y="714.0" type="line"/>
    </contour>
  </outline>
</glyph>
<glyph name="underscore" format="2">
  <advance width="459.0"/>
  <unicode hex="005F"/>
  <outline>
    <contour>
      <point x="-5.0" y="-140.24137931034483" type="line"/>
      <point x="464.0" y="-140.24137931034483" type="line"/>
      <point x="464.0" y="-83.0" type="line"/>
      <point x="-5.0" y="-83.0" type="line"/>
    </contour>
  </outline>
</glyph>
<glyph name="braceleft" format="2">
  <advance width="454.37931034482756"/>
  <unicode hex="007B"/>
  <outline>
    <contour>
      <point x="294.51724137931035" y="-126.75862068965517" type="curve" smooth="yes"/>
      <point x="368.9310344827586" y="-126.75862068965517" type="line"/>
      <point x="368.9310344827586" y="-81.41379310344827" type="line"/>
      <point x="335.2068965517241" y="-81.41379310344827" type="line" smooth="yes"/>
      <point x="277.44827586206895" y="-81.41379310344827"/>
      <point x="257.55172413793105" y="-45.03448275862069"/>
      <point x="257.55172413793105" y="21.482758620689655" type="curve" smooth="yes"/>
      <point x="257.55172413793105" y="193.86206896551724" type="line" smooth="yes"/>
      <point x="257.55172413793105" y="258.37931034482756"/>
      <point x="223.17241379310346" y="301.8965517241379"/>
      <point x="148.55172413793105" y="316.37931034482756" type="curve"/>
      <point x="148.55172413793105" y="319.86206896551727" type="line"/>
      <point x="222.41379310344828" y="333.7241379310345"/>
      <point x="257.55172413793105" y="376.86206896551727"/>
      <point x="257.55172413793105" y="440.37931034482756" type="curve" smooth="yes"/>
      <point x="257.55172413793105" y="611.7586206896551" type="line" smooth="yes"/>
      <point x="257.55172413793105" y="679.2758620689655"/>
      <point x="277.44827586206895" y="714.6551724137931"/>
      <point x="336.2068965517241" y="714.6551724137931" type="curve" smooth="yes"/>
      <point x="368.9310344827586" y="714.6551724137931" type="line"/>
      <point x="368.9310344827586" y="760.0" type="line"/>
      <point x="294.51724137931035" y="760.0" type="line" smooth="yes"/>
      <point x="195.06896551724137" y="760.0"/>
      <point x="142.3448275862069" y="707.3793103448276"/>
      <point x="142.3448275862069" y="616.7586206896551" type="curve" smooth="yes"/>
      <point x="142.3448275862069" y="442.37931034482756" type="line" smooth="yes"/>
      <point x="142.3448275862069" y="362.86206896551727"/>
      <point x="90.96551724137932" y="342.9655172413793"/>
      <point x="24.96551724137931" y="340.9655172413793" type="curve"/>
      <point x="24.96551724137931" y="293.8965517241379" type="line"/>
      <point x="90.96551724137932" y="290.8965517241379"/>
      <point x="142.3448275862069" y="271.37931034482756"/>
      <point x="142.3448275862069" y="190.86206896551724" type="curve" smooth="yes"/>
      <point x="142.3448275862069" y="18.103448275862068" type="line" smooth="yes"/>
      <point x="142.3448275862069" y="-70.75862068965517"/>
      <point x="195.06896551724137" y="-126.75862068965517"/>
    </contour>
  </outline>
</glyph>
<glyph name="bar" format="2">
  <advance width="558.6206896551724"/>
  <unicode hex="007C"/>
  <outline>
    <contour>
      <point x="247.51724137931035" y="-240.0" type="line"/>
      <point x="310.48275862068965" y="-240.0" type="line"/>
      <point x="310.48275862068965" y="760.0" type="line"/>
      <point x="247.51724137931035" y="760.0" type="line"/>
    </contour>
  </outline>
</glyph>
<glyph name="braceright" format="2">
  <advance width="486.51724137931035"/>
  <unicode hex="007D"/>
  <outline>
    <contour>
      <point x="117.58620689655173" y="-126.75862068965517" type="line"/>
      <point x="192.3793103448276" y="-126.75862068965517" type="line" smooth="yes"/>
      <point x="291.82758620689657" y="-126.75862068965517"/>
      <point x="343.55172413793105" y="-70.75862068965517"/>
      <point x="343.55172413793105" y="18.103448275862068" type="curve" smooth="yes"/>
      <point x="343.55172413793105" y="190.86206896551724" type="line" smooth="yes"/>
      <point x="343.55172413793105" y="271.37931034482756"/>
      <point x="396.55172413793105" y="290.8965517241379"/>
      <point x="461.9310344827586" y="293.8965517241379" type="curve"/>
      <point x="461.9310344827586" y="340.9655172413793" type="line"/>
      <point x="396.55172413793105" y="342.9655172413793"/>
      <point x="343.55172413793105" y="362.86206896551727"/>
      <point x="343.55172413793105" y="442.37931034482756" type="curve" smooth="yes"/>
      <point x="343.55172413793105" y="616.7586206896551" type="line" smooth="yes"/>
      <point x="343.55172413793105" y="707.3793103448276"/>
      <point x="291.82758620689657" y="760.0"/>
      <point x="192.3793103448276" y="760.0" type="curve" smooth="yes"/>
      <point x="117.58620689655173" y="760.0" type="line"/>
      <point x="117.58620689655173" y="714.6551724137931" type="line"/>
      <point x="151.31034482758622" y="714.6551724137931" type="line" smooth="yes"/>
      <point x="210.06896551724137" y="714.6551724137931"/>
      <point x="229.3448275862069" y="679.2758620689655"/>
      <point x="229.3448275862069" y="611.7586206896551" type="curve" smooth="yes"/>
      <point x="229.3448275862069" y="440.37931034482756" type="line" smooth="yes"/>
      <point x="229.3448275862069" y="376.86206896551727"/>
      <point x="265.1034482758621" y="333.7241379310345"/>
      <point x="338.9655172413793" y="319.86206896551727" type="curve"/>
      <point x="338.9655172413793" y="316.37931034482756" type="line"/>
      <point x="263.3448275862069" y="301.8965517241379"/>
      <point x="229.3448275862069" y="258.37931034482756"/>
      <point x="229.3448275862069" y="193.86206896551724" type="curve" smooth="yes"/>
      <point x="229.3448275862069" y="21.482758620689655" type="line" smooth="yes"/>
      <point x="229.3448275862069" y="-45.03448275862069"/>
      <point x="210.06896551724137" y="-81.41379310344827"/>
      <point x="151.68965517241378" y="-81.41379310344827" type="curve" smooth="yes"/>
      <point x="117.58620689655173" y="-81.41379310344827" type="line"/>
    </contour>
  </outline>
</glyph>
<glyph name="asciitilde" format="2">
  <advance width="559.0"/>
  <unicode hex="007E"/>
  <outline>
    <contour>
      <point x="51.89655172413793" y="266.8965517241379" type="curve"/>
      <point x="114.10344827586206" y="266.8965517241379" type="line"/>
      <point x="120.24137931034483" y="347.7586206896552"/>
      <point x="137.86206896551724" y="383.8965517241379"/>
      <point x="175.6206896551724" y="383.8965517241379" type="curve" smooth="yes"/>
      <point x="206.75862068965517" y="383.8965517241379"/>
      <point x="228.0344827586207" y="360.7586206896552"/>
      <point x="260.8965517241379" y="331.13793103448273" type="curve" smooth="yes"/>
      <point x="301.62068965517244" y="292.41379310344826"/>
      <point x="334.7586206896552" y="266.8965517241379"/>
      <point x="382.62068965517244" y="266.8965517241379" type="curve" smooth="yes"/>
      <point x="478.1034482758621" y="266.8965517241379"/>
      <point x="499.3448275862069" y="363.82758620689657"/>
      <point x="506.1034482758621" y="446.1034482758621" type="curve"/>
      <point x="442.8965517241379" y="446.1034482758621" type="line"/>
      <point x="435.37931034482756" y="370.62068965517244"/>
      <point x="420.7586206896552" y="329.1034482758621"/>
      <point x="383.62068965517244" y="329.1034482758621" type="curve" smooth="yes"/>
      <point x="356.86206896551727" y="329.1034482758621"/>
      <point x="332.7241379310345" y="351.2413793103448"/>
      <point x="301.86206896551727" y="379.48275862068965" type="curve" smooth="yes"/>
      <point x="252.13793103448276" y="424.58620689655174"/>
      <point x="223.24137931034483" y="446.1034482758621"/>
      <point x="176.86206896551724" y="446.1034482758621" type="curve" smooth="yes"/>
      <point x="80.75862068965517" y="446.1034482758621"/>
      <point x="57.41379310344828" y="353.44827586206895"/>
    </contour>
  </outline>
</glyph>
<glyph name="multiply" format="2">
  <advance width="558.6206896551724"/>
  <unicode hex="00D7"/>
  <outline>
    <contour>
      <point x="118.06896551724138" y="152.72413793103448" type="line"/>
      <point x="279.0" y="314.2758620689655" type="line"/>
      <point x="439.9310344827586" y="152.72413793103448" type="line"/>
      <point x="483.6551724137931" y="196.44827586206895" type="line"/>
      <point x="322.7241379310345" y="358.0" type="line"/>
      <point x="483.6551724137931" y="518.9310344827586" type="line"/>
      <point x="439.9310344827586" y="563.2758620689655" type="line"/>
      <point x="279.0" y="401.9655172413793" type="line"/>
      <point x="118.06896551724138" y="562.2758620689655" type="line"/>
      <point x="73.72413793103448" y="518.9310344827586" type="line"/>
      <point x="235.27586206896552" y="359.0" type="line"/>
      <point x="73.72413793103448" y="197.44827586206895" type="line"/>
    </contour>
  </outline>
</glyph>
<glyph name="divide" format="2">
  <advance width="559.0"/>
  <unicode hex="00F7"/>
  <outline>
    <contour>
      <point x="65.0" y="326.8965517241379" type="line"/>
      <point x="494.0" y="326.8965517241379" type="line"/>
      <point x="494.0" y="388.48275862068965" type="line"/>
      <point x="65.0" y="388.48275862068965" type="line"/>
    </contour>
    <contour>
      <point x="280.0" y="112.89655172413794" type="curve" smooth="yes"/>
      <point x="309.2413793103448" y="112.89655172413794"/>
      <point x="331.86206896551727" y="127.51724137931035"/>
      <point x="331.86206896551727" y="169.3793103448276" type="curve" smooth="yes"/>
      <point x="331.86206896551727" y="212.24137931034483"/>
      <point x="309.2413793103448" y="225.86206896551724"/>
      <point x="280.0" y="225.86206896551724" type="curve" smooth="yes"/>
      <point x="249.75862068965517" y="225.86206896551724"/>
      <point x="228.13793103448276" y="212.24137931034483"/>
      <point x="228.13793103448276" y="169.3793103448276" type="curve" smooth="yes"/>
      <point x="228.13793103448276" y="127.51724137931035"/>
      <point x="249.75862068965517" y="112.89655172413794"/>
    </contour>
    <contour>
      <point x="280.0" y="490.13793103448273" type="curve" smooth="yes"/>
      <point x="309.2413793103448" y="490.13793103448273"/>
      <point x="331.86206896551727" y="503.7586206896552"/>
      <point x="331.86206896551727" y="545.6206896551724" type="curve" smooth="yes"/>
      <point x="331.86206896551727" y="588.4827586206897"/>
      <point x="309.2413793103448" y="602.1034482758621"/>
      <point x="280.0" y="602.1034482758621" type="curve" smooth="yes"/>
      <point x="249.75862068965517" y="602.1034482758621"/>
      <point x="228.13793103448276" y="588.4827586206897"/>
      <point x="228.13793103448276" y="545.6206896551724" type="curve" smooth="yes"/>
      <point x="228.13793103448276" y="503.7586206896552"/>
      <point x="249.75862068965517" y="490.13793103448273"/>
    </contour>
  </outline>
</glyph>
<glyph name="anudatta-deva" format="2">
  <unicode hex="0952"/>
  <anchor x="-299.0" y="401.0344827586207" name="_vedic"/>
  <outline>
    <contour>
      <point x="-526.5172413793103" y="-150.20689655172413" type="line"/>
      <point x="-71.10344827586206" y="-150.20689655172413" type="line"/>
      <point x="-71.10344827586206" y="-85.79310344827586" type="line"/>
      <point x="-526.5172413793103" y="-85.79310344827586" type="line"/>
    </contour>
  </outline>
</glyph>
<glyph name="danda-deva" format="2">
  <advance width="471.44827586206895"/>
  <unicode hex="0964"/>
  <outline>
    <contour>
      <point x="382.7931034482759" y="-30.448275862068968" type="line"/>
      <point x="388.8965517241379" y="-28.20689655172414" type="line"/>
      <point x="388.8965517241379" y="586.8620689655172" type="line"/>
      <point x="315.55172413793105" y="623.8620689655172" type="line"/>
      <point x="312.55172413793105" y="623.8620689655172" type="line"/>
      <point x="312.55172413793105" y="3.1379310344827585" type="line"/>
    </contour>
  </outline>
</glyph>
<glyph name="dbldanda-deva" format="2">
  <advance width="645.9655172413793"/>
  <unicode hex="0965"/>
  <outline>
    <contour>
      <point x="557.9310344827586" y="-30.448275862068968" type="line"/>
      <point x="563.4137931034483" y="-28.20689655172414" type="line"/>
      <point x="563.4137931034483" y="586.8620689655172" type="line"/>
      <point x="490.6896551724138" y="623.8620689655172" type="line"/>
      <point x="487.6896551724138" y="623.8620689655172" type="line"/>
      <point x="487.6896551724138" y="3.1379310344827585" type="line"/>
    </contour>
    <contour>
      <point x="382.7931034482759" y="-30.448275862068968" type="line"/>
      <point x="388.8965517241379" y="-28.20689655172414" type="line"/>
      <point x="388.8965517241379" y="586.8620689655172" type="line"/>
      <point x="315.55172413793105" y="623.8620689655172" type="line"/>
      <point x="312.55172413793105" y="623.8620689655172" type="line"/>
      <point x="312.55172413793105" y="3.1379310344827585" type="line"/>
    </contour>
  </outline>
</glyph>
<glyph name="anji-beng" format="2">
  <advance width="578.7586206896551"/>
  <unicode hex="0980"/>
  <anchor x="312.86206896551727" y="578.0689655172414" name="top"/>
  <outline>
    <contour>
      <point x="474.8965517241379" y="-21.724137931034484" type="curve" smooth="yes"/>
      <point x="524.9655172413793" y="-21.724137931034484"/>
      <point x="549.9310344827586" y="8.0"/>
      <point x="549.9310344827586" y="51.44827586206897" type="curve" smooth="yes"/>
      <point x="549.9310344827586" y="96.27586206896552"/>
      <point x="519.9655172413793" y="125.75862068965517"/>
      <point x="479.48275862068965" y="125.75862068965517" type="curve" smooth="yes"/>
      <point x="437.0344827586207" y="125.75862068965517"/>
      <point x="422.17241379310343" y="97.6896551724138"/>
      <point x="419.41379310344826" y="68.44827586206897" type="curve"/>
      <point x="456.1034482758621" y="65.34482758620689" type="line"/>
      <point x="456.1034482758621" y="473.17241379310343" type="line" smooth="yes"/>
      <point x="456.1034482758621" y="558.7241379310345"/>
      <point x="397.44827586206895" y="627.5862068965517"/>
      <point x="289.51724137931035" y="627.5862068965517" type="curve" smooth="yes"/>
      <point x="157.10344827586206" y="627.5862068965517"/>
      <point x="57.55172413793103" y="537.6206896551724"/>
      <point x="57.55172413793103" y="412.1034482758621" type="curve" smooth="yes"/>
      <point x="57.55172413793103" y="288.2758620689655"/>
      <point x="144.06896551724137" y="218.3448275862069"/>
      <point x="237.79310344827587" y="218.3448275862069" type="curve" smooth="yes"/>
      <point x="305.37931034482756" y="218.3448275862069"/>
      <point x="340.58620689655174" y="255.31034482758622"/>
      <point x="340.58620689655174" y="310.13793103448273" type="curve" smooth="yes"/>
      <point x="340.58620689655174" y="365.62068965517244"/>
      <point x="306.7241379310345" y="397.44827586206895"/>
      <point x="255.13793103448276" y="397.44827586206895" type="curve" smooth="yes"/>
      <point x="210.17241379310346" y="397.44827586206895"/>
      <point x="177.31034482758622" y="366.48275862068965"/>
      <point x="177.31034482758622" y="319.37931034482756" type="curve" smooth="yes"/>
      <point x="177.31034482758622" y="304.6551724137931"/>
      <point x="179.93103448275863" y="287.7931034482759"/>
      <point x="184.55172413793105" y="277.9310344827586" type="curve"/>
      <point x="233.89655172413794" y="300.7931034482759" type="line"/>
      <point x="222.6551724137931" y="297.41379310344826"/>
      <point x="210.79310344827587" y="296.41379310344826"/>
      <point x="199.55172413793105" y="296.41379310344826" type="curve" smooth="yes"/>
      <point x="162.93103448275863" y="296.41379310344826"/>
      <point x="140.31034482758622" y="328.9310344827586"/>
      <point x="140.31034482758622" y="384.6551724137931" type="curve" smooth="yes"/>
      <point x="140.31034482758622" y="479.86206896551727"/>
      <point x="249.27586206896552" y="545.3448275862069"/>
      <point x="319.86206896551727" y="545.3448275862069" type="curve" smooth="yes"/>
      <point x="364.62068965517244" y="545.3448275862069"/>
      <point x="379.7586206896552" y="524.9655172413793"/>
      <point x="379.7586206896552" y="481.58620689655174" type="curve" smooth="yes"/>
      <point x="379.7586206896552" y="96.41379310344827" type="line" smooth="yes"/>
      <point x="379.7586206896552" y="28.344827586206897"/>
      <point x="415.1034482758621" y="-21.724137931034484"/>
    </contour>
  </outline>
</glyph>
<glyph name="anusvara-beng" format="2">
  <advance width="389.3448275862069"/>
  <unicode hex="0982"/>
  <anchor x="-212.6206896551724" y="0.0" name="vedic"/>
  <outline>
    <contour>
      <point x="187.86206896551724" y="346.37931034482756" type="curve" smooth="yes"/>
      <point x="271.44827586206895" y="346.37931034482756"/>
      <point x="331.7931034482759" y="404.1034482758621"/>
      <point x="331.7931034482759" y="487.0689655172414" type="curve" smooth="yes"/>
      <point x="331.7931034482759" y="562.0344827586207"/>
      <point x="280.0689655172414" y="622.3793103448276"/>
      <point x="198.10344827586206" y="622.3793103448276" type="curve" smooth="yes"/>
      <point x="115.51724137931035" y="622.3793103448276"/>
      <point x="56.793103448275865" y="563.0344827586207"/>
      <point x="56.793103448275865" y="482.0689655172414" type="curve" smooth="yes"/>
      <point x="56.793103448275865" y="409.7241379310345"/>
      <point x="104.89655172413794" y="346.37931034482756"/>
    </contour>
    <contour>
      <point x="159.10344827586206" y="409.6551724137931" type="curve" smooth="yes"/>
      <point x="139.3448275862069" y="409.6551724137931"/>
      <point x="122.20689655172414" y="423.17241379310343"/>
      <point x="122.20689655172414" y="445.7931034482759" type="curve" smooth="yes"/>
      <point x="122.20689655172414" y="497.9655172413793"/>
      <point x="180.06896551724137" y="555.9655172413793"/>
      <point x="231.24137931034483" y="555.9655172413793" type="curve" smooth="yes"/>
      <point x="255.0" y="555.9655172413793"/>
      <point x="267.7586206896552" y="541.0689655172414"/>
      <point x="267.7586206896552" y="522.3103448275862" type="curve" smooth="yes"/>
      <point x="267.7586206896552" y="475.0344827586207"/>
      <point x="210.13793103448276" y="409.6551724137931"/>
    </contour>
    <contour>
      <point x="331.8965517241379" y="-56.0" type="curve"/>
      <point x="371.9310344827586" y="-39.13793103448276" type="line"/>
      <point x="310.7241379310345" y="96.37931034482759"/>
      <point x="222.24137931034483" y="235.0344827586207"/>
      <point x="121.51724137931035" y="307.58620689655174" type="curve"/>
      <point x="54.41379310344828" y="200.10344827586206" type="line"/>
      <point x="154.41379310344828" y="144.79310344827587"/>
      <point x="231.55172413793105" y="88.58620689655173"/>
    </contour>
  </outline>
</glyph>
<glyph name="visarga-beng" format="2">
  <advance width="397.2758620689655"/>
  <unicode hex="0983"/>
  <anchor x="-212.6206896551724" y="0.0" name="vedic"/>
  <outline>
    <contour>
      <point x="192.20689655172413" y="345.13793103448273" type="curve" smooth="yes"/>
      <point x="278.8965517241379" y="345.13793103448273"/>
      <point x="341.1034482758621" y="403.48275862068965"/>
      <point x="341.1034482758621" y="487.0689655172414" type="curve" smooth="yes"/>
      <point x="341.1034482758621" y="563.2758620689655"/>
      <point x="288.13793103448273" y="623.6206896551724"/>
      <point x="202.44827586206895" y="623.6206896551724" type="curve" smooth="yes"/>
      <point x="117.37931034482759" y="623.6206896551724"/>
      <point x="56.793103448275865" y="564.2758620689655"/>
      <point x="56.793103448275865" y="482.0689655172414" type="curve" smooth="yes"/>
      <point x="56.793103448275865" y="409.1034482758621"/>
      <point x="106.75862068965517" y="345.13793103448273"/>
    </contour>
    <contour>
      <point x="164.06896551724137" y="408.41379310344826" type="curve" smooth="yes"/>
      <point x="144.31034482758622" y="408.41379310344826"/>
      <point x="126.55172413793103" y="421.9310344827586"/>
      <point x="126.55172413793103" y="443.9310344827586" type="curve" smooth="yes"/>
      <point x="126.55172413793103" y="496.7241379310345"/>
      <point x="183.79310344827587" y="557.2068965517242"/>
      <point x="235.58620689655172" y="557.2068965517242" type="curve" smooth="yes"/>
      <point x="259.9655172413793" y="557.2068965517242"/>
      <point x="272.7241379310345" y="542.3103448275862"/>
      <point x="272.7241379310345" y="523.551724137931" type="curve" smooth="yes"/>
      <point x="272.7241379310345" y="476.2758620689655"/>
      <point x="216.9655172413793" y="408.41379310344826"/>
    </contour>
    <contour>
      <point x="192.82758620689654" y="-8.620689655172413" type="curve" smooth="yes"/>
      <point x="278.2758620689655" y="-8.620689655172413"/>
      <point x="339.2413793103448" y="49.103448275862064"/>
      <point x="339.2413793103448" y="131.68965517241378" type="curve" smooth="yes"/>
      <point x="339.2413793103448" y="207.0344827586207"/>
      <point x="286.8965517241379" y="266.37931034482756"/>
      <point x="202.44827586206895" y="266.37931034482756" type="curve" smooth="yes"/>
      <point x="118.62068965517241" y="266.37931034482756"/>
      <point x="58.03448275862069" y="208.0344827586207"/>
      <point x="58.03448275862069" y="126.6896551724138" type="curve" smooth="yes"/>
      <point x="58.03448275862069" y="54.724137931034484"/>
      <point x="107.37931034482759" y="-8.620689655172413"/>
    </contour>
    <contour>
      <point x="164.68965517241378" y="53.03448275862069" type="curve" smooth="yes"/>
      <point x="144.31034482758622" y="53.03448275862069"/>
      <point x="127.17241379310344" y="66.55172413793103"/>
      <point x="127.17241379310344" y="88.55172413793103" type="curve" smooth="yes"/>
      <point x="127.17241379310344" y="141.72413793103448"/>
      <point x="183.79310344827587" y="201.20689655172413"/>
      <point x="235.58620689655172" y="201.20689655172413" type="curve" smooth="yes"/>
      <point x="259.3448275862069" y="201.20689655172413"/>
      <point x="272.1034482758621" y="186.31034482758622"/>
      <point x="272.1034482758621" y="168.55172413793105" type="curve" smooth="yes"/>
      <point x="272.1034482758621" y="121.27586206896552"/>
      <point x="216.9655172413793" y="53.03448275862069"/>
    </contour>
  </outline>
</glyph>
<glyph name="a-beng" format="2">
  <advance width="792.7586206896551"/>
  <unicode hex="0985"/>
  <anchor x="712.7586206896551" y="0.0" name="bottom"/>
  <anchor x="712.7586206896551" y="80.55172413793103" name="bottom.rakaar"/>
  <anchor x="712.7586206896551" y="11.379310344827585" name="bottom.rvocalic"/>
  <anchor x="692.7586206896551" y="10.96551724137931" name="bottom.virama"/>
  <anchor x="712.7586206896551" y="557.5862068965517" name="top"/>
  <anchor x="712.7586206896551" y="557.5862068965517" name="topright"/>
  <anchor x="396.37931034482756" y="0.0" name="vedic"/>
  <outline>
    <contour>
      <point x="705.8965517241379" y="-19.82758620689655" type="line"/>
      <point x="712.7586206896551" y="-18.20689655172414" type="line"/>
      <point x="712.7586206896551" y="557.5862068965517" type="line"/>
      <point x="825.4827586206897" y="557.5862068965517" type="line"/>
      <point x="786.5172413793103" y="622.0" type="line"/>
      <point x="-32.724137931034484" y="622.0" type="line"/>
      <point x="5.241379310344827" y="557.5862068965517" type="line"/>
      <point x="637.0344827586207" y="557.5862068965517" type="line"/>
      <point x="637.0344827586207" y="74.10344827586206" type="line"/>
      <point x="648.3793103448276" y="90.72413793103448" type="line"/>
      <point x="607.6206896551724" y="172.10344827586206"/>
      <point x="561.1034482758621" y="215.24137931034483"/>
      <point x="515.4137931034483" y="243.6551724137931" type="curve"/>
      <point x="489.44827586206895" y="169.86206896551724" type="line"/>
      <point x="552.5862068965517" y="136.9655172413793"/>
      <point x="602.8620689655172" y="90.3103448275862"/>
      <point x="644.6206896551724" y="20.275862068965516" type="curve"/>
    </contour>
    <contour>
      <point x="350.51724137931035" y="63.827586206896555" type="curve" smooth="yes"/>
      <point x="478.9655172413793" y="63.827586206896555"/>
      <point x="550.9310344827586" y="153.0344827586207"/>
      <point x="550.9310344827586" y="286.86206896551727" type="curve" smooth="yes"/>
      <point x="550.9310344827586" y="403.55172413793105"/>
      <point x="476.9655172413793" y="503.7931034482759"/>
      <point x="337.0344827586207" y="503.7931034482759" type="curve" smooth="yes"/>
      <point x="256.7241379310345" y="503.7931034482759"/>
      <point x="202.10344827586206" y="462.3448275862069"/>
      <point x="202.10344827586206" y="390.2413793103448" type="curve" smooth="yes"/>
      <point x="202.10344827586206" y="327.13793103448273"/>
      <point x="247.3448275862069" y="285.3103448275862"/>
      <point x="309.0344827586207" y="285.3103448275862" type="curve" smooth="yes"/>
      <point x="372.86206896551727" y="285.3103448275862"/>
      <point x="407.7241379310345" y="330.7931034482759"/>
      <point x="407.7241379310345" y="391.8965517241379" type="curve" smooth="yes"/>
      <point x="407.7241379310345" y="471.44827586206895"/>
      <point x="356.0689655172414" y="535.9310344827586"/>
      <point x="314.9655172413793" y="568.3103448275862" type="curve"/>
      <point x="173.68965517241378" y="566.9310344827586" type="line"/>
      <point x="294.13793103448273" y="535.9310344827586"/>
      <point x="334.3103448275862" y="473.6551724137931"/>
      <point x="345.3103448275862" y="389.55172413793105" type="curve"/>
      <point x="362.2068965517241" y="397.9310344827586"/>
      <point x="377.17241379310343" y="404.0344827586207"/>
      <point x="398.2758620689655" y="404.0344827586207" type="curve" smooth="yes"/>
      <point x="439.37931034482756" y="404.0344827586207"/>
      <point x="484.2413793103448" y="373.37931034482756"/>
      <point x="487.37931034482756" y="301.9655172413793" type="curve" smooth="yes"/>
      <point x="490.51724137931035" y="221.68965517241378"/>
      <point x="431.41379310344826" y="181.89655172413794"/>
      <point x="342.13793103448273" y="181.89655172413794" type="curve" smooth="yes"/>
      <point x="225.79310344827587" y="181.89655172413794"/>
      <point x="134.20689655172413" y="256.17241379310343"/>
      <point x="63.96551724137931" y="483.9310344827586" type="curve"/>
      <point x="13.89655172413793" y="470.3103448275862" type="line"/>
      <point x="91.93103448275862" y="167.89655172413794"/>
      <point x="205.31034482758622" y="63.827586206896555"/>
    </contour>
  </outline>
</glyph>
<glyph name="aa-beng" format="2">
  <advance width="1019.4827586206897"/>
  <unicode hex="0986"/>
  <anchor x="712.7586206896551" y="0.0" name="bottom"/>
  <anchor x="712.7586206896551" y="80.55172413793103" name="bottom.rakaar"/>
  <anchor x="712.7586206896551" y="11.379310344827585" name="bottom.rvocalic"/>
  <anchor x="692.7586206896551" y="10.96551724137931" name="bottom.virama"/>
  <anchor x="940.1034482758621" y="557.5862068965517" name="top"/>
  <anchor x="940.1034482758621" y="535.1724137931035" name="topright"/>
  <anchor x="509.55172413793105" y="0.0" name="vedic"/>
  <outline>
    <contour>
      <point x="705.8965517241379" y="-19.82758620689655" type="line"/>
      <point x="712.7586206896551" y="-18.20689655172414" type="line"/>
      <point x="712.7586206896551" y="557.5862068965517" type="line"/>
      <point x="774.7586206896551" y="557.5862068965517" type="line"/>
      <point x="736.4137931034483" y="622.0" type="line"/>
      <point x="-32.724137931034484" y="622.0" type="line"/>
      <point x="5.241379310344827" y="557.5862068965517" type="line"/>
      <point x="637.0344827586207" y="557.5862068965517" type="line"/>
      <point x="637.0344827586207" y="74.10344827586206" type="line"/>
      <point x="648.3793103448276" y="90.72413793103448" type="line"/>
      <point x="607.6206896551724" y="172.10344827586206"/>
      <point x="561.1034482758621" y="215.24137931034483"/>
      <point x="515.4137931034483" y="243.6551724137931" type="curve"/>
      <point x="489.44827586206895" y="169.86206896551724" type="line"/>
      <point x="552.5862068965517" y="136.9655172413793"/>
      <point x="602.8620689655172" y="90.3103448275862"/>
      <point x="644.6206896551724" y="20.275862068965516" type="curve"/>
    </contour>
    <contour>
      <point x="350.51724137931035" y="63.827586206896555" type="curve" smooth="yes"/>
      <point x="478.9655172413793" y="63.827586206896555"/>
      <point x="550.9310344827586" y="153.0344827586207"/>
      <point x="550.9310344827586" y="286.86206896551727" type="curve" smooth="yes"/>
      <point x="550.9310344827586" y="403.55172413793105"/>
      <point x="476.9655172413793" y="503.7931034482759"/>
      <point x="337.0344827586207" y="503.7931034482759" type="curve" smooth="yes"/>
      <point x="256.7241379310345" y="503.7931034482759"/>
      <point x="202.10344827586206" y="462.3448275862069"/>
      <point x="202.10344827586206" y="390.2413793103448" type="curve" smooth="yes"/>
      <point x="202.10344827586206" y="327.13793103448273"/>
      <point x="247.3448275862069" y="285.3103448275862"/>
      <point x="309.0344827586207" y="285.3103448275862" type="curve" smooth="yes"/>
      <point x="372.86206896551727" y="285.3103448275862"/>
      <point x="407.7241379310345" y="330.7931034482759"/>
      <point x="407.7241379310345" y="391.8965517241379" type="curve" smooth="yes"/>
      <point x="407.7241379310345" y="471.44827586206895"/>
      <point x="356.0689655172414" y="535.9310344827586"/>
      <point x="314.9655172413793" y="568.3103448275862" type="curve"/>
      <point x="173.68965517241378" y="566.9310344827586" type="line"/>
      <point x="294.13793103448273" y="535.9310344827586"/>
      <point x="334.3103448275862" y="473.6551724137931"/>
      <point x="345.3103448275862" y="389.55172413793105" type="curve"/>
      <point x="362.2068965517241" y="397.9310344827586"/>
      <point x="377.17241379310343" y="404.0344827586207"/>
      <point x="398.2758620689655" y="404.0344827586207" type="curve" smooth="yes"/>
      <point x="439.37931034482756" y="404.0344827586207"/>
      <point x="487.37931034482756" y="373.37931034482756"/>
      <point x="487.37931034482756" y="301.9655172413793" type="curve" smooth="yes"/>
      <point x="487.37931034482756" y="221.31034482758622"/>
      <point x="431.0344827586207" y="181.89655172413794"/>
      <point x="342.13793103448273" y="181.89655172413794" type="curve" smooth="yes"/>
      <point x="225.79310344827587" y="181.89655172413794"/>
      <point x="134.20689655172413" y="256.17241379310343"/>
      <point x="63.96551724137931" y="483.9310344827586" type="curve"/>
      <point x="13.89655172413793" y="470.3103448275862" type="line"/>
      <point x="91.93103448275862" y="167.89655172413794"/>
      <point x="205.31034482758622" y="63.827586206896555"/>
    </contour>
    <contour>
      <point x="934.0" y="-31.20689655172414" type="line"/>
      <point x="940.1034482758621" y="-29.586206896551722" type="line"/>
      <point x="940.1034482758621" y="557.5862068965517" type="line"/>
      <point x="1052.2068965517242" y="557.5862068965517" type="line"/>
      <point x="1012.8620689655172" y="622.0" type="line"/>
      <point x="935.7586206896551" y="622.0" type="line"/>
      <point x="929.2758620689655" y="672.448275862069" type="line"/>
      <point x="869.6206896551724" y="707.3103448275862" type="line"/>
      <point x="863.7586206896551" y="705.0689655172414" type="line"/>
      <point x="863.7586206896551" y="616.7586206896551" type="line" smooth="yes"/>
      <point x="863.7586206896551" y="597.5172413793103"/>
      <point x="867.1379310344828" y="541.8965517241379"/>
      <point x="871.7586206896551" y="494.8965517241379" type="curve"/>
      <point x="880.2413793103449" y="497.8965517241379" type="line"/>
      <point x="868.1379310344828" y="583.8965517241379"/>
      <point x="832.9655172413793" y="622.0"/>
      <point x="787.7931034482758" y="622.0" type="curve" smooth="yes"/>
      <point x="729.1724137931035" y="622.0" type="line"/>
      <point x="767.7586206896551" y="557.5862068965517" type="line"/>
      <point x="795.3793103448276" y="557.5862068965517" type="line" smooth="yes"/>
      <point x="835.6206896551724" y="557.5862068965517"/>
      <point x="854.6206896551724" y="512.9655172413793"/>
      <point x="863.7586206896551" y="461.44827586206895" type="curve"/>
      <point x="863.7586206896551" y="1.7586206896551724" type="line"/>
    </contour>
  </outline>
</glyph>
<glyph name="i-beng" format="2">
  <advance width="492.0689655172414"/>
  <unicode hex="0987"/>
  <anchor x="288.58620689655174" y="66.41379310344827" name="bottom"/>
  <anchor x="412.9310344827586" y="-73.89655172413794" name="bottom.rakaar"/>
  <anchor x="357.2413793103448" y="63.93103448275862" name="bottom.rvocalic"/>
  <anchor x="272.55172413793105" y="68.27586206896552" name="bottom.virama"/>
  <anchor x="307.51724137931035" y="612.6551724137931" name="top"/>
  <anchor x="249.24137931034483" y="615.7931034482758" name="topright"/>
  <anchor x="246.0344827586207" y="0.0" name="vedic"/>
  <outline>
    <contour>
      <point x="375.82758620689657" y="603.3103448275862" type="curve"/>
      <point x="429.37931034482756" y="603.3103448275862" type="line"/>
      <point x="424.62068965517244" y="738.3793103448276"/>
      <point x="373.7931034482759" y="814.3103448275862"/>
      <point x="275.82758620689657" y="814.3103448275862" type="curve" smooth="yes"/>
      <point x="228.89655172413794" y="814.3103448275862"/>
      <point x="190.89655172413794" y="803.9310344827586"/>
      <point x="134.27586206896552" y="803.9310344827586" type="curve" smooth="yes"/>
      <point x="64.93103448275862" y="803.9310344827586"/>
      <point x="31.896551724137932" y="821.2758620689655"/>
      <point x="31.896551724137932" y="889.3448275862069" type="curve" smooth="yes"/>
      <point x="31.896551724137932" y="900.5862068965517"/>
      <point x="32.896551724137936" y="913.8275862068965"/>
      <point x="33.896551724137936" y="922.3103448275862" type="curve"/>
      <point x="-13.689655172413794" y="926.9310344827586" type="line"/>
      <point x="-16.93103448275862" y="906.448275862069"/>
      <point x="-19.17241379310345" y="883.1034482758621"/>
      <point x="-19.17241379310345" y="858.2758620689655" type="curve" smooth="yes"/>
      <point x="-19.17241379310345" y="760.551724137931"/>
      <point x="30.275862068965516" y="698.6896551724138"/>
      <point x="132.24137931034483" y="698.6896551724138" type="curve" smooth="yes"/>
      <point x="202.58620689655172" y="698.6896551724138"/>
      <point x="251.9655172413793" y="710.6896551724138"/>
      <point x="292.0689655172414" y="710.6896551724138" type="curve" smooth="yes"/>
      <point x="343.0689655172414" y="710.6896551724138"/>
      <point x="374.0689655172414" y="683.2758620689655"/>
    </contour>
    <component base="ha-beng"/>
  </outline>
</glyph>
<glyph name="ii-beng" format="2">
  <advance width="658.0344827586207"/>
  <unicode hex="0988"/>
  <anchor x="583.551724137931" y="-18.20689655172414" name="bottom"/>
  <anchor x="585.7931034482758" y="55.724137931034484" name="bottom.rakaar"/>
  <anchor x="565.3793103448276" y="-9.689655172413794" name="bottom.rvocalic"/>
  <anchor x="566.2758620689655" y="-23.586206896551726" name="bottom.virama"/>
  <anchor x="403.0" y="612.6551724137931" name="top"/>
  <anchor x="352.37931034482756" y="615.7931034482758" name="topright"/>
  <anchor x="328.82758620689657" y="0.0" name="vedic"/>
  <outline>
    <contour>
      <point x="538.8275862068965" y="-50.0" type="curve"/>
      <point x="584.0344827586207" y="-30.758620689655174" type="line"/>
      <point x="561.2758620689655" y="31.724137931034484"/>
      <point x="550.8965517241379" y="84.37931034482759"/>
      <point x="550.8965517241379" y="145.0" type="curve" smooth="yes"/>
      <point x="550.8965517241379" y="231.3448275862069"/>
      <point x="575.7586206896551" y="322.2758620689655"/>
      <point x="623.6206896551724" y="401.2413793103448" type="curve"/>
      <point x="517.7586206896551" y="492.2758620689655" type="line"/>
      <point x="416.0689655172414" y="418.0689655172414"/>
      <point x="365.37931034482756" y="341.9655172413793"/>
      <point x="315.48275862068965" y="262.2068965517241" type="curve"/>
      <point x="368.44827586206895" y="265.3448275862069" type="line"/>
      <point x="372.3103448275862" y="281.9310344827586"/>
      <point x="373.3103448275862" y="303.41379310344826"/>
      <point x="373.3103448275862" y="320.0" type="curve" smooth="yes"/>
      <point x="373.3103448275862" y="414.44827586206895"/>
      <point x="322.55172413793105" y="501.7931034482759"/>
      <point x="180.41379310344828" y="501.7931034482759" type="curve" smooth="yes"/>
      <point x="94.82758620689656" y="501.7931034482759"/>
      <point x="48.241379310344826" y="464.44827586206895"/>
      <point x="48.241379310344826" y="403.62068965517244" type="curve" smooth="yes"/>
      <point x="48.241379310344826" y="346.0689655172414"/>
      <point x="86.93103448275862" y="312.2068965517241"/>
      <point x="142.27586206896552" y="312.2068965517241" type="curve" smooth="yes"/>
      <point x="198.86206896551724" y="312.2068965517241"/>
      <point x="233.68965517241378" y="351.3103448275862"/>
      <point x="233.68965517241378" y="415.7586206896552" type="curve" smooth="yes"/>
      <point x="233.68965517241378" y="472.41379310344826"/>
      <point x="195.75862068965517" y="538.4137931034483"/>
      <point x="159.6206896551724" y="564.5862068965517" type="curve"/>
      <point x="35.06896551724138" y="564.5862068965517" type="line"/>
      <point x="86.55172413793103" y="548.448275862069"/>
      <point x="142.10344827586206" y="514.1724137931035"/>
      <point x="168.13793103448276" y="463.0344827586207" type="curve"/>
      <point x="127.55172413793103" y="390.37931034482756" type="line"/>
      <point x="157.86206896551724" y="409.37931034482756"/>
      <point x="186.20689655172413" y="423.1034482758621"/>
      <point x="222.24137931034483" y="423.1034482758621" type="curve" smooth="yes"/>
      <point x="287.6551724137931" y="423.1034482758621"/>
      <point x="311.0" y="383.2068965517241"/>
      <point x="311.0" y="333.3448275862069" type="curve" smooth="yes"/>
      <point x="311.0" y="298.48275862068965"/>
      <point x="299.86206896551727" y="264.58620689655174"/>
      <point x="278.86206896551727" y="234.20689655172413" type="curve" smooth="yes"/>
      <point x="252.3448275862069" y="195.31034482758622"/>
      <point x="224.10344827586206" y="180.20689655172413"/>
      <point x="184.27586206896552" y="180.20689655172413" type="curve" smooth="yes"/>
      <point x="151.93103448275863" y="180.20689655172413"/>
      <point x="122.93103448275862" y="199.31034482758622"/>
      <point x="95.3103448275862" y="250.44827586206895" type="curve"/>
      <point x="50.0" y="228.86206896551724" type="line"/>
      <point x="94.62068965517241" y="124.24137931034483"/>
      <point x="148.44827586206895" y="69.13793103448276"/>
      <point x="219.44827586206895" y="69.13793103448276" type="curve" smooth="yes"/>
      <point x="286.62068965517244" y="69.13793103448276"/>
      <point x="331.0689655172414" y="118.93103448275862"/>
      <point x="383.1034482758621" y="190.44827586206895" type="curve" smooth="yes"/>
      <point x="432.8965517241379" y="260.51724137931035"/>
      <point x="479.86206896551727" y="331.44827586206895"/>
      <point x="557.0689655172414" y="398.6551724137931" type="curve"/>
      <point x="525.3448275862069" y="403.9655172413793" type="line"/>
      <point x="495.1034482758621" y="332.0344827586207"/>
      <point x="477.37931034482756" y="262.41379310344826"/>
      <point x="477.37931034482756" y="191.72413793103448" type="curve" smooth="yes"/>
      <point x="477.37931034482756" y="104.37931034482759"/>
      <point x="503.2068965517241" y="23.275862068965516"/>
    </contour>
    <contour>
      <point x="5.241379310344827" y="557.5862068965517" type="line"/>
      <point x="690.7586206896551" y="557.5862068965517" type="line"/>
      <point x="652.4137931034483" y="622.0" type="line"/>
      <point x="-32.724137931034484" y="622.0" type="line"/>
    </contour>
    <contour>
      <point x="516.0344827586207" y="603.3103448275862" type="curve"/>
      <point x="569.9655172413793" y="603.3103448275862" type="line"/>
      <point x="557.8275862068965" y="738.3793103448276"/>
      <point x="509.1379310344828" y="816.7931034482758"/>
      <point x="387.82758620689657" y="816.7931034482758" type="curve" smooth="yes"/>
      <point x="329.8965517241379" y="816.7931034482758"/>
      <point x="284.7931034482759" y="805.3103448275862"/>
      <point x="219.58620689655172" y="805.3103448275862" type="curve" smooth="yes"/>
      <point x="133.44827586206895" y="805.3103448275862"/>
      <point x="96.55172413793103" y="822.6551724137931"/>
      <point x="96.55172413793103" y="891.1034482758621" type="curve" smooth="yes"/>
      <point x="96.55172413793103" y="900.5862068965517"/>
      <point x="96.55172413793103" y="912.0689655172414"/>
      <point x="98.17241379310344" y="922.3103448275862" type="curve"/>
      <point x="50.96551724137931" y="926.9310344827586" type="line"/>
      <point x="46.724137931034484" y="906.448275862069"/>
      <point x="45.10344827586207" y="884.8620689655172"/>
      <point x="45.10344827586207" y="863.8965517241379" type="curve" smooth="yes"/>
      <point x="45.10344827586207" y="761.8965517241379"/>
      <point x="104.72413793103448" y="700.0689655172414"/>
      <point x="225.17241379310346" y="700.0689655172414" type="curve" smooth="yes"/>
      <point x="300.51724137931035" y="700.0689655172414"/>
      <point x="362.7586206896552" y="713.1724137931035"/>
      <point x="415.44827586206895" y="713.1724137931035" type="curve" smooth="yes"/>
      <point x="480.55172413793105" y="713.1724137931035"/>
      <point x="506.8965517241379" y="683.2758620689655"/>
    </contour>
  </outline>
</glyph>
<glyph name="u-beng" format="2">
  <advance width="630.4137931034483"/>
  <unicode hex="0989"/>
  <anchor x="483.0" y="12.275862068965516" name="bottom"/>
  <anchor x="537.8275862068965" y="-7.862068965517242" name="bottom.rakaar"/>
  <anchor x="462.7241379310345" y="38.13793103448276" name="bottom.rvocalic"/>
  <anchor x="400.86206896551727" y="4.689655172413794" name="bottom.virama"/>
  <anchor x="381.0689655172414" y="609.551724137931" name="top"/>
  <anchor x="318.1034482758621" y="615.7931034482758" name="topright"/>
  <anchor x="315.2068965517241" y="0.0" name="vedic"/>
  <anchor x="339.58620689655174" y="-90.55172413793103" name="nukta"/>
  <outline>
    <contour>
      <point x="501.13793103448273" y="603.3103448275862" type="curve"/>
      <point x="555.0689655172414" y="603.3103448275862" type="line"/>
      <point x="541.0689655172414" y="737.7586206896551"/>
      <point x="493.0" y="814.3103448275862"/>
      <point x="374.17241379310343" y="814.3103448275862" type="curve" smooth="yes"/>
      <point x="318.7241379310345" y="814.3103448275862"/>
      <point x="281.0689655172414" y="805.3103448275862"/>
      <point x="222.06896551724137" y="805.3103448275862" type="curve" smooth="yes"/>
      <point x="131.58620689655172" y="805.3103448275862"/>
      <point x="94.6896551724138" y="822.0344827586207"/>
      <point x="94.6896551724138" y="891.1034482758621" type="curve" smooth="yes"/>
      <point x="94.6896551724138" y="899.9655172413793"/>
      <point x="95.3103448275862" y="911.448275862069"/>
      <point x="96.3103448275862" y="921.6896551724138" type="curve"/>
      <point x="49.10344827586207" y="926.9310344827586" type="line"/>
      <point x="44.86206896551724" y="905.8275862068965"/>
      <point x="43.241379310344826" y="884.2413793103449"/>
      <point x="43.241379310344826" y="863.8965517241379" type="curve" smooth="yes"/>
      <point x="43.241379310344826" y="761.2758620689655"/>
      <point x="102.86206896551724" y="699.448275862069"/>
      <point x="225.79310344827587" y="699.448275862069" type="curve" smooth="yes"/>
      <point x="296.7931034482759" y="699.448275862069"/>
      <point x="351.58620689655174" y="710.0689655172414"/>
      <point x="396.2068965517241" y="710.0689655172414" type="curve" smooth="yes"/>
      <point x="463.7931034482759" y="710.0689655172414"/>
      <point x="490.7586206896552" y="682.6551724137931"/>
    </contour>
    <component base="dda-beng"/>
  </outline>
</glyph>
<glyph name="uu-beng" format="2">
  <advance width="706.551724137931"/>
  <unicode hex="098A"/>
  <anchor x="554.1724137931035" y="8.551724137931032" name="bottom"/>
  <anchor x="609.0" y="-11.586206896551724" name="bottom.rakaar"/>
  <anchor x="533.8965517241379" y="34.41379310344827" name="bottom.rvocalic"/>
  <anchor x="472.0344827586207" y="1.5862068965517242" name="bottom.virama"/>
  <anchor x="429.1379310344828" y="611.4137931034483" name="top"/>
  <anchor x="402.37931034482756" y="615.7931034482758" name="topright"/>
  <anchor x="353.2758620689655" y="0.0" name="vedic"/>
  <outline>
    <contour>
      <point x="436.3103448275862" y="19.586206896551722" type="curve" smooth="yes"/>
      <point x="595.1379310344828" y="19.586206896551722"/>
      <point x="671.2413793103449" y="119.27586206896552"/>
      <point x="671.2413793103449" y="252.06896551724137" type="curve" smooth="yes"/>
      <point x="671.2413793103449" y="354.6551724137931"/>
      <point x="632.2758620689655" y="428.48275862068965"/>
      <point x="573.6551724137931" y="480.1034482758621" type="curve"/>
      <point x="526.5862068965517" y="411.2758620689655"/>
      <point x="470.2068965517241" y="359.58620689655174"/>
      <point x="421.7586206896552" y="359.58620689655174" type="curve" smooth="yes"/>
      <point x="402.0" y="359.58620689655174"/>
      <point x="388.51724137931035" y="367.7241379310345"/>
      <point x="388.51724137931035" y="388.82758620689657" type="curve" smooth="yes"/>
      <point x="388.51724137931035" y="557.5862068965517" type="line"/>
      <point x="739.2758620689655" y="557.5862068965517" type="line"/>
      <point x="699.6896551724138" y="622.0" type="line"/>
      <point x="-32.724137931034484" y="622.0" type="line"/>
      <point x="6.862068965517242" y="557.5862068965517" type="line"/>
      <point x="312.7931034482759" y="557.5862068965517" type="line"/>
      <point x="312.7931034482759" y="379.41379310344826" type="line" smooth="yes"/>
      <point x="312.7931034482759" y="337.9655172413793"/>
      <point x="326.51724137931035" y="308.86206896551727"/>
      <point x="350.37931034482756" y="285.7586206896552" type="curve" smooth="yes"/>
      <point x="372.7241379310345" y="264.41379310344826"/>
      <point x="404.0689655172414" y="250.17241379310346"/>
      <point x="440.0344827586207" y="250.17241379310346" type="curve" smooth="yes"/>
      <point x="501.2758620689655" y="250.17241379310346"/>
      <point x="573.2413793103449" y="298.41379310344826"/>
      <point x="620.3448275862069" y="369.13793103448273" type="curve"/>
      <point x="572.1724137931035" y="375.55172413793105" type="line"/>
      <point x="597.3103448275862" y="353.82758620689657"/>
      <point x="612.1724137931035" y="326.58620689655174"/>
      <point x="612.1724137931035" y="277.7931034482759" type="curve" smooth="yes"/>
      <point x="612.1724137931035" y="193.79310344827587"/>
      <point x="552.7241379310345" y="136.79310344827587"/>
      <point x="456.37931034482756" y="135.0344827586207" type="curve" smooth="yes"/>
      <point x="295.0689655172414" y="131.89655172413794"/>
      <point x="243.06896551724137" y="283.9310344827586"/>
      <point x="183.06896551724137" y="497.0344827586207" type="curve"/>
      <point x="133.6206896551724" y="483.7931034482759" type="line"/>
      <point x="172.79310344827587" y="307.62068965517244"/>
      <point x="212.41379310344828" y="195.24137931034483"/>
      <point x="286.1034482758621" y="121.55172413793103" type="curve"/>
      <point x="321.3103448275862" y="124.51724137931035" type="line"/>
      <point x="212.93103448275863" y="156.75862068965517"/>
      <point x="135.27586206896552" y="275.8965517241379"/>
      <point x="68.27586206896552" y="493.3103448275862" type="curve"/>
      <point x="18.82758620689655" y="480.0689655172414" type="line"/>
      <point x="91.10344827586206" y="170.86206896551724"/>
      <point x="228.44827586206895" y="19.586206896551722"/>
    </contour>
    <contour>
      <point x="574.6896551724138" y="603.3103448275862" type="curve"/>
      <point x="628.6206896551724" y="603.3103448275862" type="line"/>
      <point x="615.2413793103449" y="738.3793103448276"/>
      <point x="557.9310344827586" y="818.3103448275862"/>
      <point x="433.8965517241379" y="818.3103448275862" type="curve" smooth="yes"/>
      <point x="358.9655172413793" y="818.3103448275862"/>
      <point x="311.9310344827586" y="799.9310344827586"/>
      <point x="218.24137931034483" y="799.9310344827586" type="curve" smooth="yes"/>
      <point x="129.3793103448276" y="799.9310344827586"/>
      <point x="98.24137931034483" y="822.6551724137931"/>
      <point x="98.24137931034483" y="891.1034482758621" type="curve" smooth="yes"/>
      <point x="98.24137931034483" y="900.5862068965517"/>
      <point x="98.86206896551724" y="912.0689655172414"/>
      <point x="99.86206896551724" y="922.3103448275862" type="curve"/>
      <point x="52.275862068965516" y="926.9310344827586" type="line"/>
      <point x="49.03448275862069" y="906.448275862069"/>
      <point x="46.793103448275865" y="884.8620689655172"/>
      <point x="46.793103448275865" y="863.8965517241379" type="curve" smooth="yes"/>
      <point x="46.793103448275865" y="757.7586206896551"/>
      <point x="100.03448275862068" y="695.3103448275862"/>
      <point x="227.55172413793105" y="695.3103448275862" type="curve" smooth="yes"/>
      <point x="325.6896551724138" y="695.3103448275862"/>
      <point x="377.7586206896552" y="715.3103448275862"/>
      <point x="453.7586206896552" y="715.3103448275862" type="curve" smooth="yes"/>
      <point x="528.8620689655172" y="715.3103448275862"/>
      <point x="564.3103448275862" y="683.2758620689655"/>
    </contour>
  </outline>
</glyph>
<glyph name="rVocalic-beng" format="2">
  <advance width="774.2758620689655"/>
  <unicode hex="098B"/>
  <anchor x="521.1379310344828" y="0.0" name="bottom"/>
  <anchor x="521.1379310344828" y="80.55172413793103" name="bottom.rakaar"/>
  <anchor x="447.0" y="114.37931034482759" name="bottom.rvocalic"/>
  <anchor x="501.13793103448273" y="10.96551724137931" name="bottom.virama"/>
  <anchor x="521.1379310344828" y="557.5862068965517" name="top"/>
  <anchor x="524.1379310344828" y="557.5862068965517" name="topright"/>
  <anchor x="387.13793103448273" y="0.0" name="vedic"/>
  <outline>
    <contour>
      <point x="513.6551724137931" y="-24.793103448275865" type="line"/>
      <point x="521.1379310344828" y="-22.551724137931036" type="line"/>
      <point x="521.1379310344828" y="640.8965517241379" type="line"/>
      <point x="450.6551724137931" y="683.5862068965517" type="line"/>
      <point x="444.7931034482759" y="681.9655172413793" type="line"/>
      <point x="444.7931034482759" y="442.8965517241379" type="line"/>
      <point x="453.2758620689655" y="482.7586206896552" type="line"/>
      <point x="323.62068965517244" y="444.2413793103448"/>
      <point x="202.6206896551724" y="390.7931034482759"/>
      <point x="87.82758620689656" y="316.7586206896552" type="curve"/>
      <point x="136.89655172413794" y="184.51724137931035" type="line"/>
      <point x="270.17241379310343" y="176.51724137931035"/>
      <point x="383.48275862068965" y="127.24137931034483"/>
      <point x="452.37931034482756" y="15.931034482758621" type="curve"/>
    </contour>
    <contour>
      <point x="444.7931034482759" y="69.75862068965517" type="line"/>
      <point x="456.13793103448273" y="85.75862068965517" type="line"/>
      <point x="380.62068965517244" y="231.6206896551724"/>
      <point x="263.0" y="258.13793103448273"/>
      <point x="168.24137931034483" y="275.9310344827586" type="curve"/>
      <point x="183.9655172413793" y="234.17241379310346" type="line"/>
      <point x="258.6551724137931" y="290.8620689655172"/>
      <point x="366.2413793103448" y="339.17241379310343"/>
      <point x="459.8965517241379" y="365.6896551724138" type="curve"/>
      <point x="444.7931034482759" y="388.7586206896552" type="line"/>
    </contour>
    <contour>
      <point x="142.27586206896552" y="430.7931034482759" type="curve" smooth="yes"/>
      <point x="212.9655172413793" y="430.7931034482759"/>
      <point x="308.55172413793105" y="465.41379310344826"/>
      <point x="361.82758620689657" y="539.8275862068965" type="curve"/>
      <point x="323.9310344827586" y="539.1724137931035" type="line"/>
      <point x="353.58620689655174" y="515.0344827586207"/>
      <point x="368.41379310344826" y="491.9310344827586"/>
      <point x="399.86206896551727" y="442.7586206896552" type="curve"/>
      <point x="443.55172413793105" y="453.62068965517244" type="line"/>
      <point x="410.62068965517244" y="531.0344827586207"/>
      <point x="369.8965517241379" y="592.5862068965517"/>
      <point x="320.82758620689657" y="629.9655172413793" type="curve"/>
      <point x="265.8965517241379" y="550.8965517241379"/>
      <point x="193.44827586206895" y="526.0689655172414"/>
      <point x="144.93103448275863" y="526.0689655172414" type="curve" smooth="yes"/>
      <point x="131.68965517241378" y="526.0689655172414"/>
      <point x="118.06896551724138" y="529.6896551724138"/>
      <point x="109.20689655172414" y="532.9310344827586" type="curve"/>
      <point x="145.24137931034483" y="484.7586206896552" type="line"/>
      <point x="164.48275862068965" y="501.37931034482756"/>
      <point x="171.10344827586206" y="516.6206896551724"/>
      <point x="171.10344827586206" y="543.8620689655172" type="curve" smooth="yes"/>
      <point x="171.10344827586206" y="579.4827586206897"/>
      <point x="146.48275862068965" y="608.8275862068965"/>
      <point x="100.27586206896552" y="608.8275862068965" type="curve" smooth="yes"/>
      <point x="52.793103448275865" y="608.8275862068965"/>
      <point x="24.448275862068964" y="578.7241379310345"/>
      <point x="24.448275862068964" y="530.2413793103449" type="curve" smooth="yes"/>
      <point x="24.448275862068964" y="462.7586206896552"/>
      <point x="78.72413793103448" y="430.7931034482759"/>
    </contour>
    <contour>
      <point x="688.7931034482758" y="67.24137931034483" type="line"/>
      <point x="694.2758620689655" y="68.86206896551724" type="line"/>
      <point x="694.2758620689655" y="557.5862068965517" type="line"/>
      <point x="807.0" y="557.5862068965517" type="line"/>
      <point x="767.0344827586207" y="622.0" type="line"/>
      <point x="689.9310344827586" y="622.0" type="line"/>
      <point x="684.0689655172414" y="672.448275862069" type="line"/>
      <point x="624.4137931034483" y="707.3103448275862" type="line"/>
      <point x="618.551724137931" y="705.0689655172414" type="line"/>
      <point x="618.551724137931" y="164.27586206896552" type="line"/>
      <point x="629.8965517241379" y="180.89655172413794" type="line"/>
      <point x="590.6551724137931" y="262.3103448275862"/>
      <point x="547.7586206896551" y="303.86206896551727"/>
      <point x="493.7931034482759" y="338.62068965517244" type="curve"/>
      <point x="484.9310344827586" y="249.9655172413793" type="line"/>
      <point x="546.1379310344828" y="219.72413793103448"/>
      <point x="587.8965517241379" y="175.79310344827587"/>
      <point x="626.1379310344828" y="107.9655172413793" type="curve"/>
    </contour>
  </outline>
</glyph>
<glyph name="lVocalic-beng" format="2">
  <advance width="540.7586206896551"/>
  <unicode hex="098C"/>
  <anchor x="400.41379310344826" y="557.5862068965517" name="top"/>
  <anchor x="270.0689655172414" y="0.0" name="vedic"/>
  <outline>
    <contour>
      <point x="309.3448275862069" y="1.2413793103448256" type="line"/>
      <point x="410.58620689655174" y="18.89655172413793"/>
      <point x="517.7241379310345" y="113.24137931034483"/>
      <point x="517.7241379310345" y="275.9310344827586" type="curve" smooth="yes"/>
      <point x="517.7241379310345" y="425.0344827586207"/>
      <point x="443.7586206896552" y="474.48275862068965"/>
      <point x="287.55172413793105" y="507.0" type="curve" smooth="yes"/>
      <point x="198.93103448275863" y="526.1379310344828"/>
      <point x="136.55172413793105" y="542.8965517241379"/>
      <point x="136.55172413793105" y="618.7586206896551" type="curve" smooth="yes"/>
      <point x="136.55172413793105" y="646.6206896551724"/>
      <point x="142.55172413793105" y="671.3793103448276"/>
      <point x="153.17241379310346" y="698.6206896551724" type="curve"/>
      <point x="107.34482758620689" y="713.8620689655172" type="line"/>
      <point x="91.20689655172414" y="682.0689655172414"/>
      <point x="73.27586206896552" y="629.7586206896551"/>
      <point x="73.27586206896552" y="582.8620689655172" type="curve" smooth="yes"/>
      <point x="73.27586206896552" y="464.7586206896552"/>
      <point x="142.86206896551724" y="426.2758620689655"/>
      <point x="274.62068965517244" y="400.7586206896552" type="curve" smooth="yes"/>
      <point x="386.2068965517241" y="379.0"/>
      <point x="455.9310344827586" y="362.7241379310345"/>
      <point x="455.9310344827586" y="249.72413793103448" type="curve" smooth="yes"/>
      <point x="455.9310344827586" y="176.6206896551724"/>
      <point x="414.3103448275862" y="113.27586206896552"/>
      <point x="357.44827586206895" y="103.62068965517241" type="curve"/>
      <point x="395.48275862068965" y="79.79310344827586" type="line"/>
      <point x="396.48275862068965" y="205.82758620689654"/>
      <point x="342.0689655172414" y="321.2068965517241"/>
      <point x="212.3448275862069" y="321.2068965517241" type="curve" smooth="yes"/>
      <point x="103.3103448275862" y="321.2068965517241"/>
      <point x="51.310344827586206" y="246.6551724137931"/>
      <point x="51.310344827586206" y="162.06896551724137" type="curve" smooth="yes"/>
      <point x="51.310344827586206" y="65.86206896551724"/>
      <point x="103.41379310344827" y="17.379310344827587"/>
      <point x="171.0" y="17.379310344827587" type="curve" smooth="yes"/>
      <point x="223.9655172413793" y="17.379310344827587"/>
      <point x="247.82758620689654" y="54.48275862068965"/>
      <point x="247.82758620689654" y="95.06896551724138" type="curve" smooth="yes"/>
      <point x="247.82758620689654" y="138.0344827586207"/>
      <point x="216.9655172413793" y="166.75862068965517"/>
      <point x="175.75862068965517" y="166.75862068965517" type="curve" smooth="yes"/>
      <point x="139.0344827586207" y="166.75862068965517"/>
      <point x="105.6896551724138" y="141.27586206896552"/>
      <point x="105.3103448275862" y="108.93103448275862" type="curve"/>
      <point x="155.24137931034483" y="107.20689655172414" type="line"/>
      <point x="132.86206896551724" y="114.58620689655173"/>
      <point x="116.10344827586206" y="133.3448275862069"/>
      <point x="116.10344827586206" y="167.10344827586206" type="curve" smooth="yes"/>
      <point x="116.10344827586206" y="204.48275862068965"/>
      <point x="145.10344827586206" y="234.24137931034483"/>
      <point x="193.24137931034483" y="234.24137931034483" type="curve" smooth="yes"/>
      <point x="276.9655172413793" y="234.24137931034483"/>
      <point x="305.9655172413793" y="139.27586206896552"/>
      <point x="305.9655172413793" y="53.758620689655174" type="curve" smooth="yes"/>
      <point x="305.9655172413793" y="37.0"/>
      <point x="304.9655172413793" y="21.241379310344826"/>
      <point x="302.3448275862069" y="5.862068965517242" type="curve"/>
    </contour>
  </outline>
</glyph>
<glyph name="e-beng" format="2">
  <advance width="662.8620689655172"/>
  <unicode hex="098F"/>
  <anchor x="594.7241379310345" y="0.0" name="bottom"/>
  <anchor x="594.7241379310345" y="-1.9655172413793105" name="bottom.rvocalic"/>
  <anchor x="574.7241379310345" y="7.241379310344827" name="bottom.virama"/>
  <anchor x="501.7241379310345" y="557.5862068965517" name="top"/>
  <anchor x="504.7241379310345" y="557.5862068965517" name="topright"/>
  <anchor x="330.9310344827586" y="0.0" name="vedic"/>
  <outline>
    <contour>
      <point x="587.2413793103449" y="-22.93103448275862" type="line"/>
      <point x="594.7241379310345" y="-21.310344827586206" type="line"/>
      <point x="594.7241379310345" y="494.82758620689657" type="line" smooth="yes"/>
      <point x="594.7241379310345" y="577.0344827586207"/>
      <point x="549.4137931034483" y="632.6206896551724"/>
      <point x="459.7241379310345" y="632.6206896551724" type="curve" smooth="yes"/>
      <point x="328.2413793103448" y="632.6206896551724"/>
      <point x="211.55172413793105" y="506.9310344827586"/>
      <point x="211.55172413793105" y="386.7586206896552" type="curve" smooth="yes"/>
      <point x="211.55172413793105" y="307.0344827586207"/>
      <point x="259.8965517241379" y="263.9310344827586"/>
      <point x="326.2413793103448" y="262.55172413793105" type="curve" smooth="yes"/>
      <point x="393.58620689655174" y="261.17241379310343"/>
      <point x="429.3103448275862" y="301.13793103448273"/>
      <point x="429.3103448275862" y="352.86206896551727" type="curve" smooth="yes"/>
      <point x="429.3103448275862" y="398.44827586206895"/>
      <point x="400.9655172413793" y="434.2068965517241"/>
      <point x="349.58620689655174" y="434.2068965517241" type="curve" smooth="yes"/>
      <point x="328.7241379310345" y="434.2068965517241"/>
      <point x="303.9655172413793" y="424.9655172413793"/>
      <point x="291.3448275862069" y="404.2068965517241" type="curve"/>
      <point x="334.9310344827586" y="400.7241379310345" type="line"/>
      <point x="334.17241379310343" y="466.86206896551727"/>
      <point x="404.13793103448273" y="563.1034482758621"/>
      <point x="467.0689655172414" y="563.1034482758621" type="curve" smooth="yes"/>
      <point x="507.37931034482756" y="563.1034482758621"/>
      <point x="518.3793103448276" y="536.9310344827586"/>
      <point x="518.3793103448276" y="497.2413793103448" type="curve" smooth="yes"/>
      <point x="518.3793103448276" y="216.0344827586207" type="line" smooth="yes"/>
      <point x="518.3793103448276" y="172.9655172413793"/>
      <point x="521.2413793103449" y="123.44827586206897"/>
      <point x="526.7241379310345" y="87.20689655172414" type="curve"/>
      <point x="484.62068965517244" y="164.27586206896552"/>
      <point x="445.6551724137931" y="184.55172413793105"/>
      <point x="381.7931034482759" y="184.55172413793105" type="curve" smooth="yes"/>
      <point x="328.8965517241379" y="184.55172413793105"/>
      <point x="295.82758620689657" y="175.17241379310346"/>
      <point x="228.3793103448276" y="175.17241379310346" type="curve" smooth="yes"/>
      <point x="155.86206896551724" y="175.17241379310346"/>
      <point x="98.86206896551724" y="212.27586206896552"/>
      <point x="98.86206896551724" y="299.0344827586207" type="curve" smooth="yes"/>
      <point x="98.86206896551724" y="326.6896551724138"/>
      <point x="102.24137931034483" y="353.3103448275862"/>
      <point x="108.86206896551724" y="380.0344827586207" type="curve"/>
      <point x="59.275862068965516" y="390.0344827586207" type="line"/>
      <point x="49.172413793103445" y="353.2068965517241"/>
      <point x="42.55172413793103" y="308.7586206896552"/>
      <point x="42.55172413793103" y="265.6551724137931" type="curve" smooth="yes"/>
      <point x="42.55172413793103" y="112.44827586206897"/>
      <point x="131.75862068965517" y="58.103448275862064"/>
      <point x="231.72413793103448" y="58.103448275862064" type="curve" smooth="yes"/>
      <point x="304.7241379310345" y="58.103448275862064"/>
      <point x="352.7931034482759" y="75.20689655172414"/>
      <point x="420.44827586206895" y="75.20689655172414" type="curve" smooth="yes"/>
      <point x="466.58620689655174" y="75.20689655172414"/>
      <point x="497.55172413793105" y="62.206896551724135"/>
      <point x="532.7931034482758" y="14.068965517241379" type="curve"/>
    </contour>
  </outline>
</glyph>
<glyph name="ai-beng" format="2">
  <advance width="777.2413793103449"/>
  <unicode hex="0990"/>
  <anchor x="529.7931034482758" y="601.8620689655172" name="top"/>
  <anchor x="487.58620689655174" y="600.1379310344828" name="topright"/>
  <anchor x="388.3103448275862" y="0.0" name="vedic"/>
  <anchor x="594.7241379310345" y="0.0" name="bottom"/>
  <anchor x="594.7241379310345" y="-1.9655172413793105" name="bottom.rvocalic"/>
  <anchor x="574.7241379310345" y="7.241379310344827" name="bottom.virama"/>
  <outline>
    <contour>
      <point x="584.2413793103449" y="314.7586206896552" type="line"/>
      <point x="649.551724137931" y="374.0689655172414"/>
      <point x="709.0689655172414" y="451.7931034482759"/>
      <point x="709.0689655172414" y="564.1379310344828" type="curve" smooth="yes"/>
      <point x="709.0689655172414" y="748.8965517241379"/>
      <point x="562.1379310344828" y="768.4137931034483"/>
      <point x="430.7931034482759" y="787.0344827586207" type="curve" smooth="yes"/>
      <point x="310.9310344827586" y="804.1379310344828"/>
      <point x="233.10344827586206" y="819.2413793103449"/>
      <point x="233.10344827586206" y="905.1379310344828" type="curve" smooth="yes"/>
      <point x="233.10344827586206" y="932.7586206896551"/>
      <point x="239.72413793103448" y="962.6206896551724"/>
      <point x="251.58620689655172" y="988.4827586206897" type="curve"/>
      <point x="201.41379310344828" y="1005.5862068965517" type="line"/>
      <point x="180.93103448275863" y="963.8620689655172"/>
      <point x="170.44827586206895" y="920.2413793103449"/>
      <point x="170.44827586206895" y="878.3103448275862" type="curve" smooth="yes"/>
      <point x="170.44827586206895" y="732.6206896551724"/>
      <point x="300.62068965517244" y="711.5172413793103"/>
      <point x="425.6896551724138" y="695.8965517241379" type="curve" smooth="yes"/>
      <point x="556.3103448275862" y="680.0344827586207"/>
      <point x="654.2758620689655" y="662.6896551724138"/>
      <point x="654.2758620689655" y="553.8965517241379" type="curve" smooth="yes"/>
      <point x="654.2758620689655" y="486.0"/>
      <point x="620.1034482758621" y="438.2413793103448"/>
      <point x="559.3793103448276" y="393.37931034482756" type="curve"/>
    </contour>
    <component base="e-beng"/>
  </outline>
</glyph>
<glyph name="o-beng" format="2">
  <advance width="703.4827586206897"/>
  <unicode hex="0993"/>
  <anchor x="535.448275862069" y="17.275862068965516" name="bottom"/>
  <anchor x="589.0344827586207" y="-0.3793103448275862" name="bottom.rakaar"/>
  <anchor x="516.4137931034483" y="41.89655172413793" name="bottom.rvocalic"/>
  <anchor x="455.7931034482759" y="10.931034482758621" name="bottom.virama"/>
  <anchor x="457.9655172413793" y="542.0689655172414" name="top"/>
  <anchor x="460.9655172413793" y="542.0689655172414" name="topright"/>
  <anchor x="351.55172413793105" y="0.0" name="vedic"/>
  <outline>
    <contour>
      <point x="434.41379310344826" y="40.103448275862064" type="curve" smooth="yes"/>
      <point x="582.1724137931035" y="40.103448275862064"/>
      <point x="662.2068965517242" y="124.75862068965517"/>
      <point x="662.2068965517242" y="234.44827586206895" type="curve" smooth="yes"/>
      <point x="662.2068965517242" y="344.1034482758621"/>
      <point x="566.1379310344828" y="423.44827586206895"/>
      <point x="484.0689655172414" y="423.44827586206895" type="curve" smooth="yes"/>
      <point x="436.2068965517241" y="423.44827586206895"/>
      <point x="404.48275862068965" y="392.48275862068965"/>
      <point x="404.48275862068965" y="344.8965517241379" type="curve" smooth="yes"/>
      <point x="404.48275862068965" y="297.9310344827586"/>
      <point x="434.82758620689657" y="266.2068965517241"/>
      <point x="486.55172413793105" y="266.2068965517241" type="curve" smooth="yes"/>
      <point x="568.8965517241379" y="266.2068965517241"/>
      <point x="637.4827586206897" y="374.62068965517244"/>
      <point x="637.4827586206897" y="474.82758620689657" type="curve" smooth="yes"/>
      <point x="637.4827586206897" y="566.551724137931"/>
      <point x="573.6551724137931" y="630.3793103448276"/>
      <point x="458.1034482758621" y="630.3793103448276" type="curve" smooth="yes"/>
      <point x="308.7586206896552" y="630.3793103448276"/>
      <point x="186.75862068965517" y="532.1034482758621"/>
      <point x="186.75862068965517" y="418.7586206896552" type="curve" smooth="yes"/>
      <point x="186.75862068965517" y="349.6551724137931"/>
      <point x="230.24137931034483" y="313.9310344827586"/>
      <point x="283.0689655172414" y="313.9310344827586" type="curve" smooth="yes"/>
      <point x="337.13793103448273" y="313.9310344827586"/>
      <point x="370.0" y="344.7586206896552"/>
      <point x="370.0" y="397.2413793103448" type="curve" smooth="yes"/>
      <point x="370.0" y="442.2068965517241"/>
      <point x="344.13793103448273" y="468.7241379310345"/>
      <point x="304.2758620689655" y="468.7241379310345" type="curve" smooth="yes"/>
      <point x="281.82758620689657" y="468.7241379310345"/>
      <point x="259.0689655172414" y="458.7586206896552"/>
      <point x="247.79310344827587" y="441.37931034482756" type="curve"/>
      <point x="313.0344827586207" y="421.3103448275862" type="line"/>
      <point x="319.44827586206895" y="501.44827586206895"/>
      <point x="399.2068965517241" y="564.5862068965517"/>
      <point x="483.2758620689655" y="564.5862068965517" type="curve" smooth="yes"/>
      <point x="536.8275862068965" y="564.5862068965517"/>
      <point x="560.6206896551724" y="540.3103448275862"/>
      <point x="560.6206896551724" y="503.62068965517244" type="curve" smooth="yes"/>
      <point x="560.6206896551724" y="458.2068965517241"/>
      <point x="530.1034482758621" y="420.2413793103448"/>
      <point x="484.62068965517244" y="397.44827586206895" type="curve"/>
      <point x="502.7241379310345" y="347.55172413793105" type="line"/>
      <point x="541.0689655172414" y="348.7931034482759"/>
      <point x="595.551724137931" y="322.41379310344826"/>
      <point x="595.551724137931" y="262.7586206896552" type="curve" smooth="yes"/>
      <point x="595.551724137931" y="198.27586206896552"/>
      <point x="538.7241379310345" y="151.58620689655172"/>
      <point x="435.3103448275862" y="151.58620689655172" type="curve" smooth="yes"/>
      <point x="279.8965517241379" y="151.58620689655172"/>
      <point x="153.79310344827587" y="246.51724137931035"/>
      <point x="64.06896551724138" y="539.448275862069" type="curve"/>
      <point x="14.379310344827585" y="525.5862068965517" type="line"/>
      <point x="92.75862068965517" y="190.31034482758622"/>
      <point x="249.20689655172413" y="40.103448275862064"/>
    </contour>
  </outline>
</glyph>
<glyph name="au-beng" format="2">
  <advance width="789.1034482758621"/>
  <unicode hex="0994"/>
  <anchor x="546.6206896551724" y="19.137931034482758" name="bottom"/>
  <anchor x="601.448275862069" y="-1.0" name="bottom.rakaar"/>
  <anchor x="526.9655172413793" y="44.37931034482759" name="bottom.rvocalic"/>
  <anchor x="465.1034482758621" y="11.551724137931034" name="bottom.virama"/>
  <anchor x="570.9655172413793" y="601.8620689655172" name="top"/>
  <anchor x="511.86206896551727" y="600.1379310344828" name="topright"/>
  <anchor x="394.55172413793105" y="0.0" name="vedic"/>
  <outline>
    <contour>
      <point x="596.1034482758621" y="321.58620689655174" type="line"/>
      <point x="661.4137931034483" y="380.8965517241379"/>
      <point x="720.9310344827586" y="455.51724137931035"/>
      <point x="720.9310344827586" y="565.7586206896551" type="curve" smooth="yes"/>
      <point x="720.9310344827586" y="747.7931034482758"/>
      <point x="572.1034482758621" y="768.7931034482758"/>
      <point x="442.0344827586207" y="787.0344827586207" type="curve" smooth="yes"/>
      <point x="337.6896551724138" y="801.6551724137931"/>
      <point x="244.9655172413793" y="814.2758620689655"/>
      <point x="244.9655172413793" y="905.1379310344828" type="curve" smooth="yes"/>
      <point x="244.9655172413793" y="932.7586206896551"/>
      <point x="251.58620689655172" y="962.6206896551724"/>
      <point x="263.44827586206895" y="988.4827586206897" type="curve"/>
      <point x="213.27586206896552" y="1005.5862068965517" type="line"/>
      <point x="192.79310344827587" y="963.8620689655172"/>
      <point x="182.31034482758622" y="920.2413793103449"/>
      <point x="182.31034482758622" y="878.3103448275862" type="curve" smooth="yes"/>
      <point x="182.31034482758622" y="732.6206896551724"/>
      <point x="312.48275862068965" y="711.5172413793103"/>
      <point x="437.17241379310343" y="695.8965517241379" type="curve" smooth="yes"/>
      <point x="553.8965517241379" y="680.8965517241379"/>
      <point x="666.1379310344828" y="667.0344827586207"/>
      <point x="666.1379310344828" y="552.6551724137931" type="curve" smooth="yes"/>
      <point x="666.1379310344828" y="477.86206896551727"/>
      <point x="630.9655172413793" y="433.3448275862069"/>
      <point x="570.8620689655172" y="387.86206896551727" type="curve"/>
    </contour>
    <component base="o-beng"/>
  </outline>
</glyph>
<glyph name="ka-beng" format="2">
  <advance width="727.8275862068965"/>
  <unicode hex="0995"/>
  <anchor x="445.86206896551727" y="32.48275862068966" name="bottom"/>
  <anchor x="452.7241379310345" y="28.413793103448278" name="bottom.rakaar"/>
  <anchor x="452.7241379310345" y="11.379310344827585" name="bottom.rvocalic"/>
  <anchor x="439.55172413793105" y="-8.275862068965518" name="bottom.virama"/>
  <anchor x="214.55172413793105" y="51.86206896551724" name="nukta"/>
  <anchor x="439.6896551724138" y="578.0689655172414" name="top"/>
  <anchor x="442.0689655172414" y="570.6206896551724" name="topright"/>
  <anchor x="363.41379310344826" y="0.0" name="vedic"/>
  <outline>
    <contour>
      <point x="445.2413793103448" y="-19.82758620689655" type="line"/>
      <point x="452.7241379310345" y="-18.20689655172414" type="line"/>
      <point x="452.7241379310345" y="425.9310344827586" type="line"/>
      <point x="436.48275862068965" y="402.0689655172414" type="line"/>
      <point x="442.1034482758621" y="404.0689655172414"/>
      <point x="449.1034482758621" y="405.0689655172414"/>
      <point x="454.7241379310345" y="405.0689655172414" type="curve" smooth="yes"/>
      <point x="574.2758620689655" y="405.0689655172414"/>
      <point x="650.4827586206897" y="338.37931034482756"/>
      <point x="650.4827586206897" y="268.86206896551727" type="curve" smooth="yes"/>
      <point x="650.4827586206897" y="253.86206896551724"/>
      <point x="647.1034482758621" y="244.24137931034483"/>
      <point x="638.1034482758621" y="231.6206896551724" type="curve"/>
      <point x="656.8620689655172" y="232.6206896551724" type="line"/>
      <point x="648.9655172413793" y="275.7241379310345"/>
      <point x="623.4827586206897" y="297.2068965517241"/>
      <point x="584.6551724137931" y="297.2068965517241" type="curve" smooth="yes"/>
      <point x="539.1724137931035" y="297.2068965517241"/>
      <point x="510.9655172413793" y="265.2068965517241"/>
      <point x="510.9655172413793" y="221.6206896551724" type="curve" smooth="yes"/>
      <point x="510.9655172413793" y="177.9310344827586"/>
      <point x="537.9310344827586" y="139.31034482758622"/>
      <point x="595.0344827586207" y="139.31034482758622" type="curve" smooth="yes"/>
      <point x="661.2413793103449" y="139.31034482758622"/>
      <point x="699.9310344827586" y="192.9310344827586"/>
      <point x="699.9310344827586" y="276.9655172413793" type="curve" smooth="yes"/>
      <point x="699.9310344827586" y="399.8965517241379"/>
      <point x="598.3103448275862" y="508.17241379310343"/>
      <point x="438.1034482758621" y="519.0344827586207" type="curve"/>
      <point x="452.7241379310345" y="494.41379310344826" type="line"/>
      <point x="452.7241379310345" y="557.5862068965517" type="line"/>
      <point x="760.551724137931" y="557.5862068965517" type="line"/>
      <point x="722.2068965517242" y="622.0" type="line"/>
      <point x="-32.724137931034484" y="622.0" type="line"/>
      <point x="6.241379310344827" y="557.5862068965517" type="line"/>
      <point x="376.37931034482756" y="557.5862068965517" type="line"/>
      <point x="376.37931034482756" y="480.7586206896552" type="line"/>
      <point x="384.86206896551727" y="520.2758620689655" type="line"/>
      <point x="249.6206896551724" y="479.48275862068965"/>
      <point x="132.9655172413793" y="425.13793103448273"/>
      <point x="16.93103448275862" y="349.86206896551727" type="curve"/>
      <point x="66.62068965517241" y="215.75862068965517" type="line"/>
      <point x="204.86206896551724" y="199.0"/>
      <point x="312.58620689655174" y="134.06896551724137"/>
      <point x="384.58620689655174" y="20.896551724137932" type="curve"/>
    </contour>
    <contour>
      <point x="376.37931034482756" y="77.20689655172414" type="line"/>
      <point x="387.7241379310345" y="96.3103448275862" type="line"/>
      <point x="320.8965517241379" y="222.31034482758622"/>
      <point x="214.44827586206895" y="281.0689655172414"/>
      <point x="123.41379310344828" y="303.44827586206895" type="curve"/>
      <point x="132.93103448275863" y="280.0689655172414" type="line"/>
      <point x="208.10344827586206" y="331.37931034482756"/>
      <point x="305.2758620689655" y="376.6551724137931"/>
      <point x="391.48275862068965" y="404.82758620689657" type="curve"/>
      <point x="376.37931034482756" y="433.37931034482756" type="line"/>
    </contour>
  </outline>
</glyph>
<glyph name="kha-beng" format="2">
  <advance width="633.2068965517242"/>
  <unicode hex="0996"/>
  <anchor x="545.7241379310345" y="32.48275862068966" name="bottom"/>
  <anchor x="553.2068965517242" y="80.55172413793103" name="bottom.rakaar"/>
  <anchor x="553.2068965517242" y="11.379310344827585" name="bottom.rvocalic"/>
  <anchor x="533.2068965517242" y="10.96551724137931" name="bottom.virama"/>
  <anchor x="538.9310344827586" y="568.0689655172414" name="top"/>
  <anchor x="515.7586206896551" y="559.448275862069" name="topright"/>
  <anchor x="296.41379310344826" y="0.0" name="vedic"/>
  <outline>
    <contour>
      <point x="545.7241379310345" y="-19.82758620689655" type="line"/>
      <point x="553.2068965517242" y="-18.20689655172414" type="line"/>
      <point x="553.2068965517242" y="557.5862068965517" type="line"/>
      <point x="665.9310344827586" y="557.5862068965517" type="line"/>
      <point x="625.9655172413793" y="622.0" type="line"/>
      <point x="548.8620689655172" y="622.0" type="line"/>
      <point x="542.3793103448276" y="672.448275862069" type="line"/>
      <point x="482.7241379310345" y="707.3103448275862" type="line"/>
      <point x="476.86206896551727" y="705.0689655172414" type="line"/>
      <point x="476.86206896551727" y="74.10344827586206" type="line"/>
      <point x="488.2068965517241" y="90.72413793103448" type="line"/>
      <point x="430.3103448275862" y="203.3448275862069"/>
      <point x="346.7931034482759" y="263.51724137931035"/>
      <point x="246.44827586206895" y="297.17241379310343" type="curve"/>
      <point x="257.2068965517241" y="261.82758620689657" type="line"/>
      <point x="365.48275862068965" y="284.0689655172414"/>
      <point x="420.13793103448273" y="337.9310344827586"/>
      <point x="420.13793103448273" y="439.44827586206895" type="curve" smooth="yes"/>
      <point x="420.13793103448273" y="532.2413793103449"/>
      <point x="357.86206896551727" y="591.9655172413793"/>
      <point x="308.7931034482759" y="629.3448275862069" type="curve"/>
      <point x="252.6206896551724" y="548.4137931034483"/>
      <point x="193.9655172413793" y="503.58620689655174"/>
      <point x="143.93103448275863" y="503.58620689655174" type="curve" smooth="yes"/>
      <point x="131.55172413793105" y="503.58620689655174"/>
      <point x="120.06896551724138" y="505.9655172413793"/>
      <point x="113.44827586206897" y="509.9655172413793" type="curve"/>
      <point x="145.24137931034483" y="474.7586206896552" type="line"/>
      <point x="164.48275862068965" y="491.37931034482756"/>
      <point x="171.10344827586206" y="506.62068965517244"/>
      <point x="171.10344827586206" y="533.8620689655172" type="curve" smooth="yes"/>
      <point x="171.10344827586206" y="569.4827586206897"/>
      <point x="146.48275862068965" y="598.8275862068965"/>
      <point x="100.27586206896552" y="598.8275862068965" type="curve" smooth="yes"/>
      <point x="52.793103448275865" y="598.8275862068965"/>
      <point x="24.448275862068964" y="568.7241379310345"/>
      <point x="24.448275862068964" y="520.2413793103449" type="curve" smooth="yes"/>
      <point x="24.448275862068964" y="443.8965517241379"/>
      <point x="80.06896551724138" y="408.9310344827586"/>
      <point x="141.3793103448276" y="408.9310344827586" type="curve" smooth="yes"/>
      <point x="218.0344827586207" y="408.9310344827586"/>
      <point x="296.51724137931035" y="454.2413793103448"/>
      <point x="351.0344827586207" y="539.2068965517242" type="curve"/>
      <point x="307.55172413793105" y="542.2758620689655" type="line"/>
      <point x="330.55172413793105" y="521.2758620689655"/>
      <point x="345.0344827586207" y="497.2758620689655"/>
      <point x="345.0344827586207" y="464.37931034482756" type="curve" smooth="yes"/>
      <point x="345.0344827586207" y="377.86206896551727"/>
      <point x="238.06896551724137" y="341.86206896551727"/>
      <point x="120.41379310344827" y="341.86206896551727" type="curve"/>
      <point x="166.6206896551724" y="214.75862068965517" type="line"/>
      <point x="308.41379310344826" y="200.24137931034483"/>
      <point x="415.9310344827586" y="132.82758620689654"/>
      <point x="485.0689655172414" y="20.275862068965516" type="curve"/>
    </contour>
  </outline>
</glyph>
<glyph name="ga-beng" format="2">
  <advance width="626.6551724137931"/>
  <unicode hex="0997"/>
  <anchor x="531.3103448275862" y="53.96551724137931" name="bottom"/>
  <anchor x="546.6551724137931" y="-10.448275862068966" name="bottom.rakaar"/>
  <anchor x="546.6551724137931" y="-2.6206896551724137" name="bottom.rvocalic"/>
  <anchor x="519.2068965517242" y="7.241379310344827" name="bottom.virama"/>
  <anchor x="532.3793103448276" y="568.0689655172414" name="top"/>
  <anchor x="509.2068965517241" y="559.448275862069" name="topright"/>
  <anchor x="313.13793103448273" y="0.0" name="vedic"/>
  <outline>
    <contour>
      <point x="540.551724137931" y="-31.20689655172414" type="line"/>
      <point x="546.6551724137931" y="-29.586206896551722" type="line"/>
      <point x="546.6551724137931" y="557.5862068965517" type="line"/>
      <point x="659.3793103448276" y="557.5862068965517" type="line"/>
      <point x="619.4137931034483" y="622.0" type="line"/>
      <point x="542.3103448275862" y="622.0" type="line"/>
      <point x="536.448275862069" y="672.448275862069" type="line"/>
      <point x="476.7931034482759" y="707.3103448275862" type="line"/>
      <point x="470.9310344827586" y="705.0689655172414" type="line"/>
      <point x="470.9310344827586" y="580.4827586206897" type="line" smooth="yes"/>
      <point x="470.9310344827586" y="530.9310344827586"/>
      <point x="474.3103448275862" y="471.7931034482759"/>
      <point x="479.17241379310343" y="428.17241379310343" type="curve"/>
      <point x="490.7931034482759" y="428.7931034482759" type="line"/>
      <point x="421.62068965517244" y="571.7586206896551"/>
      <point x="339.7931034482759" y="632.1034482758621"/>
      <point x="248.06896551724137" y="632.1034482758621" type="curve" smooth="yes"/>
      <point x="159.0344827586207" y="632.1034482758621"/>
      <point x="73.6896551724138" y="577.1724137931035"/>
      <point x="6.310344827586206" y="450.0344827586207" type="curve"/>
      <point x="90.06896551724138" y="366.8965517241379" type="line"/>
      <point x="130.9655172413793" y="398.7931034482759"/>
      <point x="173.20689655172413" y="419.37931034482756"/>
      <point x="214.20689655172413" y="419.37931034482756" type="curve" smooth="yes"/>
      <point x="250.86206896551724" y="419.37931034482756"/>
      <point x="269.86206896551727" y="400.1034482758621"/>
      <point x="269.86206896551727" y="368.7241379310345" type="curve" smooth="yes"/>
      <point x="269.86206896551727" y="324.82758620689657"/>
      <point x="217.3448275862069" y="287.9310344827586"/>
      <point x="125.75862068965517" y="258.0344827586207" type="curve"/>
      <point x="195.68965517241378" y="145.9310344827586" type="line"/>
      <point x="313.2068965517241" y="206.44827586206895"/>
      <point x="355.9310344827586" y="274.2413793103448"/>
      <point x="355.9310344827586" y="353.1034482758621" type="curve" smooth="yes"/>
      <point x="355.9310344827586" y="425.44827586206895"/>
      <point x="310.0689655172414" y="481.9310344827586"/>
      <point x="229.86206896551724" y="481.9310344827586" type="curve" smooth="yes"/>
      <point x="179.86206896551724" y="481.9310344827586"/>
      <point x="145.0" y="465.9310344827586"/>
      <point x="120.89655172413794" y="451.44827586206895" type="curve"/>
      <point x="141.0344827586207" y="432.0" type="line"/>
      <point x="175.20689655172413" y="503.7241379310345"/>
      <point x="225.55172413793105" y="537.9655172413793"/>
      <point x="273.86206896551727" y="537.9655172413793" type="curve" smooth="yes"/>
      <point x="343.51724137931035" y="537.9655172413793"/>
      <point x="409.7586206896552" y="496.2413793103448"/>
      <point x="485.3103448275862" y="344.86206896551727" type="curve"/>
      <point x="470.9310344827586" y="407.58620689655174" type="line"/>
      <point x="470.9310344827586" y="1.7586206896551724" type="line"/>
    </contour>
  </outline>
</glyph>
<glyph name="gha-beng" format="2">
  <advance width="553.3103448275862"/>
  <unicode hex="0998"/>
  <anchor x="467.0689655172414" y="32.48275862068966" name="bottom"/>
  <anchor x="473.9310344827586" y="80.55172413793103" name="bottom.rakaar"/>
  <anchor x="473.9310344827586" y="11.379310344827585" name="bottom.rvocalic"/>
  <anchor x="453.9310344827586" y="10.96551724137931" name="bottom.virama"/>
  <anchor x="460.8965517241379" y="578.0689655172414" name="top"/>
  <anchor x="463.2758620689655" y="570.6206896551724" name="topright"/>
  <anchor x="276.6551724137931" y="0.0" name="vedic"/>
  <outline>
    <contour>
      <point x="466.44827586206895" y="-19.82758620689655" type="line"/>
      <point x="473.9310344827586" y="-18.20689655172414" type="line"/>
      <point x="473.9310344827586" y="557.5862068965517" type="line"/>
      <point x="586.0344827586207" y="557.5862068965517" type="line"/>
      <point x="547.0689655172414" y="622.0" type="line"/>
      <point x="-32.724137931034484" y="622.0" type="line"/>
      <point x="6.241379310344827" y="557.5862068965517" type="line"/>
      <point x="397.58620689655174" y="557.5862068965517" type="line"/>
      <point x="397.58620689655174" y="74.10344827586206" type="line"/>
      <point x="408.9310344827586" y="90.72413793103448" type="line"/>
      <point x="343.58620689655174" y="213.13793103448276"/>
      <point x="249.82758620689654" y="259.41379310344826"/>
      <point x="119.17241379310344" y="297.17241379310343" type="curve"/>
      <point x="141.72413793103448" y="262.2413793103448" type="line"/>
      <point x="202.17241379310346" y="306.0344827586207"/>
      <point x="279.37931034482756" y="341.13793103448273"/>
      <point x="356.86206896551727" y="374.7586206896552" type="curve"/>
      <point x="307.0344827586207" y="468.13793103448273" type="line"/>
      <point x="277.0" y="449.0"/>
      <point x="245.20689655172413" y="438.62068965517244"/>
      <point x="215.3448275862069" y="438.62068965517244" type="curve" smooth="yes"/>
      <point x="175.44827586206895" y="438.62068965517244"/>
      <point x="152.44827586206895" y="461.8965517241379"/>
      <point x="152.44827586206895" y="494.2758620689655" type="curve" smooth="yes"/>
      <point x="152.44827586206895" y="536.2068965517242"/>
      <point x="182.3793103448276" y="557.5862068965517"/>
      <point x="220.79310344827587" y="568.2068965517242" type="curve"/>
      <point x="117.44827586206897" y="611.4137931034483" type="line"/>
      <point x="83.13793103448276" y="599.8275862068965"/>
      <point x="36.6551724137931" y="568.448275862069"/>
      <point x="36.6551724137931" y="509.7586206896552" type="curve" smooth="yes"/>
      <point x="36.6551724137931" y="435.55172413793105"/>
      <point x="105.24137931034483" y="397.8965517241379"/>
      <point x="182.27586206896552" y="389.62068965517244" type="curve"/>
      <point x="177.13793103448276" y="411.7241379310345" type="line"/>
      <point x="135.17241379310346" y="391.3448275862069"/>
      <point x="83.62068965517241" y="366.37931034482756"/>
      <point x="38.758620689655174" y="337.37931034482756" type="curve"/>
      <point x="90.3103448275862" y="207.0" type="line"/>
      <point x="220.20689655172413" y="194.3448275862069"/>
      <point x="337.2758620689655" y="132.20689655172413"/>
      <point x="405.7931034482759" y="20.275862068965516" type="curve"/>
    </contour>
  </outline>
</glyph>
<glyph name="nga-beng" format="2">
  <advance width="623.6896551724138"/>
  <unicode hex="0999"/>
  <anchor x="420.2758620689655" y="10.96551724137931" name="bottom"/>
  <anchor x="534.0689655172414" y="-12.551724137931034" name="bottom.rakaar"/>
  <anchor x="441.51724137931035" y="-2.9655172413793096" name="bottom.rvocalic"/>
  <anchor x="397.1034482758621" y="0.0" name="bottom.virama"/>
  <anchor x="363.0344827586207" y="578.0689655172414" name="top"/>
  <anchor x="346.58620689655174" y="570.6206896551724" name="topright"/>
  <anchor x="311.3448275862069" y="0.0" name="vedic"/>
  <outline>
    <contour>
      <point x="371.0689655172414" y="16.137931034482758" type="curve" smooth="yes"/>
      <point x="518.1034482758621" y="16.137931034482758"/>
      <point x="589.2413793103449" y="121.06896551724138"/>
      <point x="589.2413793103449" y="253.24137931034483" type="curve" smooth="yes"/>
      <point x="589.2413793103449" y="336.44827586206895"/>
      <point x="553.551724137931" y="404.55172413793105"/>
      <point x="509.2758620689655" y="450.58620689655174" type="curve"/>
      <point x="454.0344827586207" y="379.2758620689655"/>
      <point x="384.55172413793105" y="322.3448275862069"/>
      <point x="327.7586206896552" y="322.3448275862069" type="curve" smooth="yes"/>
      <point x="310.13793103448273" y="322.3448275862069"/>
      <point x="299.2758620689655" y="332.3448275862069"/>
      <point x="299.2758620689655" y="352.2068965517241" type="curve" smooth="yes"/>
      <point x="299.2758620689655" y="465.62068965517244" type="line" smooth="yes"/>
      <point x="299.2758620689655" y="536.448275862069"/>
      <point x="321.17241379310343" y="569.448275862069"/>
      <point x="363.6896551724138" y="569.448275862069" type="curve" smooth="yes"/>
      <point x="395.2068965517241" y="569.448275862069"/>
      <point x="414.2413793103448" y="552.0689655172414"/>
      <point x="414.2413793103448" y="526.7931034482758" type="curve" smooth="yes"/>
      <point x="414.2413793103448" y="498.7931034482759"/>
      <point x="399.37931034482756" y="472.2758620689655"/>
      <point x="340.3448275862069" y="472.2758620689655" type="curve" smooth="yes"/>
      <point x="236.55172413793105" y="472.2758620689655"/>
      <point x="197.20689655172413" y="522.6551724137931"/>
      <point x="149.72413793103448" y="623.8620689655172" type="curve"/>
      <point x="103.89655172413794" y="603.2413793103449" type="line"/>
      <point x="154.6206896551724" y="489.17241379310343"/>
      <point x="217.6206896551724" y="404.58620689655174"/>
      <point x="341.0689655172414" y="404.58620689655174" type="curve" smooth="yes"/>
      <point x="444.7241379310345" y="404.58620689655174"/>
      <point x="480.13793103448273" y="465.0689655172414"/>
      <point x="480.51724137931035" y="518.8965517241379" type="curve" smooth="yes"/>
      <point x="480.8965517241379" y="583.3793103448276"/>
      <point x="439.51724137931035" y="633.2413793103449"/>
      <point x="359.0689655172414" y="633.2413793103449" type="curve" smooth="yes"/>
      <point x="272.7241379310345" y="633.2413793103449"/>
      <point x="224.0344827586207" y="573.2758620689655"/>
      <point x="224.0344827586207" y="476.9310344827586" type="curve" smooth="yes"/>
      <point x="224.0344827586207" y="343.51724137931035" type="line" smooth="yes"/>
      <point x="224.0344827586207" y="302.0689655172414"/>
      <point x="240.75862068965517" y="272.9655172413793"/>
      <point x="263.37931034482756" y="252.3448275862069" type="curve" smooth="yes"/>
      <point x="285.7241379310345" y="231.6206896551724"/>
      <point x="315.2068965517241" y="220.6206896551724"/>
      <point x="350.55172413793105" y="220.6206896551724" type="curve" smooth="yes"/>
      <point x="414.7586206896552" y="220.6206896551724"/>
      <point x="493.44827586206895" y="273.48275862068965"/>
      <point x="540.1379310344828" y="334.86206896551727" type="curve"/>
      <point x="495.6896551724138" y="362.2758620689655" type="line"/>
      <point x="514.6896551724138" y="337.41379310344826"/>
      <point x="527.9310344827586" y="307.9310344827586"/>
      <point x="527.9310344827586" y="271.8965517241379" type="curve" smooth="yes"/>
      <point x="527.9310344827586" y="188.3793103448276"/>
      <point x="471.9310344827586" y="129.10344827586206"/>
      <point x="366.7241379310345" y="129.10344827586206" type="curve" smooth="yes"/>
      <point x="216.86206896551724" y="129.10344827586206"/>
      <point x="133.9655172413793" y="234.51724137931035"/>
      <point x="57.44827586206897" y="493.2413793103448" type="curve"/>
      <point x="7.517241379310345" y="479.37931034482756" type="line"/>
      <point x="80.41379310344827" y="167.68965517241378"/>
      <point x="192.93103448275863" y="16.137931034482758"/>
    </contour>
  </outline>
</glyph>
<glyph name="ca-beng" format="2">
  <advance width="513.5172413793103"/>
  <unicode hex="099A"/>
  <anchor x="341.7241379310345" y="15.724137931034482" name="bottom"/>
  <anchor x="406.0" y="0.0" name="bottom.rakaar"/>
  <anchor x="348.8965517241379" y="4.896551724137929" name="bottom.rvocalic"/>
  <anchor x="273.8965517241379" y="30.413793103448278" name="bottom.virama"/>
  <anchor x="143.31034482758622" y="578.0689655172414" name="top"/>
  <anchor x="145.68965517241378" y="570.6206896551724" name="topright"/>
  <anchor x="256.7586206896552" y="0.0" name="vedic"/>
  <outline>
    <contour>
      <point x="225.24137931034483" y="15.482758620689655" type="curve" smooth="yes"/>
      <point x="376.37931034482756" y="15.482758620689655"/>
      <point x="473.2758620689655" y="201.82758620689654"/>
      <point x="473.2758620689655" y="311.44827586206895" type="curve" smooth="yes"/>
      <point x="473.2758620689655" y="362.62068965517244"/>
      <point x="429.7241379310345" y="397.2068965517241"/>
      <point x="405.37931034482756" y="410.44827586206895" type="curve"/>
      <point x="323.0344827586207" y="416.9655172413793"/>
      <point x="209.10344827586206" y="451.86206896551727"/>
      <point x="149.72413793103448" y="557.4137931034483" type="curve"/>
      <point x="149.48275862068965" y="480.82758620689657" type="line"/>
      <point x="191.3793103448276" y="387.2068965517241"/>
      <point x="274.7241379310345" y="321.0"/>
      <point x="399.1034482758621" y="309.7241379310345" type="curve"/>
      <point x="363.58620689655174" y="345.7586206896552" type="line"/>
      <point x="355.58620689655174" y="210.79310344827587"/>
      <point x="275.44827586206895" y="102.96551724137932"/>
      <point x="211.27586206896552" y="102.96551724137932" type="curve" smooth="yes"/>
      <point x="177.24137931034483" y="102.96551724137932"/>
      <point x="155.72413793103448" y="120.10344827586206"/>
      <point x="155.72413793103448" y="153.13793103448276" type="curve" smooth="yes"/>
      <point x="155.72413793103448" y="557.5862068965517" type="line"/>
      <point x="546.2413793103449" y="557.5862068965517" type="line"/>
      <point x="507.8965517241379" y="622.0" type="line"/>
      <point x="-32.724137931034484" y="622.0" type="line"/>
      <point x="8.241379310344827" y="557.5862068965517" type="line"/>
      <point x="80.0" y="557.5862068965517" type="line"/>
      <point x="80.0" y="153.13793103448276" type="line" smooth="yes"/>
      <point x="80.0" y="73.55172413793103"/>
      <point x="147.6551724137931" y="15.482758620689655"/>
    </contour>
  </outline>
</glyph>
<glyph name="cha-beng" format="2">
  <advance width="547.8965517241379"/>
  <unicode hex="099B"/>
  <anchor x="335.48275862068965" y="25.620689655172413" name="bottom"/>
  <anchor x="466.7241379310345" y="-120.9655172413793" name="bottom.rakaar"/>
  <anchor x="410.41379310344826" y="16.86206896551724" name="bottom.rvocalic"/>
  <anchor x="325.7241379310345" y="21.206896551724135" name="bottom.virama"/>
  <anchor x="120.62068965517241" y="578.0689655172414" name="top"/>
  <anchor x="123.0" y="570.6206896551724" name="topright"/>
  <anchor x="273.44827586206895" y="0.0" name="vedic"/>
  <outline>
    <contour>
      <point x="538.6206896551724" y="-120.0" type="curve"/>
      <point x="573.9655172413793" y="-82.0344827586207" type="line"/>
      <point x="488.2413793103448" y="5.896551724137929"/>
      <point x="365.0" y="95.37931034482759"/>
      <point x="246.93103448275863" y="121.75862068965517" type="curve"/>
      <point x="235.93103448275863" y="88.06896551724138" type="line"/>
      <point x="245.68965517241378" y="84.06896551724138"/>
      <point x="270.7586206896552" y="81.20689655172413"/>
      <point x="294.2413793103448" y="81.20689655172413" type="curve" smooth="yes"/>
      <point x="411.86206896551727" y="81.20689655172413"/>
      <point x="508.9310344827586" y="156.41379310344828"/>
      <point x="508.9310344827586" y="293.0" type="curve" smooth="yes"/>
      <point x="508.9310344827586" y="417.2413793103448"/>
      <point x="415.8965517241379" y="491.8965517241379"/>
      <point x="304.1034482758621" y="491.8965517241379" type="curve" smooth="yes"/>
      <point x="219.27586206896552" y="491.8965517241379"/>
      <point x="164.44827586206895" y="507.8965517241379"/>
      <point x="127.0344827586207" y="558.2068965517242" type="curve"/>
      <point x="123.41379310344827" y="511.7241379310345" type="line"/>
      <point x="154.41379310344828" y="452.48275862068965"/>
      <point x="220.20689655172413" y="415.55172413793105"/>
      <point x="284.13793103448273" y="410.0689655172414" type="curve"/>
      <point x="253.6551724137931" y="453.7931034482759" type="line"/>
      <point x="249.75862068965517" y="366.0"/>
      <point x="216.24137931034483" y="306.51724137931035"/>
      <point x="169.82758620689654" y="306.51724137931035" type="curve" smooth="yes"/>
      <point x="146.0344827586207" y="306.51724137931035"/>
      <point x="133.0344827586207" y="321.7931034482759"/>
      <point x="133.0344827586207" y="342.0689655172414" type="curve" smooth="yes"/>
      <point x="133.0344827586207" y="557.5862068965517" type="line"/>
      <point x="580.6206896551724" y="557.5862068965517" type="line"/>
      <point x="541.0344827586207" y="622.0" type="line"/>
      <point x="-32.724137931034484" y="622.0" type="line"/>
      <point x="6.241379310344827" y="557.5862068965517" type="line"/>
      <point x="57.310344827586206" y="557.5862068965517" type="line"/>
      <point x="57.310344827586206" y="343.3103448275862" type="line" smooth="yes"/>
      <point x="57.310344827586206" y="284.9655172413793"/>
      <point x="114.96551724137932" y="227.86206896551724"/>
      <point x="185.93103448275863" y="227.86206896551724" type="curve" smooth="yes"/>
      <point x="276.62068965517244" y="227.86206896551724"/>
      <point x="346.2413793103448" y="287.9310344827586"/>
      <point x="367.8965517241379" y="452.7241379310345" type="curve"/>
      <point x="320.41379310344826" y="426.9655172413793" type="line"/>
      <point x="371.13793103448273" y="426.9655172413793"/>
      <point x="431.44827586206895" y="400.2068965517241"/>
      <point x="431.44827586206895" y="318.41379310344826" type="curve" smooth="yes"/>
      <point x="431.44827586206895" y="236.6551724137931"/>
      <point x="366.51724137931035" y="178.68965517241378"/>
      <point x="249.27586206896552" y="178.68965517241378" type="curve" smooth="yes"/>
      <point x="194.6551724137931" y="178.68965517241378"/>
      <point x="139.82758620689654" y="185.93103448275863"/>
      <point x="87.93103448275862" y="208.27586206896552" type="curve"/>
      <point x="115.37931034482759" y="74.89655172413794" type="line"/>
      <point x="271.9655172413793" y="50.137931034482754"/>
      <point x="389.55172413793105" y="6.724137931034484"/>
    </contour>
  </outline>
</glyph>
<glyph name="ja-beng" format="2">
  <advance width="812.7241379310345"/>
  <unicode hex="099C"/>
  <anchor x="717.7586206896551" y="58.44827586206897" name="bottom"/>
  <anchor x="731.1379310344828" y="59.44827586206897" name="bottom.rakaar"/>
  <anchor x="729.3793103448276" y="-12.689655172413794" name="bottom.rvocalic"/>
  <anchor x="711.6206896551724" y="-19.862068965517242" name="bottom.virama"/>
  <anchor x="446.7931034482759" y="578.0689655172414" name="top"/>
  <anchor x="448.55172413793105" y="570.6206896551724" name="topright"/>
  <anchor x="406.17241379310343" y="0.0" name="vedic"/>
  <outline>
    <contour>
      <point x="355.0344827586207" y="14.793103448275858" type="curve" smooth="yes"/>
      <point x="495.3448275862069" y="14.793103448275858"/>
      <point x="557.8275862068965" y="106.0"/>
      <point x="557.8275862068965" y="228.79310344827587" type="curve" smooth="yes"/>
      <point x="557.8275862068965" y="308.9310344827586"/>
      <point x="526.6896551724138" y="376.7586206896552"/>
      <point x="473.8965517241379" y="424.9310344827586" type="curve"/>
      <point x="423.55172413793105" y="360.17241379310343"/>
      <point x="377.7931034482759" y="323.2758620689655"/>
      <point x="334.8965517241379" y="323.2758620689655" type="curve" smooth="yes"/>
      <point x="299.62068965517244" y="323.2758620689655"/>
      <point x="275.86206896551727" y="342.41379310344826"/>
      <point x="275.86206896551727" y="377.44827586206895" type="curve" smooth="yes"/>
      <point x="275.86206896551727" y="439.86206896551727"/>
      <point x="360.51724137931035" y="505.9310344827586"/>
      <point x="474.6551724137931" y="557.5862068965517" type="curve"/>
      <point x="845.448275862069" y="557.5862068965517" type="line"/>
      <point x="807.1034482758621" y="622.0" type="line"/>
      <point x="-32.724137931034484" y="622.0" type="line"/>
      <point x="6.241379310344827" y="557.5862068965517" type="line"/>
      <point x="343.86206896551727" y="557.5862068965517" type="line"/>
      <point x="320.0344827586207" y="581.7586206896551" type="line"/>
      <point x="255.20689655172413" y="541.1724137931035"/>
      <point x="194.13793103448276" y="474.48275862068965"/>
      <point x="194.13793103448276" y="392.48275862068965" type="curve" smooth="yes"/>
      <point x="194.13793103448276" y="296.55172413793105"/>
      <point x="262.9310344827586" y="223.06896551724137"/>
      <point x="347.2758620689655" y="223.06896551724137" type="curve" smooth="yes"/>
      <point x="412.41379310344826" y="223.06896551724137"/>
      <point x="472.7586206896552" y="264.7241379310345"/>
      <point x="517.4827586206897" y="325.17241379310343" type="curve"/>
      <point x="472.41379310344826" y="338.62068965517244" type="line"/>
      <point x="488.8965517241379" y="315.7586206896552"/>
      <point x="501.7586206896552" y="288.7586206896552"/>
      <point x="501.7586206896552" y="251.75862068965517" type="curve" smooth="yes"/>
      <point x="501.7586206896552" y="184.0344827586207"/>
      <point x="450.82758620689657" y="129.3448275862069"/>
      <point x="355.8965517241379" y="129.3448275862069" type="curve" smooth="yes"/>
      <point x="210.58620689655172" y="129.3448275862069"/>
      <point x="127.10344827586206" y="244.79310344827587"/>
      <point x="65.58620689655173" y="487.0344827586207" type="curve"/>
      <point x="16.896551724137932" y="473.7931034482759" type="line"/>
      <point x="77.17241379310344" y="162.6551724137931"/>
      <point x="181.55172413793105" y="14.793103448275858"/>
    </contour>
    <contour>
      <point x="682.3103448275862" y="-46.275862068965516" type="curve"/>
      <point x="729.3793103448276" y="-27.03448275862069" type="line"/>
      <point x="706.6551724137931" y="40.6551724137931"/>
      <point x="699.8965517241379" y="99.79310344827586"/>
      <point x="699.8965517241379" y="161.89655172413794" type="curve" smooth="yes"/>
      <point x="699.8965517241379" y="235.89655172413794"/>
      <point x="727.7586206896551" y="313.58620689655174"/>
      <point x="779.8620689655172" y="386.0689655172414" type="curve"/>
      <point x="722.8275862068965" y="467.1034482758621" type="line"/>
      <point x="598.7241379310345" y="462.41379310344826"/>
      <point x="520.7586206896551" y="498.86206896551727"/>
      <point x="475.9655172413793" y="594.3103448275862" type="curve"/>
      <point x="434.13793103448273" y="553.9310344827586" type="line"/>
      <point x="485.2758620689655" y="430.7586206896552"/>
      <point x="587.3448275862069" y="377.7931034482759"/>
      <point x="686.448275862069" y="360.9310344827586" type="curve"/>
      <point x="668.2413793103449" y="407.6551724137931" type="line"/>
      <point x="641.1379310344828" y="345.48275862068965"/>
      <point x="627.7586206896551" y="272.6896551724138"/>
      <point x="627.7586206896551" y="202.20689655172413" type="curve" smooth="yes"/>
      <point x="627.7586206896551" y="106.93103448275862"/>
      <point x="648.3448275862069" y="31.586206896551722"/>
    </contour>
  </outline>
</glyph>
<glyph name="jha-beng" format="2">
  <advance width="701.5172413793103"/>
  <unicode hex="099D"/>
  <anchor x="445.86206896551727" y="32.48275862068966" name="bottom"/>
  <anchor x="452.7241379310345" y="79.93103448275862" name="bottom.rakaar"/>
  <anchor x="452.7241379310345" y="10.758620689655173" name="bottom.rvocalic"/>
  <anchor x="435.2068965517241" y="10.96551724137931" name="bottom.virama"/>
  <anchor x="420.3103448275862" y="578.0689655172414" name="top"/>
  <anchor x="488.44827586206895" y="578.0689655172414" name="topleft"/>
  <anchor x="422.0689655172414" y="570.6206896551724" name="topright"/>
  <anchor x="350.7586206896552" y="0.0" name="vedic"/>
  <outline>
    <contour>
      <point x="445.2413793103448" y="-19.82758620689655" type="line"/>
      <point x="452.7241379310345" y="-18.20689655172414" type="line"/>
      <point x="452.7241379310345" y="622.0" type="line"/>
      <point x="-32.724137931034484" y="622.0" type="line"/>
      <point x="6.241379310344827" y="557.5862068965517" type="line"/>
      <point x="376.37931034482756" y="557.5862068965517" type="line"/>
      <point x="376.37931034482756" y="482.8965517241379" type="line"/>
      <point x="384.86206896551727" y="520.2758620689655" type="line"/>
      <point x="250.24137931034483" y="480.1034482758621"/>
      <point x="134.20689655172413" y="425.7586206896552"/>
      <point x="16.93103448275862" y="349.86206896551727" type="curve"/>
      <point x="66.62068965517241" y="215.75862068965517" type="line"/>
      <point x="203.6206896551724" y="199.6206896551724"/>
      <point x="313.82758620689657" y="132.82758620689654"/>
      <point x="384.58620689655174" y="20.896551724137932" type="curve"/>
    </contour>
    <contour>
      <point x="376.37931034482756" y="77.20689655172414" type="line"/>
      <point x="387.7241379310345" y="96.3103448275862" type="line"/>
      <point x="318.41379310344826" y="226.0344827586207"/>
      <point x="208.24137931034483" y="282.3103448275862"/>
      <point x="123.41379310344828" y="303.44827586206895" type="curve"/>
      <point x="132.93103448275863" y="279.0689655172414" type="line"/>
      <point x="208.72413793103448" y="331.62068965517244"/>
      <point x="305.2758620689655" y="376.2758620689655"/>
      <point x="391.48275862068965" y="404.44827586206895" type="curve"/>
      <point x="376.37931034482756" y="430.62068965517244" type="line"/>
    </contour>
    <contour>
      <point x="616.0344827586207" y="67.24137931034483" type="line"/>
      <point x="622.1379310344828" y="68.86206896551724" type="line"/>
      <point x="622.1379310344828" y="557.5862068965517" type="line"/>
      <point x="734.2413793103449" y="557.5862068965517" type="line"/>
      <point x="694.8965517241379" y="622.0" type="line"/>
      <point x="617.7931034482758" y="622.0" type="line"/>
      <point x="611.3103448275862" y="672.448275862069" type="line"/>
      <point x="551.6551724137931" y="707.3103448275862" type="line"/>
      <point x="545.7931034482758" y="705.0689655172414" type="line"/>
      <point x="545.7931034482758" y="164.27586206896552" type="line"/>
      <point x="557.1379310344828" y="180.89655172413794" type="line"/>
      <point x="519.1379310344828" y="259.82758620689657"/>
      <point x="475.0" y="303.86206896551727"/>
      <point x="421.0344827586207" y="338.62068965517244" type="curve"/>
      <point x="412.7931034482759" y="249.9655172413793" type="line"/>
      <point x="473.37931034482756" y="219.72413793103448"/>
      <point x="516.3793103448276" y="173.93103448275863"/>
      <point x="553.3793103448276" y="107.9655172413793" type="curve"/>
    </contour>
  </outline>
</glyph>
<glyph name="nya-beng" format="2">
  <advance width="958.1379310344828"/>
  <unicode hex="099E"/>
  <anchor x="587.8620689655172" y="29.379310344827587" name="bottom"/>
  <anchor x="710.551724137931" y="77.44827586206897" name="bottom.rakaar"/>
  <anchor x="594.7241379310345" y="6.137931034482758" name="bottom.rvocalic"/>
  <anchor x="574.7241379310345" y="7.862068965517242" name="bottom.virama"/>
  <anchor x="507.7586206896552" y="578.0689655172414" name="top"/>
  <anchor x="510.13793103448273" y="570.6206896551724" name="topright"/>
  <anchor x="479.0689655172414" y="0.0" name="vedic"/>
  <outline>
    <contour>
      <point x="755.2413793103449" y="42.58620689655172" type="curve" smooth="yes"/>
      <point x="844.6896551724138" y="42.58620689655172"/>
      <point x="893.6896551724138" y="111.44827586206897"/>
      <point x="893.6896551724138" y="196.58620689655172" type="curve" smooth="yes"/>
      <point x="893.6896551724138" y="251.31034482758622"/>
      <point x="873.5862068965517" y="305.0344827586207"/>
      <point x="826.2413793103449" y="344.2758620689655" type="curve"/>
      <point x="840.2068965517242" y="299.55172413793105" type="line"/>
      <point x="870.2068965517242" y="329.9310344827586"/>
      <point x="891.3103448275862" y="383.3103448275862"/>
      <point x="891.3103448275862" y="443.8965517241379" type="curve" smooth="yes"/>
      <point x="891.3103448275862" y="531.8620689655172"/>
      <point x="842.448275862069" y="601.9655172413793"/>
      <point x="762.8620689655172" y="601.9655172413793" type="curve" smooth="yes"/>
      <point x="649.551724137931" y="601.9655172413793"/>
      <point x="573.8965517241379" y="457.86206896551727"/>
      <point x="565.2758620689655" y="376.8965517241379" type="curve"/>
      <point x="565.2758620689655" y="272.41379310344826" type="line"/>
      <point x="582.5172413793103" y="152.20689655172413"/>
      <point x="658.551724137931" y="42.58620689655172"/>
    </contour>
    <contour>
      <point x="750.1379310344828" y="142.20689655172413" type="curve" smooth="yes"/>
      <point x="671.6206896551724" y="142.20689655172413"/>
      <point x="600.2413793103449" y="221.75862068965517"/>
      <point x="600.2413793103449" y="319.2758620689655" type="curve" smooth="yes"/>
      <point x="600.2413793103449" y="404.13793103448273"/>
      <point x="663.1034482758621" y="509.44827586206895"/>
      <point x="757.0" y="509.44827586206895" type="curve" smooth="yes"/>
      <point x="798.7931034482758" y="509.44827586206895"/>
      <point x="825.6896551724138" y="492.3103448275862"/>
      <point x="825.6896551724138" y="455.41379310344826" type="curve" smooth="yes"/>
      <point x="825.6896551724138" y="412.86206896551727"/>
      <point x="794.2068965517242" y="379.86206896551727"/>
      <point x="754.0689655172414" y="363.48275862068965" type="curve"/>
      <point x="809.4137931034483" y="353.7241379310345" type="line"/>
      <point x="789.4137931034483" y="380.7586206896552"/>
      <point x="762.1379310344828" y="393.7241379310345"/>
      <point x="732.1724137931035" y="393.7241379310345" type="curve" smooth="yes"/>
      <point x="689.0689655172414" y="393.7241379310345"/>
      <point x="659.8275862068965" y="365.0"/>
      <point x="659.8275862068965" y="320.6551724137931" type="curve" smooth="yes"/>
      <point x="659.8275862068965" y="272.9310344827586"/>
      <point x="692.3103448275862" y="245.20689655172413"/>
      <point x="736.7931034482758" y="245.20689655172413" type="curve" smooth="yes"/>
      <point x="777.0344827586207" y="245.20689655172413"/>
      <point x="805.5172413793103" y="262.2068965517241"/>
      <point x="829.6206896551724" y="291.44827586206895" type="curve"/>
      <point x="788.551724137931" y="311.2758620689655" type="line"/>
      <point x="810.3103448275862" y="293.6551724137931"/>
      <point x="834.4137931034483" y="265.37931034482756"/>
      <point x="834.4137931034483" y="224.3793103448276" type="curve" smooth="yes"/>
      <point x="834.4137931034483" y="172.48275862068965"/>
      <point x="804.4137931034483" y="142.20689655172413"/>
    </contour>
    <component base="e-beng"/>
  </outline>
</glyph>
<glyph name="tta-beng" format="2">
  <advance width="529.4137931034483"/>
  <unicode hex="099F"/>
  <anchor x="342.9655172413793" y="15.724137931034482" name="bottom"/>
  <anchor x="406.0" y="3.1379310344827585" name="bottom.rakaar"/>
  <anchor x="343.2068965517241" y="24.482758620689655" name="bottom.rvocalic"/>
  <anchor x="273.8965517241379" y="33.55172413793103" name="bottom.virama"/>
  <anchor x="294.6896551724138" y="679.5862068965517" name="top"/>
  <anchor x="204.68965517241378" y="637.8965517241379" name="topright"/>
  <anchor x="264.51724137931035" y="0.0" name="vedic"/>
  <anchor x="231.89655172413794" y="-89.37931034482759" name="nukta"/>
  <outline>
    <contour>
      <point x="396.7586206896552" y="603.3103448275862" type="curve"/>
      <point x="450.6896551724138" y="603.3103448275862" type="line"/>
      <point x="445.9310344827586" y="740.1379310344828"/>
      <point x="400.62068965517244" y="814.3103448275862"/>
      <point x="304.0344827586207" y="814.3103448275862" type="curve" smooth="yes"/>
      <point x="254.9655172413793" y="814.3103448275862"/>
      <point x="215.93103448275863" y="805.3103448275862"/>
      <point x="165.9655172413793" y="805.3103448275862" type="curve" smooth="yes"/>
      <point x="95.72413793103448" y="805.3103448275862"/>
      <point x="63.3448275862069" y="827.1724137931035"/>
      <point x="63.3448275862069" y="887.5862068965517" type="curve" smooth="yes"/>
      <point x="63.3448275862069" y="899.5862068965517"/>
      <point x="64.34482758620689" y="912.448275862069"/>
      <point x="65.96551724137932" y="922.3103448275862" type="curve"/>
      <point x="18.75862068965517" y="926.9310344827586" type="line"/>
      <point x="14.89655172413793" y="908.2068965517242"/>
      <point x="12.275862068965516" y="883.4827586206897"/>
      <point x="12.275862068965516" y="862.1379310344828" type="curve" smooth="yes"/>
      <point x="12.275862068965516" y="768.1724137931035"/>
      <point x="60.724137931034484" y="700.0689655172414"/>
      <point x="169.79310344827587" y="700.0689655172414" type="curve" smooth="yes"/>
      <point x="229.13793103448276" y="700.0689655172414"/>
      <point x="274.2758620689655" y="710.6896551724138"/>
      <point x="316.13793103448273" y="710.6896551724138" type="curve" smooth="yes"/>
      <point x="368.13793103448273" y="710.6896551724138"/>
      <point x="395.62068965517244" y="685.0344827586207"/>
    </contour>
    <component base="ddha-beng"/>
  </outline>
</glyph>
<glyph name="ttha-beng" format="2">
  <advance width="552.5862068965517"/>
  <unicode hex="09A0"/>
  <anchor x="334.2758620689655" y="-18.0" name="bottom"/>
  <anchor x="465.1034482758621" y="-32.03448275862069" name="bottom.rakaar"/>
  <anchor x="384.2758620689655" y="-20.482758620689655" name="bottom.rvocalic"/>
  <anchor x="322.86206896551727" y="-7.448275862068966" name="bottom.virama"/>
  <anchor x="445.86206896551727" y="561.9655172413793" name="top"/>
  <anchor x="432.2068965517241" y="618.2413793103449" name="topleft"/>
  <anchor x="328.0" y="570.6206896551724" name="topright"/>
  <anchor x="276.1034482758621" y="0.0" name="vedic"/>
  <outline>
    <contour>
      <point x="284.82758620689657" y="-16.10344827586207" type="curve" smooth="yes"/>
      <point x="416.7931034482759" y="-16.10344827586207"/>
      <point x="497.62068965517244" y="71.93103448275862"/>
      <point x="497.62068965517244" y="213.48275862068965" type="curve" smooth="yes"/>
      <point x="497.62068965517244" y="345.3103448275862"/>
      <point x="416.48275862068965" y="447.7586206896552"/>
      <point x="310.3103448275862" y="557.5862068965517" type="curve"/>
      <point x="585.3103448275862" y="557.5862068965517" type="line"/>
      <point x="546.7241379310345" y="622.0" type="line"/>
      <point x="248.10344827586206" y="622.0" type="line"/>
      <point x="210.86206896551724" y="658.7586206896551"/>
      <point x="187.20689655172413" y="695.1724137931035"/>
      <point x="187.20689655172413" y="731.8275862068965" type="curve" smooth="yes"/>
      <point x="187.20689655172413" y="769.448275862069"/>
      <point x="214.17241379310346" y="802.0344827586207"/>
      <point x="262.7931034482759" y="829.3103448275862" type="curve"/>
      <point x="185.0344827586207" y="899.1379310344828" type="line"/>
      <point x="121.17241379310344" y="860.8620689655172"/>
      <point x="94.62068965517241" y="815.2758620689655"/>
      <point x="94.62068965517241" y="769.7931034482758" type="curve" smooth="yes"/>
      <point x="94.62068965517241" y="709.1724137931035"/>
      <point x="135.6206896551724" y="665.3793103448276"/>
      <point x="177.20689655172413" y="622.0" type="curve"/>
      <point x="-32.724137931034484" y="622.0" type="line"/>
      <point x="6.241379310344827" y="557.5862068965517" type="line"/>
      <point x="211.75862068965517" y="557.5862068965517" type="line"/>
      <point x="225.6551724137931" y="528.7931034482758"/>
      <point x="233.41379310344828" y="494.13793103448273"/>
      <point x="233.41379310344828" y="456.62068965517244" type="curve" smooth="yes"/>
      <point x="233.41379310344828" y="359.55172413793105"/>
      <point x="172.3793103448276" y="279.0344827586207"/>
      <point x="27.06896551724138" y="250.75862068965517" type="curve"/>
      <point x="49.62068965517241" y="82.37931034482759"/>
      <point x="139.9655172413793" y="-16.10344827586207"/>
    </contour>
    <contour>
      <point x="264.62068965517244" y="64.51724137931035" type="curve" smooth="yes"/>
      <point x="191.58620689655172" y="64.51724137931035"/>
      <point x="141.55172413793105" y="120.89655172413794"/>
      <point x="141.55172413793105" y="192.10344827586206" type="curve"/>
      <point x="125.93103448275862" y="159.24137931034483" type="line"/>
      <point x="250.72413793103448" y="191.6206896551724"/>
      <point x="306.3103448275862" y="270.2758620689655"/>
      <point x="306.3103448275862" y="378.1034482758621" type="curve" smooth="yes"/>
      <point x="306.3103448275862" y="451.2758620689655"/>
      <point x="281.6896551724138" y="510.0"/>
      <point x="250.24137931034483" y="567.6206896551724" type="curve"/>
      <point x="238.3793103448276" y="567.6206896551724" type="line"/>
      <point x="345.9310344827586" y="443.2758620689655"/>
      <point x="392.55172413793105" y="354.2758620689655"/>
      <point x="392.55172413793105" y="232.17241379310346" type="curve" smooth="yes"/>
      <point x="392.55172413793105" y="126.93103448275862"/>
      <point x="345.41379310344826" y="64.51724137931035"/>
    </contour>
  </outline>
</glyph>
<glyph name="dda-beng" format="2">
  <advance width="630.4137931034483"/>
  <unicode hex="09A1"/>
  <anchor x="443.0" y="12.275862068965516" name="bottom"/>
  <anchor x="537.8275862068965" y="-7.862068965517242" name="bottom.rakaar"/>
  <anchor x="448.2413793103448" y="19.689655172413794" name="bottom.rvocalic"/>
  <anchor x="400.86206896551727" y="4.689655172413794" name="bottom.virama"/>
  <anchor x="339.58620689655174" y="-90.55172413793103" name="nukta"/>
  <anchor x="299.9655172413793" y="578.0689655172414" name="top"/>
  <anchor x="301.7241379310345" y="570.6206896551724" name="topright"/>
  <anchor x="315.2068965517241" y="0.0" name="vedic"/>
  <outline>
    <contour>
      <point x="371.9655172413793" y="22.068965517241377" type="curve" smooth="yes"/>
      <point x="519.6206896551724" y="22.068965517241377"/>
      <point x="595.7241379310345" y="119.27586206896552"/>
      <point x="595.7241379310345" y="252.06896551724137" type="curve" smooth="yes"/>
      <point x="595.7241379310345" y="354.6551724137931"/>
      <point x="556.1379310344828" y="428.48275862068965"/>
      <point x="497.51724137931035" y="480.1034482758621" type="curve"/>
      <point x="450.44827586206895" y="411.2758620689655"/>
      <point x="394.0689655172414" y="359.58620689655174"/>
      <point x="345.62068965517244" y="359.58620689655174" type="curve" smooth="yes"/>
      <point x="325.86206896551727" y="359.58620689655174"/>
      <point x="312.37931034482756" y="367.7241379310345"/>
      <point x="312.37931034482756" y="388.82758620689657" type="curve" smooth="yes"/>
      <point x="312.37931034482756" y="557.5862068965517" type="line"/>
      <point x="663.1379310344828" y="557.5862068965517" type="line"/>
      <point x="623.551724137931" y="622.0" type="line"/>
      <point x="-32.724137931034484" y="622.0" type="line"/>
      <point x="6.862068965517242" y="557.5862068965517" type="line"/>
      <point x="236.0344827586207" y="557.5862068965517" type="line"/>
      <point x="236.0344827586207" y="379.41379310344826" type="line" smooth="yes"/>
      <point x="236.0344827586207" y="337.9655172413793"/>
      <point x="249.75862068965517" y="309.48275862068965"/>
      <point x="274.2413793103448" y="286.37931034482756" type="curve" smooth="yes"/>
      <point x="296.58620689655174" y="265.0344827586207"/>
      <point x="327.3103448275862" y="250.79310344827587"/>
      <point x="363.8965517241379" y="250.79310344827587" type="curve" smooth="yes"/>
      <point x="425.13793103448273" y="250.79310344827587"/>
      <point x="497.1034482758621" y="299.0344827586207"/>
      <point x="543.5862068965517" y="369.7586206896552" type="curve"/>
      <point x="493.55172413793105" y="365.62068965517244" type="line"/>
      <point x="518.6896551724138" y="346.37931034482756"/>
      <point x="532.9310344827586" y="319.13793103448273"/>
      <point x="532.9310344827586" y="273.44827586206895" type="curve" smooth="yes"/>
      <point x="532.9310344827586" y="194.27586206896552"/>
      <point x="474.3103448275862" y="137.27586206896552"/>
      <point x="371.7241379310345" y="137.27586206896552" type="curve" smooth="yes"/>
      <point x="209.93103448275863" y="137.27586206896552"/>
      <point x="131.0344827586207" y="253.20689655172413"/>
      <point x="73.96551724137932" y="485.41379310344826" type="curve"/>
      <point x="22.03448275862069" y="473.7931034482759" type="line"/>
      <point x="78.72413793103448" y="174.58620689655172"/>
      <point x="188.86206896551724" y="22.068965517241377"/>
    </contour>
  </outline>
</glyph>
<glyph name="ddha-beng" format="2">
  <advance width="529.4137931034483"/>
  <unicode hex="09A2"/>
  <anchor x="344.2068965517241" y="15.724137931034482" name="bottom"/>
  <anchor x="406.0" y="3.1379310344827585" name="bottom.rakaar"/>
  <anchor x="342.44827586206895" y="23.103448275862068" name="bottom.rvocalic"/>
  <anchor x="273.8965517241379" y="33.55172413793103" name="bottom.virama"/>
  <anchor x="231.89655172413794" y="-89.37931034482759" name="nukta"/>
  <anchor x="143.31034482758622" y="578.0689655172414" name="top"/>
  <anchor x="145.68965517241378" y="570.6206896551724" name="topright"/>
  <anchor x="264.51724137931035" y="0.0" name="vedic"/>
  <outline>
    <contour>
      <point x="225.24137931034483" y="18.620689655172413" type="curve" smooth="yes"/>
      <point x="368.2758620689655" y="18.620689655172413"/>
      <point x="487.8965517241379" y="189.13793103448276"/>
      <point x="487.8965517241379" y="323.3103448275862" type="curve" smooth="yes"/>
      <point x="487.8965517241379" y="419.8965517241379"/>
      <point x="433.9310344827586" y="458.86206896551727"/>
      <point x="371.9655172413793" y="458.86206896551727" type="curve" smooth="yes"/>
      <point x="307.37931034482756" y="458.86206896551727"/>
      <point x="270.17241379310343" y="414.7586206896552"/>
      <point x="270.17241379310343" y="364.55172413793105" type="curve" smooth="yes"/>
      <point x="270.17241379310343" y="310.2068965517241"/>
      <point x="303.2758620689655" y="272.86206896551727"/>
      <point x="359.62068965517244" y="272.86206896551727" type="curve" smooth="yes"/>
      <point x="388.8965517241379" y="272.86206896551727"/>
      <point x="404.48275862068965" y="285.86206896551727"/>
      <point x="419.58620689655174" y="304.58620689655174" type="curve"/>
      <point x="377.58620689655174" y="337.3103448275862" type="line"/>
      <point x="372.58620689655174" y="218.51724137931035"/>
      <point x="286.48275862068965" y="105.72413793103448"/>
      <point x="210.0344827586207" y="105.72413793103448" type="curve" smooth="yes"/>
      <point x="177.86206896551724" y="105.72413793103448"/>
      <point x="155.72413793103448" y="124.62068965517241"/>
      <point x="155.72413793103448" y="157.6551724137931" type="curve" smooth="yes"/>
      <point x="155.72413793103448" y="557.5862068965517" type="line"/>
      <point x="562.1379310344828" y="557.5862068965517" type="line"/>
      <point x="523.7931034482758" y="622.0" type="line"/>
      <point x="-32.724137931034484" y="622.0" type="line"/>
      <point x="8.241379310344827" y="557.5862068965517" type="line"/>
      <point x="80.0" y="557.5862068965517" type="line"/>
      <point x="80.0" y="156.89655172413794" type="line" smooth="yes"/>
      <point x="80.0" y="76.06896551724138"/>
      <point x="147.6551724137931" y="18.620689655172413"/>
    </contour>
  </outline>
</glyph>
<glyph name="nna-beng" format="2">
  <advance width="601.4827586206897"/>
  <unicode hex="09A3"/>
  <anchor x="506.1379310344828" y="53.96551724137931" name="bottom"/>
  <anchor x="521.4827586206897" y="-10.448275862068966" name="bottom.rakaar"/>
  <anchor x="521.4827586206897" y="-2.6206896551724137" name="bottom.rvocalic"/>
  <anchor x="494.0344827586207" y="7.241379310344827" name="bottom.virama"/>
  <anchor x="507.2068965517241" y="568.0689655172414" name="top"/>
  <anchor x="484.0344827586207" y="559.448275862069" name="topright"/>
  <anchor x="300.2413793103448" y="0.0" name="vedic"/>
  <outline>
    <contour>
      <point x="515.3793103448276" y="-31.20689655172414" type="line"/>
      <point x="521.4827586206897" y="-29.586206896551722" type="line"/>
      <point x="521.4827586206897" y="557.5862068965517" type="line"/>
      <point x="634.2068965517242" y="557.5862068965517" type="line"/>
      <point x="594.2413793103449" y="622.0" type="line"/>
      <point x="517.1379310344828" y="622.0" type="line"/>
      <point x="511.2758620689655" y="672.448275862069" type="line"/>
      <point x="451.62068965517244" y="707.3103448275862" type="line"/>
      <point x="445.7586206896552" y="705.0689655172414" type="line"/>
      <point x="445.7586206896552" y="567.9310344827586" type="line" smooth="yes"/>
      <point x="445.7586206896552" y="508.7586206896552"/>
      <point x="449.37931034482756" y="442.2068965517241"/>
      <point x="453.2413793103448" y="393.0689655172414" type="curve"/>
      <point x="459.3448275862069" y="404.0689655172414" type="line"/>
      <point x="371.2758620689655" y="563.1379310344828"/>
      <point x="302.2068965517241" y="628.2413793103449"/>
      <point x="205.68965517241378" y="628.2413793103449" type="curve" smooth="yes"/>
      <point x="110.58620689655173" y="628.2413793103449"/>
      <point x="36.275862068965516" y="556.2413793103449"/>
      <point x="36.275862068965516" y="441.58620689655174" type="curve" smooth="yes"/>
      <point x="36.275862068965516" y="308.44827586206895"/>
      <point x="122.55172413793103" y="244.9655172413793"/>
      <point x="212.75862068965517" y="244.9655172413793" type="curve" smooth="yes"/>
      <point x="280.0689655172414" y="244.9655172413793"/>
      <point x="318.41379310344826" y="283.9310344827586"/>
      <point x="318.41379310344826" y="340.37931034482756" type="curve" smooth="yes"/>
      <point x="318.41379310344826" y="393.2068965517241"/>
      <point x="284.6896551724138" y="433.0344827586207"/>
      <point x="228.24137931034483" y="433.0344827586207" type="curve" smooth="yes"/>
      <point x="181.6551724137931" y="433.0344827586207"/>
      <point x="147.55172413793105" y="399.3103448275862"/>
      <point x="147.55172413793105" y="352.3448275862069" type="curve" smooth="yes"/>
      <point x="147.55172413793105" y="335.62068965517244"/>
      <point x="151.55172413793105" y="316.7586206896552"/>
      <point x="158.79310344827587" y="306.13793103448273" type="curve"/>
      <point x="207.6206896551724" y="340.3448275862069" type="line"/>
      <point x="196.3793103448276" y="337.7241379310345"/>
      <point x="184.13793103448276" y="336.7241379310345"/>
      <point x="172.89655172413794" y="336.7241379310345" type="curve" smooth="yes"/>
      <point x="136.3793103448276" y="336.7241379310345"/>
      <point x="110.13793103448276" y="365.62068965517244"/>
      <point x="110.13793103448276" y="414.0" type="curve" smooth="yes"/>
      <point x="110.13793103448276" y="479.37931034482756"/>
      <point x="160.89655172413794" y="516.3793103448276"/>
      <point x="226.75862068965517" y="516.3793103448276" type="curve" smooth="yes"/>
      <point x="308.8965517241379" y="516.3793103448276"/>
      <point x="375.17241379310343" y="469.6896551724138"/>
      <point x="456.62068965517244" y="316.6551724137931" type="curve"/>
      <point x="445.7586206896552" y="373.48275862068965" type="line"/>
      <point x="445.7586206896552" y="1.7586206896551724" type="line"/>
    </contour>
  </outline>
</glyph>
<glyph name="ta-beng" format="2">
  <advance width="635.1724137931035"/>
  <unicode hex="09A4"/>
  <anchor x="455.44827586206895" y="21.137931034482758" name="bottom"/>
  <anchor x="540.3448275862069" y="0.3793103448275862" name="bottom.rakaar"/>
  <anchor x="466.2068965517241" y="28.310344827586206" name="bottom.rvocalic"/>
  <anchor x="403.37931034482756" y="13.551724137931034" name="bottom.virama"/>
  <anchor x="384.44827586206895" y="578.0689655172414" name="top"/>
  <anchor x="386.2068965517241" y="570.6206896551724" name="topright"/>
  <anchor x="317.58620689655174" y="0.0" name="vedic"/>
  <outline>
    <contour>
      <point x="380.6896551724138" y="30.93103448275862" type="curve" smooth="yes"/>
      <point x="502.7931034482759" y="30.93103448275862"/>
      <point x="596.8275862068965" y="98.93103448275862"/>
      <point x="596.8275862068965" y="254.20689655172413" type="curve" smooth="yes"/>
      <point x="596.8275862068965" y="390.7586206896552"/>
      <point x="511.8965517241379" y="506.13793103448273"/>
      <point x="356.6896551724138" y="506.13793103448273" type="curve" smooth="yes"/>
      <point x="266.7586206896552" y="506.13793103448273"/>
      <point x="217.27586206896552" y="454.17241379310343"/>
      <point x="217.27586206896552" y="380.9655172413793" type="curve" smooth="yes"/>
      <point x="217.27586206896552" y="316.7586206896552"/>
      <point x="256.86206896551727" y="263.41379310344826"/>
      <point x="331.6896551724138" y="263.41379310344826" type="curve" smooth="yes"/>
      <point x="397.7586206896552" y="263.41379310344826"/>
      <point x="434.2413793103448" y="307.13793103448273"/>
      <point x="434.2413793103448" y="366.2413793103448" type="curve" smooth="yes"/>
      <point x="434.2413793103448" y="405.9655172413793"/>
      <point x="415.2758620689655" y="437.44827586206895"/>
      <point x="399.0344827586207" y="453.0689655172414" type="curve"/>
      <point x="365.2068965517241" y="391.44827586206895" type="line"/>
      <point x="377.2068965517241" y="396.6896551724138"/>
      <point x="396.9310344827586" y="402.41379310344826"/>
      <point x="417.2758620689655" y="402.41379310344826" type="curve" smooth="yes"/>
      <point x="472.62068965517244" y="402.41379310344826"/>
      <point x="528.9310344827586" y="365.7586206896552"/>
      <point x="528.9310344827586" y="280.17241379310343" type="curve" smooth="yes"/>
      <point x="528.9310344827586" y="191.6206896551724"/>
      <point x="469.0689655172414" y="147.75862068965517"/>
      <point x="378.9655172413793" y="147.75862068965517" type="curve" smooth="yes"/>
      <point x="239.10344827586206" y="147.75862068965517"/>
      <point x="134.89655172413794" y="239.27586206896552"/>
      <point x="57.37931034482759" y="497.55172413793105" type="curve"/>
      <point x="7.068965517241379" y="483.3103448275862" type="line"/>
      <point x="84.82758620689656" y="171.10344827586206"/>
      <point x="195.55172413793105" y="30.93103448275862"/>
    </contour>
    <contour>
      <point x="5.241379310344827" y="557.5862068965517" type="line"/>
      <point x="667.8965517241379" y="557.5862068965517" type="line"/>
      <point x="628.3103448275862" y="622.0" type="line"/>
      <point x="-32.724137931034484" y="622.0" type="line"/>
    </contour>
  </outline>
</glyph>
<glyph name="tha-beng" format="2">
  <advance width="588.1379310344828"/>
  <unicode hex="09A5"/>
  <anchor x="501.8965517241379" y="32.48275862068966" name="bottom"/>
  <anchor x="508.7586206896552" y="80.55172413793103" name="bottom.rakaar"/>
  <anchor x="508.7586206896552" y="11.379310344827585" name="bottom.rvocalic"/>
  <anchor x="488.7586206896552" y="10.96551724137931" name="bottom.virama"/>
  <anchor x="493.86206896551727" y="568.0689655172414" name="top"/>
  <anchor x="471.3103448275862" y="559.448275862069" name="topright"/>
  <anchor x="293.7586206896552" y="0.0" name="vedic"/>
  <outline>
    <contour>
      <point x="501.2758620689655" y="-19.82758620689655" type="line"/>
      <point x="508.7586206896552" y="-18.20689655172414" type="line"/>
      <point x="508.7586206896552" y="557.5862068965517" type="line"/>
      <point x="620.8620689655172" y="557.5862068965517" type="line"/>
      <point x="581.5172413793103" y="622.0" type="line"/>
      <point x="504.41379310344826" y="622.0" type="line"/>
      <point x="497.9310344827586" y="672.448275862069" type="line"/>
      <point x="438.2758620689655" y="707.3103448275862" type="line"/>
      <point x="432.41379310344826" y="705.0689655172414" type="line"/>
      <point x="432.41379310344826" y="74.10344827586206" type="line"/>
      <point x="443.7586206896552" y="90.72413793103448" type="line"/>
      <point x="384.17241379310343" y="212.58620689655172"/>
      <point x="267.6896551724138" y="270.58620689655174"/>
      <point x="155.3793103448276" y="303.37931034482756" type="curve"/>
      <point x="182.27586206896552" y="260.58620689655174" type="line"/>
      <point x="304.0344827586207" y="275.2413793103448"/>
      <point x="366.9310344827586" y="333.55172413793105"/>
      <point x="366.9310344827586" y="438.44827586206895" type="curve" smooth="yes"/>
      <point x="366.9310344827586" y="551.2758620689655"/>
      <point x="282.2413793103448" y="625.0"/>
      <point x="177.41379310344828" y="625.0" type="curve" smooth="yes"/>
      <point x="82.82758620689656" y="625.0"/>
      <point x="26.862068965517242" y="576.3793103448276"/>
      <point x="26.862068965517242" y="509.7931034482759" type="curve" smooth="yes"/>
      <point x="26.862068965517242" y="444.2068965517241"/>
      <point x="66.72413793103448" y="412.3448275862069"/>
      <point x="116.3103448275862" y="412.3448275862069" type="curve" smooth="yes"/>
      <point x="166.0344827586207" y="412.3448275862069"/>
      <point x="194.13793103448276" y="441.2068965517241"/>
      <point x="194.13793103448276" y="484.55172413793105" type="curve" smooth="yes"/>
      <point x="194.13793103448276" y="515.6551724137931"/>
      <point x="180.89655172413794" y="537.6551724137931"/>
      <point x="154.6551724137931" y="551.6551724137931" type="curve"/>
      <point x="153.75862068965517" y="513.7241379310345" type="line"/>
      <point x="168.3793103448276" y="534.3448275862069"/>
      <point x="188.27586206896552" y="544.3448275862069"/>
      <point x="214.6551724137931" y="544.3448275862069" type="curve" smooth="yes"/>
      <point x="259.55172413793105" y="544.3448275862069"/>
      <point x="288.9655172413793" y="512.5862068965517"/>
      <point x="288.9655172413793" y="465.0344827586207" type="curve" smooth="yes"/>
      <point x="288.9655172413793" y="368.7586206896552"/>
      <point x="168.89655172413794" y="341.2413793103448"/>
      <point x="65.96551724137932" y="345.37931034482756" type="curve"/>
      <point x="113.41379310344827" y="212.27586206896552" type="line"/>
      <point x="255.44827586206895" y="197.75862068965517"/>
      <point x="371.1034482758621" y="133.44827586206895"/>
      <point x="440.62068965517244" y="20.275862068965516" type="curve"/>
    </contour>
  </outline>
</glyph>
<glyph name="da-beng" format="2">
  <advance width="535.8275862068965"/>
  <unicode hex="09A6"/>
  <anchor x="448.2068965517241" y="78.3103448275862" name="bottom"/>
  <anchor x="463.0689655172414" y="62.55172413793103" name="bottom.rakaar"/>
  <anchor x="461.9310344827586" y="-9.586206896551726" name="bottom.rvocalic"/>
  <anchor x="443.55172413793105" y="-16.137931034482758" name="bottom.virama"/>
  <anchor x="130.06896551724137" y="578.0689655172414" name="top"/>
  <anchor x="132.44827586206895" y="570.6206896551724" name="topright"/>
  <anchor x="267.41379310344826" y="0.0" name="vedic"/>
  <outline>
    <contour>
      <point x="414.86206896551727" y="-43.172413793103445" type="curve"/>
      <point x="461.9310344827586" y="-23.310344827586206" type="line"/>
      <point x="439.3103448275862" y="45.37931034482759"/>
      <point x="428.7931034482759" y="99.89655172413794"/>
      <point x="428.7931034482759" y="161.75862068965517" type="curve" smooth="yes"/>
      <point x="428.7931034482759" y="243.75862068965517"/>
      <point x="452.41379310344826" y="330.9655172413793"/>
      <point x="498.41379310344826" y="405.58620689655174" type="curve"/>
      <point x="393.0344827586207" y="496.7586206896552" type="line"/>
      <point x="288.2413793103448" y="440.1034482758621"/>
      <point x="185.3793103448276" y="357.44827586206895"/>
      <point x="119.62068965517241" y="286.44827586206895" type="curve"/>
      <point x="143.10344827586206" y="255.41379310344828" type="line"/>
      <point x="143.10344827586206" y="557.5862068965517" type="line"/>
      <point x="568.551724137931" y="557.5862068965517" type="line"/>
      <point x="530.2068965517242" y="622.0" type="line"/>
      <point x="-32.724137931034484" y="622.0" type="line"/>
      <point x="6.241379310344827" y="557.5862068965517" type="line"/>
      <point x="66.75862068965517" y="557.5862068965517" type="line"/>
      <point x="66.75862068965517" y="199.0344827586207" type="line"/>
      <point x="139.9655172413793" y="146.17241379310346" type="line"/>
      <point x="232.72413793103448" y="241.9310344827586"/>
      <point x="323.82758620689657" y="324.41379310344826"/>
      <point x="424.58620689655174" y="387.2758620689655" type="curve"/>
      <point x="394.17241379310343" y="405.82758620689657" type="line"/>
      <point x="367.41379310344826" y="340.7241379310345"/>
      <point x="354.0344827586207" y="271.7241379310345"/>
      <point x="354.0344827586207" y="204.10344827586206" type="curve" smooth="yes"/>
      <point x="354.0344827586207" y="115.55172413793103"/>
      <point x="379.86206896551727" y="31.724137931034484"/>
    </contour>
  </outline>
</glyph>
<glyph name="dha-beng" format="2">
  <advance width="537.7241379310345"/>
  <unicode hex="09A7"/>
  <anchor x="450.86206896551727" y="32.48275862068966" name="bottom"/>
  <anchor x="457.7241379310345" y="80.55172413793103" name="bottom.rakaar"/>
  <anchor x="457.7241379310345" y="11.379310344827585" name="bottom.rvocalic"/>
  <anchor x="437.7241379310345" y="10.96551724137931" name="bottom.virama"/>
  <anchor x="445.3103448275862" y="578.0689655172414" name="top"/>
  <anchor x="447.0689655172414" y="570.6206896551724" name="topright"/>
  <anchor x="268.55172413793105" y="0.0" name="vedic"/>
  <outline>
    <contour>
      <point x="450.2413793103448" y="-19.82758620689655" type="line"/>
      <point x="457.7241379310345" y="-18.20689655172414" type="line"/>
      <point x="457.7241379310345" y="557.5862068965517" type="line"/>
      <point x="570.448275862069" y="557.5862068965517" type="line"/>
      <point x="530.8620689655172" y="622.0" type="line"/>
      <point x="381.37931034482756" y="622.0" type="line"/>
      <point x="381.37931034482756" y="467.8965517241379" type="line"/>
      <point x="390.48275862068965" y="504.0344827586207" type="line"/>
      <point x="255.86206896551724" y="460.13793103448273"/>
      <point x="137.9655172413793" y="407.0344827586207"/>
      <point x="23.17241379310345" y="332.37931034482756" type="curve"/>
      <point x="74.72413793103448" y="198.89655172413794" type="line"/>
      <point x="201.58620689655172" y="181.24137931034483"/>
      <point x="316.9655172413793" y="125.20689655172414"/>
      <point x="389.58620689655174" y="20.275862068965516" type="curve"/>
    </contour>
    <contour>
      <point x="381.37931034482756" y="78.44827586206897" type="line"/>
      <point x="392.7241379310345" y="94.44827586206897" type="line"/>
      <point x="333.62068965517244" y="201.58620689655172"/>
      <point x="218.58620689655172" y="262.41379310344826"/>
      <point x="124.6896551724138" y="289.0689655172414" type="curve"/>
      <point x="135.44827586206895" y="261.58620689655174" type="line"/>
      <point x="210.6206896551724" y="314.13793103448273"/>
      <point x="308.41379310344826" y="360.0344827586207"/>
      <point x="396.48275862068965" y="388.2068965517241" type="curve"/>
      <point x="381.37931034482756" y="413.13793103448273" type="line"/>
    </contour>
    <contour>
      <point x="203.58620689655172" y="400.0344827586207" type="curve"/>
      <point x="225.20689655172413" y="433.8965517241379" type="line"/>
      <point x="173.20689655172413" y="439.8965517241379"/>
      <point x="140.20689655172413" y="469.8965517241379"/>
      <point x="140.20689655172413" y="503.2758620689655" type="curve" smooth="yes"/>
      <point x="140.20689655172413" y="537.2758620689655"/>
      <point x="161.9655172413793" y="556.1379310344828"/>
      <point x="193.20689655172413" y="556.1379310344828" type="curve" smooth="yes"/>
      <point x="201.20689655172413" y="556.1379310344828"/>
      <point x="210.20689655172413" y="555.1379310344828"/>
      <point x="219.20689655172413" y="552.1379310344828" type="curve"/>
      <point x="181.86206896551724" y="590.0" type="line"/>
      <point x="173.24137931034483" y="577.7586206896551"/>
      <point x="170.24137931034483" y="563.1379310344828"/>
      <point x="170.24137931034483" y="548.0344827586207" type="curve" smooth="yes"/>
      <point x="170.24137931034483" y="510.17241379310343"/>
      <point x="199.72413793103448" y="489.3103448275862"/>
      <point x="232.44827586206895" y="489.3103448275862" type="curve" smooth="yes"/>
      <point x="268.9310344827586" y="489.3103448275862"/>
      <point x="297.41379310344826" y="514.7931034482758"/>
      <point x="297.41379310344826" y="553.8965517241379" type="curve" smooth="yes"/>
      <point x="297.41379310344826" y="599.2413793103449"/>
      <point x="264.9310344827586" y="636.5862068965517"/>
      <point x="194.86206896551724" y="636.5862068965517" type="curve" smooth="yes"/>
      <point x="115.27586206896552" y="636.5862068965517"/>
      <point x="62.55172413793103" y="590.1034482758621"/>
      <point x="62.55172413793103" y="522.3793103448276" type="curve" smooth="yes"/>
      <point x="62.55172413793103" y="436.0689655172414"/>
      <point x="150.86206896551724" y="400.0344827586207"/>
    </contour>
  </outline>
</glyph>
<glyph name="na-beng" format="2">
  <advance width="550.0689655172414"/>
  <unicode hex="09A8"/>
  <anchor x="458.82758620689657" y="69.75862068965517" name="bottom"/>
  <anchor x="470.0689655172414" y="80.55172413793103" name="bottom.rakaar"/>
  <anchor x="470.0689655172414" y="7.275862068965517" name="bottom.rvocalic"/>
  <anchor x="450.0689655172414" y="10.96551724137931" name="bottom.virama"/>
  <anchor x="457.6551724137931" y="578.0689655172414" name="top"/>
  <anchor x="460.0344827586207" y="570.6206896551724" name="topright"/>
  <anchor x="275.0344827586207" y="0.0" name="vedic"/>
  <outline>
    <contour>
      <point x="463.2068965517241" y="-21.06896551724138" type="line"/>
      <point x="470.0689655172414" y="-19.448275862068968" type="line"/>
      <point x="470.0689655172414" y="557.5862068965517" type="line"/>
      <point x="582.7931034482758" y="557.5862068965517" type="line"/>
      <point x="544.448275862069" y="622.0" type="line"/>
      <point x="-32.724137931034484" y="622.0" type="line"/>
      <point x="6.241379310344827" y="557.5862068965517" type="line"/>
      <point x="394.3448275862069" y="557.5862068965517" type="line"/>
      <point x="394.3448275862069" y="346.1034482758621" type="line" smooth="yes"/>
      <point x="394.3448275862069" y="282.3448275862069"/>
      <point x="400.9655172413793" y="190.68965517241378"/>
      <point x="404.2068965517241" y="151.9655172413793" type="curve"/>
      <point x="417.7931034482759" y="153.3793103448276" type="line"/>
      <point x="400.3448275862069" y="283.9310344827586"/>
      <point x="311.58620689655174" y="428.44827586206895"/>
      <point x="163.72413793103448" y="428.44827586206895" type="curve" smooth="yes"/>
      <point x="85.13793103448276" y="428.44827586206895"/>
      <point x="30.551724137931032" y="383.3448275862069"/>
      <point x="30.551724137931032" y="305.7931034482759" type="curve" smooth="yes"/>
      <point x="30.551724137931032" y="237.10344827586206"/>
      <point x="72.24137931034483" y="185.75862068965517"/>
      <point x="148.20689655172413" y="185.75862068965517" type="curve" smooth="yes"/>
      <point x="215.27586206896552" y="185.75862068965517"/>
      <point x="250.3793103448276" y="229.20689655172413"/>
      <point x="250.3793103448276" y="284.9310344827586" type="curve" smooth="yes"/>
      <point x="250.3793103448276" y="309.0344827586207"/>
      <point x="242.51724137931035" y="335.41379310344826"/>
      <point x="221.79310344827587" y="349.2758620689655" type="curve"/>
      <point x="193.44827586206895" y="297.17241379310343" type="line"/>
      <point x="203.06896551724137" y="302.7931034482759"/>
      <point x="220.41379310344828" y="306.6551724137931"/>
      <point x="235.27586206896552" y="306.6551724137931" type="curve" smooth="yes"/>
      <point x="336.8965517241379" y="306.6551724137931"/>
      <point x="397.82758620689657" y="138.86206896551724"/>
      <point x="407.7931034482759" y="20.379310344827587" type="curve"/>
    </contour>
  </outline>
</glyph>
